<svg id="Layer_1" data-name="Layer 1" xmlns="http://www.w3.org/2000/svg" viewBox="0 0 81.5 83"><defs><style>.cls-1{fill:#1ec1aa;}</style></defs><path class="cls-1" d="M23,50.68A5.52,5.52,0,0,1,23.49,48a17,17,0,0,1,3.7-5.15c3.57-3.63,9.2-7.43,16-10.48A49,49,0,0,0,53.78,26c2.81-2.27,4.82-4.57,5.73-6.75a6,6,0,0,0,.27-.78L64.57,28a3.52,3.52,0,0,1-.14,2.94c-.1.23-.23.48-.36.72l-.71-1.4a.77.77,0,0,0-1-.42.69.69,0,0,0-.27,1L63.22,33a18.62,18.62,0,0,1-1.72,2c-.5.51-1.07,1-1.67,1.53l-2-4a.79.79,0,0,0-1-.42.71.71,0,0,0-.27,1l2.18,4.3a43.33,43.33,0,0,1-3.83,2.66l-1-2a.79.79,0,0,0-1-.43.7.7,0,0,0-.27,1l1.1,2.19c-1.28.75-2.65,1.46-4.09,2.14l-2.18-4.31a.77.77,0,0,0-1-.42.69.69,0,0,0-.27,1l2.19,4.34c-1.09.49-2.14,1-3.17,1.54a1.71,1.71,0,0,1,.7.2,1.73,1.73,0,0,1,.74.84c.9-.46,1.82-.9,2.78-1.33A49.66,49.66,0,0,0,60,38.43c2.81-2.27,4.82-4.58,5.72-6.76a5,5,0,0,0,.06-4.26L59.56,15a4.62,4.62,0,0,0-2.94-2.21A13.53,13.53,0,0,0,52,12.43a36.9,36.9,0,0,0-12.33,3.35,31.79,31.79,0,0,0-6.83,4.08,12.25,12.25,0,0,0-3.73,4.41,3.51,3.51,0,0,0,0,3h0l4.35,8.61c-1.51,1-2.92,2-4.18,3-3.51,2.82-6,5.69-7.12,8.38a6.94,6.94,0,0,0-.56,3.56A8.6,8.6,0,0,0,23,50.68Zm7.35-24A2,2,0,0,1,30.46,25a8.36,8.36,0,0,1,1.82-2.53,27.49,27.49,0,0,1,8.11-5.31,39.81,39.81,0,0,1,9.25-2.93,15.59,15.59,0,0,1,6.77,0,2.93,2.93,0,0,1,1.9,1.31v0a3.48,3.48,0,0,1-.15,2.92,13.43,13.43,0,0,1-2.93,4.08,31,31,0,0,1-3.11,2.7l-3.08-6.09h0a2.42,2.42,0,0,0-1.51-1.17,6,6,0,0,0-2-.18,15.78,15.78,0,0,0-5.18,1.41.62.62,0,0,0-.34.4.87.87,0,0,0,.07.59L42.46,25c-.32.16-.65.32-1,.47a25.27,25.27,0,0,1-5.87,1.86,9.77,9.77,0,0,1-4.22,0A1.59,1.59,0,0,1,30.35,26.68ZM47.71,20.6a5.16,5.16,0,0,1-1.12,1.55,14.79,14.79,0,0,1-2.93,2.22l-2-3.95a15.06,15.06,0,0,1,3.07-.9,5.93,5.93,0,0,1,2.58,0c.37.11.46.24.47.27h0C47.86,19.9,47.9,20.15,47.71,20.6ZM31.47,28.88a8.86,8.86,0,0,0,2.74.19,23.76,23.76,0,0,0,8-2.16c.56-.25,1.1-.52,1.62-.8l0,0a19.41,19.41,0,0,0,2.76-1.82,8.7,8.7,0,0,0,2.21-2.47L51,26.14A50.94,50.94,0,0,1,42.48,31a67.27,67.27,0,0,0-7.86,4.15Z"/><path class="cls-1" d="M43.9,45.41a1.67,1.67,0,0,1,.23-.12l-1-1.91a.79.79,0,0,0-1-.43.65.65,0,0,0-.36.68,1.65,1.65,0,0,1,1.07.16A2,2,0,0,1,43.9,45.41Z"/><path class="cls-1" d="M52.77,49.4a1.82,1.82,0,0,0-2.94-1.13,2,2,0,0,0-1-1.61,1.91,1.91,0,0,0-2,.09A2,2,0,0,0,46,45.2a1.94,1.94,0,0,0-2.05.16,2,2,0,0,0-1-1.62,1.87,1.87,0,0,0-1.75,0l-.22-.12a1.8,1.8,0,0,0-2.72-1.33c-3-1.33-5.23-1.83-6.59-1.46-1.64.44-2.2,3.93-2.2,4A2.52,2.52,0,0,0,30.67,47c-.34.29-.61.54-.79.72l-.14.08c-.34.22-.69.42-1,.62l-.25.14c-.56.3-4.18,2.22-7,2.2-1,0-1.22-.25-2.24-1.6-.32-.41-.7-.91-1.17-1.5a6.17,6.17,0,0,0-2.85-2,6,6,0,0,0-3.46-.13l-.43.11-.18.4A84.21,84.21,0,0,0,7.37,57.16c0,.05,0,.11,0,.17h0a9.55,9.55,0,0,0-.11,4.48c-.65,1.33-.63,3.39.06,6.45l0,.19.12.15c.37.49,2,1.59,8.75,1.5,7.24-.1,27.19-.17,36.57,0h.8c8.62,0,19.41-2.5,20.5-5.81l0-.27c0-.61-.06-3.57-1.22-5-.29-1-1.57-3.71-6.89-4.08-4.33-.3-5.91-1-6.28-1.18,0,0-.63-.34-1-.52a2.76,2.76,0,0,0,.06-.4,2.13,2.13,0,0,0-.73-1.72A2.24,2.24,0,0,0,55.86,51a2,2,0,0,0-1.09-1.51A2.39,2.39,0,0,0,52.77,49.4ZM65.9,56.8c3.11.21,4.41,1.31,4.95,2.09q-3.48.77-7,1.32l-2.58-4A30.46,30.46,0,0,0,65.9,56.8ZM58.14,55l.34.16,3.42,5.32c-1.19.16-2.37.32-3.56.44l-1.81-4.4a2.63,2.63,0,0,0,.63-.35A3.94,3.94,0,0,0,58.14,55Zm-2.57-1.7a3.21,3.21,0,0,1,.8-1l0,0h0a.87.87,0,0,1,.48-.19.54.54,0,0,1,.25.06.74.74,0,0,1,.32.64s0,.09,0,.13a3.17,3.17,0,0,1-.32,1.22h0a2,2,0,0,1-.18.29,2.54,2.54,0,0,1-.61.74.78.78,0,0,1-.8.17.88.88,0,0,1-.35-.77A2.72,2.72,0,0,1,55.57,53.31Zm-3.19-1s0-.08,0-.11a3.4,3.4,0,0,1,.12-.34,2.92,2.92,0,0,1,.78-1,1.09,1.09,0,0,1,.59-.24.46.46,0,0,1,.22.06.56.56,0,0,1,.22.21l0,.06a1.52,1.52,0,0,1,.09.25,1.28,1.28,0,0,1,0,.17s0,0,0,.07a2.83,2.83,0,0,1-.31,1.25,1.83,1.83,0,0,1-.16.26,2.67,2.67,0,0,1-.62.76.76.76,0,0,1-.8.18.88.88,0,0,1-.35-.77A2.47,2.47,0,0,1,52.38,52.33Zm-3-1.37c0-.1.08-.2.12-.3a1.22,1.22,0,0,1,.1-.24,5.77,5.77,0,0,1,.35-.55,3.5,3.5,0,0,1,.37-.39l.05-.06,0,0a.91.91,0,0,1,.54-.23.54.54,0,0,1,.25.06.74.74,0,0,1,.18.17,1,1,0,0,1,.11.27.43.43,0,0,0,0,0,1.41,1.41,0,0,1,0,.28v0a2,2,0,0,1-.09.57,3.36,3.36,0,0,1-.23.62h0a2.26,2.26,0,0,1-.25.4,2.42,2.42,0,0,1-.54.63c-.17.13-.51.34-.8.17a.84.84,0,0,1-.35-.76A2.26,2.26,0,0,1,49.43,51Zm1.76,3.11-1.06-.33a2.13,2.13,0,0,0,.87-.31A2.64,2.64,0,0,0,51.19,54.07ZM46.4,49.61a2.78,2.78,0,0,1,.21-.59.09.09,0,0,1,0-.05,3.76,3.76,0,0,1,.31-.52c.1-.12.19-.22.29-.32s.07-.08.11-.11l.07-.08a1.05,1.05,0,0,1,.57-.22.43.43,0,0,1,.24.06.92.92,0,0,1,.37.77s0,0,0,.06,0,0,0,.08a3.16,3.16,0,0,1-.07.5,3.79,3.79,0,0,1-.18.5,1,1,0,0,0,0,.1,3.45,3.45,0,0,1-.25.41,2.42,2.42,0,0,1-.53.6.74.74,0,0,1-.8.17.88.88,0,0,1-.35-.76A2.11,2.11,0,0,1,46.4,49.61Zm-2.95-1.35.06-.19a3.42,3.42,0,0,1,.21-.55h0A4.38,4.38,0,0,1,44,47a3.45,3.45,0,0,1,.3-.34,2,2,0,0,1,.2-.21h0a1.25,1.25,0,0,1,.42-.2l.12,0a.45.45,0,0,1,.25.07.79.79,0,0,1,.32.72.43.43,0,0,1,0,.05,1,1,0,0,0,0,.19,3.28,3.28,0,0,1-.1.49,4.37,4.37,0,0,1-.19.54h0a3.32,3.32,0,0,1-.38.61h0a2.34,2.34,0,0,1-.41.42.76.76,0,0,1-.8.16.84.84,0,0,1-.35-.77A2.22,2.22,0,0,1,43.45,48.26Zm-3-1.36h0c0-.11,0-.23.07-.34a4.59,4.59,0,0,1,.17-.48,4.34,4.34,0,0,1,.28-.46l.27-.33a2.49,2.49,0,0,1,.23-.23,1,1,0,0,1,.59-.24.46.46,0,0,1,.22.06.88.88,0,0,1,.37.76c0,.08,0,.18,0,.28a2.41,2.41,0,0,1-.08.44,3.24,3.24,0,0,1-.19.52,3.31,3.31,0,0,1-.44.68,1.82,1.82,0,0,1-.34.34.74.74,0,0,1-.8.17.89.89,0,0,1-.35-.77A1.94,1.94,0,0,1,40.46,46.9Zm-2.65-2.27a3.26,3.26,0,0,1,.8-1,.94.94,0,0,1,.55-.23.52.52,0,0,1,.24.05.8.8,0,0,1,.32.77,3,3,0,0,1,0,.39,2.58,2.58,0,0,1-.09.35,4.59,4.59,0,0,1-.17.48v0h0a2.86,2.86,0,0,1-.28.45l0,.06-.21.25a2.12,2.12,0,0,1-.26.26.76.76,0,0,1-.8.18.81.81,0,0,1-.35-.74h0A2.55,2.55,0,0,1,37.81,44.63ZM38,48a2.08,2.08,0,0,0,1.12-.35,2.08,2.08,0,0,0,1,1.54h0a1.69,1.69,0,0,0,.89.25,2.14,2.14,0,0,0,1.11-.34,2,2,0,0,0,1,1.56,1.81,1.81,0,0,0,.88.23,2.14,2.14,0,0,0,1.11-.34,2.08,2.08,0,0,0,1,1.55,1.78,1.78,0,0,0,.89.24A2.14,2.14,0,0,0,48,52a2.18,2.18,0,0,0,.62,1.31l-16.29-5c1-.63,1.83-1.23,2.48-1.68s.93-.65,1.09-.74a.7.7,0,0,1,.23-.06s0,0,0,0a2.07,2.07,0,0,0,1,1.89A1.74,1.74,0,0,0,38,48ZM32.09,42.6c.34-.09,1.6-.21,4.76,1.1l-.13.23a9.92,9.92,0,0,0-4.57,2,3.21,3.21,0,0,1-.95-.78A6.62,6.62,0,0,1,32.09,42.6ZM22.34,52.68a19.76,19.76,0,0,0,5.94-2c.52-.25,1-.52,1.54-.81l.52-.3,1.88.58c-2.83,1.5-7.29,3.6-11.11,4.2A6.33,6.33,0,0,0,22.34,52.68Zm-9.72-5.47a4.25,4.25,0,0,1,2,.18,4.37,4.37,0,0,1,2,1.43c.47.57.84,1,1.14,1.46.9,1.18,1.44,1.89,2.59,2.17A4.42,4.42,0,0,1,17,54.26c-.74,0-1.51-.17-2.27-.28a17.93,17.93,0,0,0-2.76-.29,6.27,6.27,0,0,0-1.75.23C10.89,51.65,11.71,49.4,12.62,47.21ZM10.06,56c.91-.7,2.31-.54,4.35-.22.79.12,1.61.25,2.49.3h0a8.73,8.73,0,0,0,2.15.26c5.1,0,11.74-3.31,15-5.11h1.59L54.8,57l1.68,4.07c-2.52.23-5,.38-7.55.43-6,.14-15-.16-22.94-.43-10.91-.36-15.24-.43-17.07-.24A6.17,6.17,0,0,1,10.06,56ZM52.83,68.76c-4.14-.08-10.32-.11-16.56-.11-8,0-16,0-20.06.11-5.65.09-7.28-.73-7.6-.94-.6-2.7-.62-4.56-.08-5.53,1.12-.36,9.4-.08,17.41.18s17,.56,23,.43a114.94,114.94,0,0,0,23-2.85c.66.88.82,3,.83,3.91C71.88,66.22,62.17,68.91,52.83,68.76Z"/><path class="cls-1" d="M53.12,59.23a.08.08,0,0,0,0,0l-.05,0Z"/></svg>