<svg width="15" height="19" viewBox="0 0 15 19" fill="none" xmlns="http://www.w3.org/2000/svg">
<path d="M8.64721 3.39073V17.4618C8.64774 17.5548 8.62988 17.647 8.59465 17.7332C8.55941 17.8193 8.5075 17.8976 8.44191 17.9635C8.3763 18.0295 8.29831 18.0819 8.2124 18.1176C8.12649 18.1533 8.03437 18.1717 7.94133 18.1717C7.84829 18.1717 7.75616 18.1533 7.67026 18.1176C7.58435 18.0819 7.50635 18.0295 7.44075 17.9635C7.37515 17.8976 7.32324 17.8193 7.28801 17.7332C7.25278 17.647 7.23491 17.5548 7.23545 17.4618V3.39073L2.08815 8.85989C2.02467 8.92922 1.94745 8.98458 1.86141 9.02245C1.77538 9.06032 1.6824 9.07988 1.5884 9.07988C1.49439 9.07988 1.40141 9.06032 1.31538 9.02245C1.22934 8.98458 1.15212 8.92922 1.08864 8.85989C0.955797 8.71531 0.88208 8.52612 0.88208 8.32978C0.88208 8.13344 0.955797 7.94425 1.08864 7.79967L7.44156 1.04862C7.50505 0.979287 7.58226 0.923924 7.6683 0.886048C7.75434 0.848173 7.84732 0.828613 7.94133 0.828613C8.03534 0.828613 8.12832 0.848173 8.21435 0.886048C8.30039 0.923924 8.37761 0.979287 8.4411 1.04862L14.794 7.79967C14.9265 7.94417 15 8.13307 15 8.32908C15 8.52509 14.9265 8.71398 14.794 8.85848C14.7306 8.92782 14.6533 8.98318 14.5673 9.02106C14.4813 9.05893 14.3883 9.07849 14.2943 9.07849C14.2003 9.07849 14.1073 9.05893 14.0212 9.02106C13.9352 8.98318 13.858 8.92782 13.7945 8.85848L8.64721 3.39216V3.39073Z" fill="white"/>
</svg>
