<svg width="28" height="27" viewBox="0 0 28 27" fill="none" xmlns="http://www.w3.org/2000/svg">
<g clip-path="url(#clip0_1_3329)">
<path fill-rule="evenodd" clip-rule="evenodd" d="M6.1656 0H21.8371C23.4702 0.00621025 25.0346 0.6343 26.1892 1.74738C27.3439 2.86046 27.9953 4.36828 28.0014 5.94223V21.0447C27.9978 22.6206 27.3477 24.1312 26.1928 25.2468C25.038 26.3625 23.4722 26.9927 21.8371 27H6.1656C4.52946 26.9955 2.96188 26.3662 1.80623 25.25C0.650576 24.1337 0.0010721 22.6215 0 21.0447V5.94223C0.00394732 4.36742 0.654807 2.8582 1.81023 1.74464C2.96565 0.631084 4.53159 0.00380432 6.1656 0Z" fill="white"/>
<path fill-rule="evenodd" clip-rule="evenodd" d="M15.3481 10.4412V9.13143C15.3481 8.50538 15.7857 8.35608 16.0955 8.35608H17.9858V5.57422H15.3766C12.4848 5.57422 11.8352 7.64096 11.8352 8.97296V10.4412H10.1569V13.6906H11.8501V21.8109H15.2203V13.6906H17.7181L17.8309 12.4123L18.028 10.4412H15.3481Z" fill="#7B002B"/>
<path fill-rule="evenodd" clip-rule="evenodd" d="M15.3481 10.4412V9.13143C15.3481 8.50538 15.7857 8.35608 16.0955 8.35608H17.9858V5.57422H15.3766C12.4848 5.57422 11.8352 7.64096 11.8352 8.97296V10.4412H10.1569V13.6906H11.8501V21.8109H15.2203V13.6906H17.7181L17.8309 12.4123L18.028 10.4412H15.3481Z" fill="#4E4E4D"/>
</g>
<defs>
<clipPath id="clip0_1_3329">
<rect width="28" height="27" fill="white"/>
</clipPath>
</defs>
</svg>
