<svg width="16" height="16" viewBox="0 0 16 16" fill="none" xmlns="http://www.w3.org/2000/svg">
<path d="M12.6392 15.9938C9.34054 15.8955 6.21303 14.5037 3.93247 12.1194L3.8885 12.0691C2.67504 10.9183 1.70547 9.53534 1.03746 8.00243C0.369453 6.46953 0.0166386 4.81799 0 3.14604V2.91371L0.144484 2.7316C0.352028 2.46805 0.574345 2.21647 0.810365 1.97807C1.65059 1.14141 2.65914 0.492858 3.76914 0.0754007C3.90646 0.0278536 4.05099 0.00448236 4.19631 0.00632683C4.56694 0.00632683 5.40243 0.19471 5.61602 0.778697C5.99293 1.8148 6.47036 3.17744 6.81586 4.48356C6.87322 4.76906 6.85403 5.06464 6.76026 5.34033C6.66649 5.61603 6.50146 5.86204 6.2819 6.05342L5.08834 6.82579C5.10932 6.97488 5.16529 7.1169 5.25167 7.24024C5.75559 7.91543 6.30999 8.55147 6.91009 9.14291C7.49669 9.72755 8.12668 10.267 8.79466 10.7567C8.90404 10.8439 9.03812 10.8944 9.17786 10.9011L9.59874 10.3109L9.98822 9.68294C10.1467 9.50816 10.3409 9.36948 10.5576 9.2763C10.7744 9.18312 11.0087 9.13763 11.2446 9.14291C11.3335 9.14254 11.4221 9.15309 11.5084 9.1743C12.807 9.4359 14.0716 9.84461 15.2776 10.3925C15.5683 10.5921 15.7867 10.8804 15.8999 11.2143C16.0131 11.5482 16.0152 11.9098 15.9058 12.2449C15.4901 13.3381 14.8478 14.331 14.0212 15.1586C13.781 15.397 13.5272 15.6213 13.2611 15.8305L13.0852 15.9687L12.6392 15.9938ZM1.3883 3.40978C1.51439 6.32484 2.7584 9.07947 4.86219 11.1021L4.92501 11.1649C6.93917 13.271 9.69499 14.5099 12.6078 14.6186C12.7648 14.4867 12.9219 14.3486 13.0664 14.2041C13.7572 13.508 14.2962 12.6763 14.6494 11.7614C14.6494 11.7614 14.618 11.6735 14.5866 11.6044C13.502 11.1274 12.3688 10.7695 11.2069 10.5369C11.1517 10.543 11.0971 10.5535 11.0436 10.5683L10.3463 11.661C9.91912 12.358 8.77582 12.471 7.95917 11.8682C7.23161 11.3386 6.54494 10.7551 5.90499 10.1225C5.26904 9.4759 4.6792 8.78557 4.13977 8.05656C3.97724 7.84456 3.86039 7.6012 3.7966 7.34182C3.73281 7.08244 3.72346 6.81267 3.76914 6.5495C3.79795 6.36804 3.86491 6.19475 3.96561 6.04105C4.06631 5.88735 4.19847 5.75673 4.35336 5.65782L5.44641 4.96708C5.45094 4.90437 5.45094 4.84141 5.44641 4.7787C5.17 3.6484 4.74284 2.40507 4.39733 1.41292C4.33664 1.3914 4.27317 1.37871 4.20887 1.37524C3.30751 1.73066 2.48865 2.26709 1.80291 2.95138C1.65698 3.09702 1.5186 3.25002 1.3883 3.40978Z" fill="#7B002B"/>
<path d="M12.6392 15.9938C9.34054 15.8955 6.21303 14.5037 3.93247 12.1194L3.8885 12.0691C2.67504 10.9183 1.70547 9.53534 1.03746 8.00243C0.369453 6.46953 0.0166386 4.81799 0 3.14604V2.91371L0.144484 2.7316C0.352028 2.46805 0.574345 2.21647 0.810365 1.97807C1.65059 1.14141 2.65914 0.492858 3.76914 0.0754007C3.90646 0.0278536 4.05099 0.00448236 4.19631 0.00632683C4.56694 0.00632683 5.40243 0.19471 5.61602 0.778697C5.99293 1.8148 6.47036 3.17744 6.81586 4.48356C6.87322 4.76906 6.85403 5.06464 6.76026 5.34033C6.66649 5.61603 6.50146 5.86204 6.2819 6.05342L5.08834 6.82579C5.10932 6.97488 5.16529 7.1169 5.25167 7.24024C5.75559 7.91543 6.30999 8.55147 6.91009 9.14291C7.49669 9.72755 8.12668 10.267 8.79466 10.7567C8.90404 10.8439 9.03812 10.8944 9.17786 10.9011L9.59874 10.3109L9.98822 9.68294C10.1467 9.50816 10.3409 9.36948 10.5576 9.2763C10.7744 9.18312 11.0087 9.13763 11.2446 9.14291C11.3335 9.14254 11.4221 9.15309 11.5084 9.1743C12.807 9.4359 14.0716 9.84461 15.2776 10.3925C15.5683 10.5921 15.7867 10.8804 15.8999 11.2143C16.0131 11.5482 16.0152 11.9098 15.9058 12.2449C15.4901 13.3381 14.8478 14.331 14.0212 15.1586C13.781 15.397 13.5272 15.6213 13.2611 15.8305L13.0852 15.9687L12.6392 15.9938ZM1.3883 3.40978C1.51439 6.32484 2.7584 9.07947 4.86219 11.1021L4.92501 11.1649C6.93917 13.271 9.69499 14.5099 12.6078 14.6186C12.7648 14.4867 12.9219 14.3486 13.0664 14.2041C13.7572 13.508 14.2962 12.6763 14.6494 11.7614C14.6494 11.7614 14.618 11.6735 14.5866 11.6044C13.502 11.1274 12.3688 10.7695 11.2069 10.5369C11.1517 10.543 11.0971 10.5535 11.0436 10.5683L10.3463 11.661C9.91912 12.358 8.77582 12.471 7.95917 11.8682C7.23161 11.3386 6.54494 10.7551 5.90499 10.1225C5.26904 9.4759 4.6792 8.78557 4.13977 8.05656C3.97724 7.84456 3.86039 7.6012 3.7966 7.34182C3.73281 7.08244 3.72346 6.81267 3.76914 6.5495C3.79795 6.36804 3.86491 6.19475 3.96561 6.04105C4.06631 5.88735 4.19847 5.75673 4.35336 5.65782L5.44641 4.96708C5.45094 4.90437 5.45094 4.84141 5.44641 4.7787C5.17 3.6484 4.74284 2.40507 4.39733 1.41292C4.33664 1.3914 4.27317 1.37871 4.20887 1.37524C3.30751 1.73066 2.48865 2.26709 1.80291 2.95138C1.65698 3.09702 1.5186 3.25002 1.3883 3.40978Z" fill="#4E4E4D"/>
</svg>
