<svg width="90" height="257" viewBox="0 0 90 257" fill="none" xmlns="http://www.w3.org/2000/svg">
<path d="M-2.7671 256.095C-19.7279 256.095 -35.2309 252.095 -49.2759 244.094C-63.1402 236.275 -74.6831 224.691 -82.6634 210.589C-90.8878 196.247 -95 180.119 -95 162.206C-95 144.293 -90.9295 128.212 -82.7885 113.962C-74.8261 99.8783 -63.276 88.3323 -49.4011 80.586C-35.2559 72.6029 -19.7112 68.6113 -2.7671 68.6113C14.177 68.6113 29.7245 72.6115 43.8752 80.612C57.7964 88.3944 69.4273 99.926 77.5381 113.988C85.8516 128.243 90.0056 144.325 90 162.232C89.9944 180.14 85.8405 196.267 77.5381 210.615C69.4562 224.733 57.821 236.314 43.8752 244.12C29.7412 252.103 14.1937 256.095 -2.7671 256.095ZM-2.7671 215.41C11.801 215.41 23.4087 210.586 32.056 200.939C40.7034 191.291 45.0298 178.383 45.0354 162.215C45.0354 145.88 40.709 132.92 32.056 123.336C23.4031 113.751 11.7954 108.971 -2.7671 108.994C-17.1571 108.994 -28.6786 113.818 -37.3315 123.465C-45.9844 133.113 -50.3081 146.021 -50.3025 162.189C-50.3025 178.178 -45.9788 191.043 -37.3315 200.783C-28.6841 210.523 -17.1627 215.393 -2.7671 215.393V215.41Z" fill="#1EC1AA"/>
<path d="M-1.65642 51.687C11.9521 51.687 22.984 40.2679 22.984 26.1817C22.984 12.0956 11.9521 0.676514 -1.65642 0.676514C-15.265 0.676514 -26.2969 12.0956 -26.2969 26.1817C-26.2969 40.2679 -15.265 51.687 -1.65642 51.687Z" fill="#1EC1AA"/>
</svg>
