<svg width="70" height="70" viewBox="0 0 70 70" fill="none" xmlns="http://www.w3.org/2000/svg">
<path d="M68.4746 42.1715L61.9594 16.2568H21.1094L14.6086 42.1715C14.3893 43.0478 14.3702 43.9632 14.553 44.848C14.7357 45.7329 15.1154 46.5638 15.663 47.2776C16.2107 47.9914 16.9119 48.5692 17.7134 48.9671C18.5148 49.365 19.3952 49.5724 20.2878 49.5735H62.7666C63.6615 49.5768 64.5453 49.3727 65.3504 48.9768C66.1555 48.5808 66.8604 48.0035 67.4113 47.2891C67.9622 46.5748 68.3444 45.7422 68.5287 44.8551C68.713 43.9681 68.6945 43.0501 68.4746 42.1715Z" stroke="#1EC1AA" stroke-width="1.8" stroke-miterlimit="10"/>
<path d="M54.2621 25.2941V9.46786C54.2621 6.6501 53.1378 1 47.5595 1H35.6677C30.0894 1 28.9795 6.6501 28.9795 9.46786V25.2941" stroke="#1EC1AA" stroke-width="1.8" stroke-miterlimit="10"/>
<path d="M26.875 46.8434C26.875 46.8434 23.5885 45.3834 23.7615 44.2154C23.9344 43.0474 24.6119 41.1494 25.3182 40.9596C26.0245 40.7698 27.956 40.6823 32.8281 43.0766C37.7001 45.471 46.4639 51.4569 26.875 46.8434Z" fill="white" stroke="#1EC1AA" stroke-width="0.93" stroke-miterlimit="10"/>
<path d="M26.875 46.8434C26.875 46.8434 23.5885 45.3834 23.7615 44.2154C23.9344 43.0474 24.6119 41.1494 25.3182 40.9596C26.0245 40.7698 27.956 40.6823 32.8281 43.0766C37.7001 45.471 46.3919 51.4569 26.875 46.8434Z" stroke="#1EC1AA" stroke-width="1.8" stroke-miterlimit="10"/>
<path d="M1.52026 61.2826C1.52026 61.2826 3.89861 62.6258 27.6677 62.6258C51.4368 62.6258 55.4295 62.6258 65.7934 58.8737C65.7934 58.8737 65.3177 55.6033 59.6097 55.2091C53.9016 54.8149 52.6764 53.7491 52.6764 53.7491L33.6496 44.9017C33.6496 44.9017 30.2334 43.6899 28.9938 44.3615C27.7542 45.0331 19.7687 51.5737 13.7868 51.1649C13.7868 51.1795 -0.858096 50.2744 1.52026 61.2826Z" stroke="#1EC1AA" stroke-width="1.8" stroke-miterlimit="10"/>
<path d="M28.9939 48.5806C28.9939 48.5806 16.6409 56.2747 10.2554 54.4205L11.8986 51.1502C16.0587 51.2446 20.1542 50.097 23.675 47.8506L28.9939 48.5806Z" fill="white" stroke="#1EC1AA" stroke-width="0.93" stroke-miterlimit="10"/>
<path d="M28.9939 48.5806C28.9939 48.5806 16.6409 56.2747 10.2554 54.4205L11.8986 51.1502C16.0587 51.2446 20.1542 50.097 23.675 47.8506L28.9939 48.5806Z" stroke="#1EC1AA" stroke-width="1.8" stroke-miterlimit="10"/>
<path d="M49.0585 55.6177L51.9414 62.6256L57.8368 61.7642L52.7053 53.7635C52.7053 53.7635 33.0443 44.697 31.8623 44.2298C28.5903 42.945 23.7183 47.8798 23.7183 47.8798L49.0585 55.6177Z" fill="white" stroke="#1EC1AA" stroke-width="0.93" stroke-miterlimit="10"/>
<path d="M49.0585 55.6177L51.9414 62.6256L57.8368 61.7642L52.7053 53.7635C52.7053 53.7635 33.0443 44.697 31.8623 44.2298C28.5903 42.945 23.7183 47.8798 23.7183 47.8798L49.0585 55.6177Z" stroke="#1EC1AA" stroke-width="1.8" stroke-miterlimit="10"/>
<path d="M32.8137 45.0915C32.3812 45.9821 31.6749 46.5514 31.2137 46.3032C30.7524 46.055 30.738 45.179 31.2137 44.2885C31.6893 43.3979 32.3524 42.8285 32.8137 43.0767C33.2749 43.3249 33.2893 44.2009 32.8137 45.0915Z" fill="white" stroke="#1EC1AA" stroke-width="0.93" stroke-miterlimit="10"/>
<path d="M33.3984 45.3754L33.3984 45.3754L33.4021 45.3676C33.6379 44.8652 33.7861 44.3316 33.7933 43.8529C33.8 43.4044 33.675 42.802 33.1217 42.5043C32.5426 42.1927 31.9678 42.4687 31.6171 42.7448C31.2412 43.0406 30.9047 43.4872 30.6403 43.9822C30.3635 44.5006 30.2099 45.0482 30.2123 45.54C30.2147 46.0075 30.3705 46.5877 30.9057 46.8756C31.4816 47.1855 32.0656 46.9139 32.4218 46.6388C32.8078 46.3407 33.1497 45.8876 33.3984 45.3754Z" stroke="#1EC1AA" stroke-width="1.3" stroke-miterlimit="10"/>
<path d="M35.783 46.5512C35.365 47.4418 34.6443 48.0112 34.1975 47.7484C33.7506 47.4856 33.7074 46.6242 34.1254 45.7482C34.5434 44.8722 35.2641 44.2883 35.7254 44.5365C36.1867 44.7847 36.2155 45.6606 35.7254 46.5512" fill="white"/>
<path d="M35.783 46.5512C35.365 47.4418 34.6443 48.0112 34.1975 47.7484C33.7506 47.4856 33.7074 46.6242 34.1254 45.7482C34.5434 44.8722 35.2641 44.2883 35.7254 44.5365C36.1867 44.7847 36.2155 45.6606 35.7254 46.5512" stroke="#1EC1AA" stroke-width="0.93" stroke-miterlimit="10"/>
<path d="M33.868 48.3087C34.4439 48.6474 35.0429 48.3691 35.3963 48.0983C35.7835 47.8018 36.1267 47.3475 36.3696 46.8313C36.6201 46.3142 36.7536 45.77 36.7391 45.2835C36.7252 44.8208 36.5622 44.2486 36.0334 43.9641C35.4534 43.652 34.864 43.9339 34.5114 44.2067C34.1247 44.5059 33.7818 44.959 33.5388 45.4683C33.2936 45.9822 33.1682 46.5214 33.1877 47.0044C33.2062 47.4648 33.3706 48.0162 33.868 48.3087Z" stroke="#1EC1AA" stroke-width="1.3" stroke-miterlimit="10"/>
<path d="M38.7668 48.0113C38.3344 48.9019 37.6281 49.4713 37.1668 49.2085C36.7055 48.9457 36.6911 48.0843 37.1668 47.1937C37.6425 46.3031 38.3055 45.7337 38.7668 45.9965C39.228 46.2593 39.2425 47.1207 38.7668 48.0113Z" fill="white" stroke="#1EC1AA" stroke-width="0.93" stroke-miterlimit="10"/>
<path d="M39.3515 48.2952L39.3515 48.2953L39.3552 48.2875C39.5905 47.7863 39.7392 47.2561 39.7464 46.7783C39.7533 46.324 39.6246 45.7372 39.0886 45.4318C38.5091 45.1016 37.9267 45.3735 37.5722 45.6503C37.1946 45.945 36.8576 46.393 36.5935 46.8875C36.3172 47.4047 36.163 47.9487 36.1655 48.4398C36.1678 48.9126 36.3268 49.478 36.845 49.7732C37.4216 50.1017 38.0132 49.8339 38.3728 49.5584C38.7607 49.2614 39.103 48.807 39.3515 48.2952Z" stroke="#1EC1AA" stroke-width="1.3" stroke-miterlimit="10"/>
<path d="M41.736 49.4713C41.318 50.3473 40.5973 50.9312 40.1505 50.6684C39.7037 50.4056 39.6604 49.5443 40.0784 48.6537C40.4964 47.7631 41.2171 47.1937 41.6784 47.4565C42.1397 47.7193 42.1685 48.5807 41.6784 49.4713" fill="white"/>
<path d="M41.736 49.4713C41.318 50.3473 40.5973 50.9312 40.1505 50.6684C39.7037 50.4056 39.6604 49.5443 40.0784 48.6537C40.4964 47.7631 41.2171 47.1937 41.6784 47.4565C42.1397 47.7193 42.1685 48.5807 41.6784 49.4713" stroke="#1EC1AA" stroke-width="0.93" stroke-miterlimit="10"/>
<path d="M39.821 51.2287C40.4019 51.5704 41.0035 51.28 41.3514 51.0113C41.7364 50.714 42.079 50.2613 42.3217 49.7532C42.5722 49.2367 42.7067 48.6953 42.6921 48.2089C42.678 47.7412 42.5123 47.1835 42.0002 46.8917C41.4245 46.5637 40.8298 46.8303 40.4685 47.1054C40.0774 47.4031 39.733 47.8597 39.49 48.3775C39.2463 48.8968 39.1212 49.4384 39.1407 49.9225C39.1592 50.3841 39.3232 50.936 39.821 51.2287Z" stroke="#1EC1AA" stroke-width="1.3" stroke-miterlimit="10"/>
<path d="M44.7199 50.9166C44.2875 51.8072 43.5812 52.3766 43.1199 52.1284C42.6587 51.8802 42.6443 51.0042 43.1199 50.1137C43.5956 49.2231 44.2586 48.6537 44.7199 48.9165C45.1812 49.1793 45.1956 50.0406 44.7199 50.9166Z" fill="white" stroke="#1EC1AA" stroke-width="0.93" stroke-miterlimit="10"/>
<path d="M45.3046 51.2005L45.3046 51.2005L45.3065 51.1966C45.5431 50.7008 45.6924 50.1733 45.6996 49.6964C45.7064 49.2431 45.5773 48.6569 45.0417 48.3517C44.4622 48.0215 43.8798 48.2935 43.5253 48.5702C43.1477 48.865 42.8107 49.3129 42.5466 49.8074C42.2697 50.3258 42.1161 50.8733 42.1186 51.3652C42.1209 51.8327 42.2768 52.4128 42.8119 52.7008C43.3879 53.0107 43.9719 52.7391 44.328 52.464C44.714 52.1659 45.0559 51.7128 45.3046 51.2005Z" stroke="#1EC1AA" stroke-width="1.3" stroke-miterlimit="10"/>
<path d="M47.6892 52.3767C47.2712 53.2673 46.5505 53.8366 46.1036 53.5884C45.6568 53.3402 45.6135 52.4497 46.0315 51.5737C46.4496 50.6977 47.1703 50.1137 47.6315 50.3619C48.0928 50.6101 48.1216 51.4861 47.6315 52.3767" fill="white"/>
<path d="M47.6892 52.3767C47.2712 53.2673 46.5505 53.8366 46.1036 53.5884C45.6568 53.3402 45.6135 52.4497 46.0315 51.5737C46.4496 50.6977 47.1703 50.1137 47.6315 50.3619C48.0928 50.6101 48.1216 51.4861 47.6315 52.3767" stroke="#1EC1AA" stroke-width="0.93" stroke-miterlimit="10"/>
<path d="M45.788 54.1567C46.3633 54.4762 46.9544 54.1944 47.3045 53.924C47.6898 53.6265 48.0326 53.1734 48.2758 52.6568C48.5262 52.1396 48.6598 51.5955 48.6452 51.1089C48.6314 50.6462 48.4683 50.074 47.9395 49.7895C47.3595 49.4774 46.7701 49.7593 46.4175 50.0322C46.0308 50.3314 45.6879 50.7845 45.4449 51.2938C45.1985 51.8101 45.0745 52.3563 45.0938 52.8423C45.1118 53.2968 45.2713 53.8696 45.788 54.1567Z" stroke="#1EC1AA" stroke-width="1.3" stroke-miterlimit="10"/>
<path d="M50.6729 53.8365C50.2405 54.7271 49.5342 55.2965 49.0729 55.0337C48.6117 54.7709 48.5973 53.9095 49.0729 53.0189C49.5486 52.1283 50.2117 51.5589 50.6729 51.8217C51.1342 52.0845 51.1486 52.9459 50.6729 53.8365Z" fill="white" stroke="#1EC1AA" stroke-width="0.93" stroke-miterlimit="10"/>
<path d="M51.2576 54.1204L51.2577 54.1205L51.2613 54.1127C51.4966 53.6115 51.6454 53.0813 51.6526 52.6035C51.6594 52.1492 51.5307 51.5624 50.9947 51.257C50.4152 50.9268 49.8328 51.1987 49.4784 51.4754C49.1007 51.7702 48.7637 52.2182 48.4996 52.7127C48.2234 53.2299 48.0691 53.7739 48.0716 54.265C48.074 54.7378 48.233 55.3032 48.7512 55.5985C49.3278 55.927 49.9194 55.6591 50.279 55.3836C50.6668 55.0866 51.0091 54.6322 51.2576 54.1204Z" stroke="#1EC1AA" stroke-width="1.3" stroke-miterlimit="10"/>
<path d="M1.52031 67.4436C1.52031 67.4436 2.47164 68.6991 9.59228 68.5969C16.7129 68.4947 36.9794 68.4217 46.3919 68.5969C55.8044 68.7721 66.0817 65.9836 66.9322 63.3848C66.9322 63.3848 66.9322 59.9247 65.7934 58.8589C58.1462 60.6262 50.3419 61.6045 42.5 61.7788C29.3686 62.0708 2.14013 60.3188 1.52031 61.297C0.9005 62.2752 0.756358 64.0856 1.52031 67.4581" fill="white"/>
<path d="M1.52031 67.4436C1.52031 67.4436 2.47164 68.6991 9.59228 68.5969C16.7129 68.4947 36.9794 68.4217 46.3919 68.5969C55.8044 68.7721 66.0817 65.9836 66.9322 63.3848C66.9322 63.3848 66.9322 59.9247 65.7934 58.8589C58.1462 60.6262 50.3419 61.6045 42.5 61.7788C29.3686 62.0708 2.14013 60.3188 1.52031 61.297C0.9005 62.2752 0.756358 64.0856 1.52031 67.4581" stroke="#1EC1AA" stroke-width="0.93" stroke-miterlimit="10"/>
<path d="M1.52031 67.4436C1.52031 67.4436 2.47164 68.6991 9.59228 68.5969C16.7129 68.4947 36.9794 68.4217 46.3919 68.5969C55.8044 68.7721 66.0817 65.9836 66.9322 63.3848C66.9322 63.3848 66.9322 59.9247 65.7934 58.8589C58.1462 60.6262 50.3419 61.6045 42.5 61.7788C29.3686 62.0708 2.14013 60.3188 1.52031 61.297C0.9005 62.2752 0.756358 64.071 1.52031 67.4436Z" stroke="#1EC1AA" stroke-width="1.8" stroke-miterlimit="10"/>
<path d="M5.32562 45.6755C6.30814 45.426 7.34062 45.4666 8.30105 45.7926C9.26148 46.1186 10.1097 46.7162 10.7454 47.515C13.0228 50.3036 12.9219 50.9752 15.2138 50.9752C14.8342 51.9934 14.1582 52.8709 13.2753 53.4914C12.3924 54.1119 11.3443 54.4461 10.2697 54.4499C6.65173 54.2455 2.65899 52.333 1.52026 56.8589C2.52002 53.0428 3.79181 49.3052 5.32562 45.6755Z" fill="white" stroke="#1EC1AA" stroke-width="0.93" stroke-miterlimit="10"/>
<path d="M5.32563 45.6755C6.30814 45.426 7.34062 45.4666 8.30105 45.7926C9.26148 46.1186 10.1097 46.7162 10.7454 47.515C13.0228 50.3036 12.9219 50.9752 15.2138 50.9752C14.8342 51.9934 14.1582 52.8709 13.2753 53.4914C12.3924 54.1119 11.3443 54.4461 10.2697 54.4499C6.65173 54.2455 2.65899 52.333 1.52026 56.8589C2.52002 53.0428 3.79181 49.3052 5.32563 45.6755Z" stroke="#1EC1AA" stroke-width="1.8" stroke-miterlimit="10"/>
</svg>
