<svg width="110" height="147" viewBox="0 0 110 147" fill="none" xmlns="http://www.w3.org/2000/svg">
<path d="M54.8412 146.721C44.7564 146.721 35.5384 144.423 27.1873 139.828C18.9437 135.336 12.0803 128.682 7.3353 120.581C2.44509 112.343 0 103.078 0 92.7884C0 82.4984 2.42029 73.2606 7.26088 65.075C11.9953 56.9851 18.8629 50.3526 27.1129 45.9029C35.5235 41.3171 44.7663 39.0242 54.8412 39.0242C64.9161 39.0242 74.1605 41.322 82.5744 45.9178C90.8519 50.3883 97.7676 57.0125 102.59 65.0899C107.533 73.2788 110.003 82.5166 110 92.8033C109.997 103.09 107.527 112.354 102.59 120.596C97.7848 128.706 90.8665 135.359 82.5744 139.843C74.1704 144.428 64.926 146.721 54.8412 146.721ZM54.8412 123.351C63.5033 123.351 70.4052 120.58 75.5468 115.038C80.6885 109.496 83.261 102.081 83.2643 92.7934C83.2643 83.41 80.6918 75.9655 75.5468 70.4598C70.4019 64.9542 63.5 62.208 54.8412 62.2213C46.285 62.2213 39.4344 64.9923 34.2894 70.5343C29.1444 76.0763 26.5736 83.491 26.5769 92.7785C26.5769 101.963 29.1477 109.353 34.2894 114.948C39.4311 120.543 46.2817 123.341 54.8412 123.341V123.351Z" fill="#E8FAF5"/>
<path d="M55.5015 29.3022C63.5931 29.3022 70.1526 22.7427 70.1526 14.6511C70.1526 6.55951 63.5931 0 55.5015 0C47.4099 0 40.8504 6.55951 40.8504 14.6511C40.8504 22.7427 47.4099 29.3022 55.5015 29.3022Z" fill="#E8FAF5"/>
</svg>
