<svg width="44" height="47" viewBox="0 0 44 47" fill="none" xmlns="http://www.w3.org/2000/svg">
<g clip-path="url(#clip0_816_1270)">
<path d="M22.5089 46.4139H21.6454C15.794 45.4642 10.4688 42.4705 6.61636 37.9649C2.76393 33.4593 0.633837 27.7337 0.604675 21.8057V7.50589L22.1681 0.0151367L43.6405 7.50589V21.7982C43.6102 27.7306 41.4758 33.4597 37.6173 37.9659C33.7588 42.4722 28.4265 45.4631 22.5695 46.4063L22.5089 46.4139ZM21.8272 44.8991H22.3877C27.8778 44.0006 32.8723 41.1868 36.4854 36.9567C40.0985 32.7266 42.0967 27.3536 42.1257 21.7906V8.56626L22.1378 1.60569L2.11949 8.56626V21.7982C2.14846 27.3533 4.14109 32.7191 7.74493 36.9467C11.3488 41.1743 16.3316 43.9912 21.8121 44.8991H21.8272Z" fill="#1EC1AA"/>
<path d="M19.5092 33.8033L8.47379 22.8436L11.3519 19.9503L19.5016 28.047L34.2029 13.3457L37.0886 16.2314L19.5092 33.8033Z" fill="#1EC1AA"/>
</g>
<defs>
<clipPath id="clip0_816_1270">
<rect width="43.0662" height="46.4139" fill="white" transform="translate(0.574036)"/>
</clipPath>
</defs>
</svg>
