<svg width="69" height="56" viewBox="0 0 69 56" fill="none" xmlns="http://www.w3.org/2000/svg">
<path fill-rule="evenodd" clip-rule="evenodd" d="M62.8166 9.21611C60.2059 9.60727 57.7642 10.7413 55.7851 12.4819C53.5521 14.191 51.4204 16.0275 49.4007 17.9823C46.7278 20.5422 44.2162 23.2641 41.8803 26.1325C40.0791 24.9276 38.5709 23.3371 37.4658 21.4773C36.2292 19.0136 37.2789 17.3807 38.1129 15.0316C38.5733 13.6381 38.7419 12.1654 38.6084 10.7044C38.4748 9.24343 38.0419 7.82527 37.3364 6.53757C34.0147 0.120513 26.063 -1.36919 19.7073 1.18044C16.2848 2.76231 13.2331 5.04103 10.7489 7.86967C7.69044 10.8052 5.09663 14.1859 3.05597 17.8963C1.27788 21.398 0.250952 25.2299 0.0405269 29.1485C-0.169899 33.067 0.440774 36.9862 1.83371 40.6568C3.25955 44.3235 5.42792 47.6586 8.20378 50.4543C10.8496 53.1042 14.5019 56.1838 18.4706 54.9663C20.6132 56.3987 24.5387 55.9976 26.7819 55.7684C32.5337 55.1955 40.4136 53.9779 43.8646 48.8643C44.4977 47.9704 44.9317 46.952 45.1375 45.8774C45.3434 44.8028 45.3163 43.6968 45.0581 42.6335C48.3653 40.0838 57.5106 32.435 58.5028 31.4753C62.2558 27.9087 66.9579 23.4539 68.5684 18.4263C70.0063 14.2151 67.7919 8.97262 62.8166 9.23044V9.21611ZM33.7847 8.81504C35.4239 13.5276 32.3467 19.4863 27.2564 20.2741C25.2041 20.6059 23.1013 20.1649 21.3576 19.0369C19.6138 17.9089 18.354 16.1747 17.8236 14.1721C16.6301 10.9349 18.902 6.63781 21.9217 5.03354C26.0342 2.82768 32.1454 4.1025 33.7847 8.84368V8.81504ZM26.2067 18.0539C24.5496 18.0981 22.9372 17.5154 21.694 16.4232C20.4507 15.3309 19.669 13.8101 19.506 12.1668C19.6951 10.9001 20.2217 9.70699 21.031 8.71188C21.8403 7.71677 22.9026 6.95601 24.1074 6.50889C27.3427 5.43461 31.4552 6.93863 31.8722 10.6485C32.2892 14.3583 29.9166 17.882 26.2067 18.0539ZM18.3556 21.3627C18.7807 22.0556 19.0473 22.8334 19.1365 23.6406C19.2258 24.4478 19.1354 25.2647 18.8718 26.0331C18.6083 26.8016 18.178 27.5028 17.6116 28.0869C17.0452 28.671 16.3566 29.1236 15.5948 29.4127C13.9074 30.034 12.042 29.9671 10.4038 29.2264C9.90428 28.9471 9.46859 28.5672 9.12448 28.111C8.78037 27.6548 8.53537 27.1322 8.40509 26.5765C7.13971 24.7001 8.2613 21.7351 10.0731 20.1595C10.675 19.6448 11.3805 19.2648 12.1423 19.0447C12.9041 18.8246 13.7043 18.7697 14.4892 18.8837C15.274 18.9978 16.0253 19.278 16.6922 19.7056C17.3592 20.1332 17.9264 20.6983 18.3556 21.3627ZM14.2862 27.4503C13.2719 27.7166 12.1967 27.6307 11.2378 27.2068L11.0221 27.0492C11.0072 26.9179 10.9461 26.7961 10.8496 26.7054C7.48481 23.2821 14.9189 18.1112 16.7883 23.1532C16.9382 23.5988 16.9912 24.0711 16.9436 24.5387C16.896 25.0063 16.7489 25.4584 16.5122 25.865C16.2755 26.2716 15.9545 26.6232 15.5707 26.8966C15.1869 27.1699 14.749 27.3587 14.2862 27.4503ZM9.97244 32.4779C10.5374 32.4878 11.0933 32.6213 11.6007 32.869C12.1081 33.1167 12.5546 33.4725 12.9086 33.9112C13.2626 34.3499 13.5154 34.8609 13.6491 35.4078C13.7828 35.9546 13.7942 36.5241 13.6823 37.0759C13.0496 39.9406 9.85741 40.5852 7.55672 39.3247C6.95275 38.9024 6.51022 38.2888 6.30131 37.5839C6.0924 36.8789 6.12943 36.1242 6.40636 35.443C6.55262 34.6084 6.99117 33.8525 7.64409 33.3096C8.297 32.7668 9.12199 32.4721 9.97244 32.4779ZM11.9568 36.4456C11.9119 36.734 11.804 37.0089 11.6406 37.2511C11.4772 37.4933 11.2624 37.6967 11.0114 37.8471C10.7603 37.9974 10.4792 38.0909 10.1878 38.121C9.89646 38.1511 9.60204 38.117 9.32537 38.0212C8.53451 37.8207 8.10313 37.5485 8.00247 36.7321C7.98648 36.4411 7.98648 36.1494 8.00247 35.8584C8.36196 33.9103 12.3163 33.7814 12.0287 36.4456H11.9568ZM8.6064 48.0336C5.00966 44.0268 2.74575 39.0094 2.12529 33.67C1.50483 28.3306 2.55824 22.9308 5.14097 18.2114C7.00804 15.0577 9.29069 12.1673 11.928 9.61717C14.3017 6.85378 17.244 4.63112 20.5557 3.09987C26.9401 0.636178 35.3664 3.09984 36.373 10.6771C36.8187 14.0289 34.2017 16.5356 34.6187 19.8157C35.0644 23.3537 37.7965 25.7457 40.4567 27.8227C39.0667 29.5988 37.7342 31.418 36.4592 33.28C36.2435 33.1655 36.0135 33.0652 35.769 32.9649C34.6216 32.5612 33.3845 32.4813 32.1943 32.7341C31.0042 32.9869 29.9074 33.5625 29.0251 34.3973C26.6956 36.4456 25.8041 39.3963 25.1427 42.3041C24.8477 44.0194 24.4051 45.7063 23.8198 47.346C23.4725 48.3287 22.8785 49.2064 22.0942 49.8956C21.2196 50.5304 20.1559 50.8534 19.0746 50.8124C18.769 50.829 18.4708 50.9124 18.2012 51.0568C17.9316 51.2011 17.6972 51.4028 17.5147 51.6475C17.3321 51.8922 17.2059 52.174 17.145 52.4728C17.084 52.7716 17.0899 53.08 17.1621 53.3763C13.8261 53.6341 10.5908 50.311 8.5345 48.0479L8.6064 48.0336ZM33.4971 52.6172C29.9915 53.6078 26.3551 54.0619 22.7126 53.9636C22.238 53.9636 20.3256 53.9636 19.9517 53.5339C19.0314 52.4739 20.5988 52.7318 21.1164 52.6029C22.1731 52.3117 23.1317 51.7427 23.8917 50.9556C25.9335 48.893 26.4224 45.8134 27.0264 43.1062C27.1414 42.5905 27.2564 42.0462 27.4002 41.5019C28.443 43.7537 30.1746 45.6189 32.3467 46.8304C35.3378 48.2225 38.6574 48.7629 41.9378 48.3917C39.9247 50.9127 36.5455 51.8723 33.4971 52.6172ZM43.1313 46.3433C40.0253 46.4436 36.6174 46.7874 33.7415 45.4696C32.4455 44.862 31.2913 43.9913 30.3528 42.9134C29.4143 41.8354 28.7123 40.5741 28.2918 39.2101L28.2055 39.0239C28.5171 38.0695 29.0299 37.1924 29.7094 36.4513C30.3888 35.7102 31.2194 35.1222 32.1454 34.7268C35.4527 33.5092 40.5861 39.5969 40.773 39.5252C42.5992 41.5449 44.1234 43.5932 43.1025 46.329L43.1313 46.3433ZM44.2528 40.843C42.6567 38.2074 39.4214 36.6605 38.3861 33.6811C38.3457 33.5807 38.2872 33.4884 38.2135 33.409C40.186 30.6014 42.3126 27.9044 44.5836 25.3304C46.1509 27.2068 47.7326 29.0545 49.4438 30.7877C50.4572 31.9807 51.5735 33.083 52.7798 34.0822C50.019 36.417 47.1431 38.6515 44.2672 40.8717L44.2528 40.843ZM64.7578 21.5775C62.9044 24.1269 60.8462 26.522 58.6035 28.7394C57.1655 30.1718 55.7276 31.6042 54.1602 32.879C53.3561 32.2813 52.6099 31.6099 51.9314 30.8737C51.1262 30.1002 50.3353 29.3124 49.5588 28.5102C48.2072 27.0779 46.8987 25.6455 45.6045 24.2131C47.1191 22.5611 48.6865 20.9759 50.3066 19.4576C53.2687 16.6788 62.3133 7.19644 66.3539 12.6968C68.5684 15.4899 66.5409 19.1138 64.801 21.5775H64.7578Z" fill="#1EC1AA"/>
</svg>
