<svg width="47" height="46" viewBox="0 0 47 46" fill="none" xmlns="http://www.w3.org/2000/svg">
<g clip-path="url(#clip0_816_1288)">
<path d="M44.961 3.12183L44.3495 2.20842L43.6267 1.851C40.5347 0.200033 36.9765 -0.360883 33.5266 0.258785C30.0766 0.878452 26.9361 2.64255 24.6119 5.26636L18.3848 12.7484L6.2802 12.1844L0.942719 22.2478L24.5086 45.8058L34.6197 40.4524L34.159 28.5384L41.8634 22.1843C44.4465 19.817 46.157 16.6488 46.719 13.1904C47.2809 9.73202 46.6617 6.18516 44.961 3.12183ZM32.5387 27.8156L32.9914 39.5311L24.8025 43.8598L2.89662 21.9539L7.21743 13.8206L19.1315 14.3845L25.8033 6.2989C27.8975 3.94675 30.7227 2.36826 33.8235 1.81783C36.9243 1.2674 40.1202 1.77711 42.896 3.2648L43.2613 3.44748L43.579 3.92404C45.091 6.66754 45.6388 9.83898 45.1348 12.9307C44.6308 16.0225 43.1041 18.8557 40.7991 20.977L32.5387 27.8156Z" fill="#1EC1AA"/>
<path d="M28.615 10.1351V10.1748C27.5377 11.2621 26.9334 12.7307 26.9334 14.2613C26.9334 15.7919 27.5377 17.2606 28.615 18.3478C29.652 19.343 31.0155 19.9274 32.4513 19.992H32.5228C34.0328 19.9921 35.4819 19.3966 36.5555 18.3349C37.6291 17.2731 38.2407 15.8308 38.2574 14.3209C38.2639 13.5421 38.1132 12.7699 37.8143 12.0507C37.5154 11.3315 37.0745 10.6799 36.518 10.1351C35.4331 9.15943 34.0256 8.61963 32.5665 8.61963C31.1074 8.61963 29.6999 9.15943 28.615 10.1351ZM35.3981 17.22C35.0134 17.6008 34.557 17.9015 34.0552 18.1047C33.5535 18.3078 33.0164 18.4094 32.4752 18.4034C31.4392 18.3537 30.4555 17.9338 29.7032 17.22C28.9303 16.429 28.4977 15.3671 28.4977 14.2613C28.4977 13.1555 28.9303 12.0936 29.7032 11.3027C30.4919 10.6042 31.509 10.2186 32.5625 10.2186C33.6161 10.2186 34.6332 10.6042 35.4219 11.3027C35.8153 11.6893 36.1277 12.1504 36.341 12.659C36.5542 13.1677 36.6641 13.7137 36.6641 14.2653C36.6641 14.8168 36.5542 15.3629 36.341 15.8715C36.1277 16.3802 35.8153 16.8413 35.4219 17.2279L35.3981 17.22Z" fill="#1EC1AA"/>
<path d="M15.2157 38.2518L12.3563 35.3925L11.8003 35.9326C11.6947 36.0297 11.568 36.101 11.4302 36.141C11.2924 36.1809 11.1473 36.1884 11.0061 36.1629H10.0927V35.1939C10.0898 35.0659 10.1129 34.9386 10.1607 34.8198C10.2085 34.7011 10.2799 34.5932 10.3707 34.5029L10.9266 33.9469L8.34527 31.3576L7.21741 30.2456C6.01256 31.4448 5.33271 33.073 5.32706 34.7729V41.2462H11.8083C12.6508 41.25 13.4856 41.0863 14.2642 40.7645C15.0428 40.4427 15.7496 39.9692 16.3436 39.3717L15.2236 38.2439L15.2157 38.2518ZM11.8083 39.6577H6.91559V34.7729C6.92143 34.0495 7.08686 33.3362 7.4001 32.684L8.75829 34.0343C8.57933 34.394 8.49202 34.7923 8.50413 35.1939V37.7514H10.9664C11.4048 37.7911 11.8459 37.7144 12.2451 37.529L13.8972 39.1732C13.2476 39.4937 12.5326 39.6595 11.8083 39.6577Z" fill="#1EC1AA"/>
</g>
<defs>
<clipPath id="clip0_816_1288">
<rect width="45.9643" height="45.8134" fill="white" transform="translate(0.942719)"/>
</clipPath>
</defs>
</svg>
