<svg width="258" height="346" viewBox="0 0 258 346" fill="none" xmlns="http://www.w3.org/2000/svg">
<path d="M128.188 346C104.616 346 83.0692 340.581 63.549 329.743C44.2799 319.151 28.2371 303.459 17.1459 284.356C5.71527 264.928 0 243.081 0 218.815C0 194.549 5.65731 172.764 16.9719 153.46C28.0384 134.383 44.0912 118.742 63.375 108.249C83.0344 97.4343 104.639 92.0271 128.188 92.0271C151.738 92.0271 173.346 97.446 193.014 108.284C212.362 118.826 228.527 134.447 239.799 153.496C251.354 172.807 257.127 194.592 257.119 218.85C257.112 243.108 251.338 264.955 239.799 284.391C228.567 303.516 212.396 319.204 193.014 329.779C173.37 340.593 151.761 346 128.188 346ZM128.188 290.887C148.436 290.887 164.568 284.352 176.587 271.283C188.605 258.214 194.618 240.728 194.626 218.826C194.626 196.698 188.613 179.143 176.587 166.159C164.561 153.176 148.428 146.7 128.188 146.731C108.189 146.731 92.1758 153.265 80.1497 166.335C68.1236 179.404 62.1143 196.889 62.1221 218.791C62.1221 240.451 68.1313 257.878 80.1497 271.072C92.1681 284.266 108.181 290.863 128.188 290.863V290.887Z" fill="#1EC1AA"/>
<path d="M129.732 69.1008C148.646 69.1008 163.978 53.632 163.978 34.5504C163.978 15.4687 148.646 0 129.732 0C110.818 0 95.4858 15.4687 95.4858 34.5504C95.4858 53.632 110.818 69.1008 129.732 69.1008Z" fill="#1EC1AA"/>
</svg>
