<svg width="54" height="47" viewBox="0 0 54 47" fill="none" xmlns="http://www.w3.org/2000/svg">
<g clip-path="url(#clip0_816_1250)">
<path d="M53.2661 11.2743C52.12 9.50412 49.77 8.70177 47.1232 9.17325C47.0149 9.19335 46.9117 9.23464 46.8193 9.29478C46.7269 9.35492 46.6473 9.43271 46.5849 9.52373C46.5224 9.61475 46.4785 9.71721 46.4556 9.82526C46.4327 9.93331 46.4312 10.0448 46.4512 10.1535C46.4712 10.2621 46.5124 10.3657 46.5723 10.4584C46.6323 10.551 46.7098 10.6309 46.8006 10.6935C46.8913 10.7561 46.9934 10.8002 47.1011 10.8232C47.2089 10.8462 47.32 10.8477 47.4283 10.8276C49.3907 10.4719 51.0893 10.9848 51.8562 12.1759C52.1438 12.6854 52.3031 13.2575 52.3203 13.8428C52.3376 14.428 52.2122 15.0086 51.9551 15.5342C51.2617 16.9989 50.1739 18.2398 48.8144 19.1168C47.455 19.9938 45.8781 20.472 44.262 20.4973C43.6839 20.5258 43.1074 20.4136 42.5819 20.1702C42.0564 19.9267 41.5974 19.5593 41.2441 19.0993C41.1046 18.8772 40.9938 18.6381 40.9143 18.388C40.8829 18.2793 40.8305 18.178 40.7601 18.0897C40.6896 18.0014 40.6025 17.9279 40.5037 17.8733C40.405 17.8188 40.2965 17.7843 40.1844 17.7718C40.0723 17.7594 39.9589 17.7692 39.8507 17.8007C39.7424 17.8322 39.6413 17.8848 39.5533 17.9554C39.4653 18.0261 39.392 18.1135 39.3376 18.2126C39.2833 18.3117 39.2489 18.4205 39.2365 18.5329C39.2241 18.6453 39.2338 18.7591 39.2652 18.8677C39.385 19.2745 39.5627 19.6618 39.7929 20.0175L39.8836 20.1416C38.6688 20.4033 37.4875 20.8029 36.3628 21.3327C37.5198 18.997 39.119 16.9096 41.071 15.1868H41.1287C42.4824 14.3733 43.6286 13.2546 44.4764 11.9195C45.5762 10.2777 46.1515 8.33877 46.1255 6.36086C46.1426 5.50483 45.9491 4.65777 45.5623 3.89457C45.1754 3.13138 44.607 2.47556 43.9075 1.98512C41.1947 0.223236 37.0307 1.81141 34.6312 5.52542C32.809 8.34608 32.5204 11.5969 33.6747 13.7972C33.7094 15.4986 33.1977 17.1661 32.2153 18.5534C32.2153 18.5534 32.2153 18.5534 32.2153 18.6196L31.4979 19.9182L25.9487 22.1764C24.8985 22.6081 23.9452 23.2466 23.1452 24.0541L12.1539 35.0142C11.0092 36.1627 10.2141 37.6144 9.86165 39.1996L8.36096 45.9742C8.35698 46.021 8.35698 46.068 8.36096 46.1148C8.35681 46.1588 8.35681 46.2032 8.36096 46.2472C8.36096 46.2472 8.36096 46.3299 8.36096 46.3712C8.37366 46.4167 8.39021 46.461 8.41043 46.5036C8.43613 46.5431 8.46659 46.5792 8.50113 46.6111C8.49736 46.6302 8.49736 46.6499 8.50113 46.669C8.55616 46.7306 8.62009 46.7836 8.69078 46.8262H8.79797H8.88043C8.95164 46.8348 9.02361 46.8348 9.09481 46.8262C9.15503 46.834 9.216 46.834 9.27621 46.8262L16.0293 45.3207C17.6391 45.0353 19.1332 44.2917 20.3335 43.1784L31.3 32.177C32.1035 31.37 32.7397 30.4113 33.1718 29.3563L35.3321 24.0127C37.1625 22.6754 39.3076 21.8375 41.5575 21.5809C42.376 21.9983 43.278 22.2245 44.196 22.2426H44.4764C46.4004 22.1812 48.2691 21.5818 49.8717 20.5119C51.4743 19.4421 52.747 17.9444 53.5465 16.1877C53.9047 15.4084 54.0665 14.5527 54.0176 13.6959C53.9687 12.8391 53.7107 12.0075 53.2661 11.2743ZM35.2826 15.4101C36.0215 15.8826 36.8801 16.1324 37.7563 16.1298C36.7706 17.3462 35.9062 18.6567 35.1754 20.0423L34.0293 18.8843C34.6727 17.8271 35.0988 16.6515 35.2826 15.4267V15.4101ZM36.1072 6.37741C37.5172 4.1854 39.6198 2.87019 41.4008 2.87019C41.9836 2.86161 42.5563 3.0225 43.0499 3.33341C43.5191 3.68155 43.8964 4.13925 44.1493 4.66681C44.4022 5.19438 44.523 5.77588 44.5011 6.36086C44.514 7.99148 44.0307 9.58723 43.1159 10.9351C42.2652 12.3432 41.0088 13.4594 39.5126 14.1363C38.9886 14.3942 38.4099 14.52 37.8265 14.5027C37.2431 14.4854 36.6727 14.3256 36.1649 14.037C35.8336 13.8039 35.5531 13.5055 35.3403 13.1602C34.2849 11.4976 34.5488 8.78448 36.0989 6.39395L36.1072 6.37741ZM11.5025 39.5719C11.781 38.2984 12.4194 37.1325 13.3413 36.2136L24.3161 25.2039C24.9565 24.5536 25.7225 24.0414 26.5671 23.6984L30.1704 22.2261L28.076 26.0145L10.6285 43.5175L11.5025 39.5719ZM31.5721 28.7194C31.2303 29.5667 30.7196 30.3351 30.0715 30.9775L19.0966 41.9872C18.1807 42.9121 17.0184 43.5525 15.749 43.8318L11.8158 44.7417L29.3458 27.1229C29.4015 27.0697 29.4488 27.0084 29.486 26.9409L32.7842 20.9522L33.0976 20.3732L34.4004 21.6801L31.5721 28.7194Z" fill="#1EC1AA"/>
<path d="M13.1351 23.9797C13.2149 23.9025 13.2784 23.81 13.3218 23.7077C13.3651 23.6054 13.3875 23.4953 13.3875 23.3841C13.3875 23.273 13.3651 23.1629 13.3218 23.0606C13.2784 22.9582 13.2149 22.8657 13.1351 22.7886L12.1539 21.8042L13.737 20.2574L14.0999 20.6214C14.1768 20.7014 14.269 20.7651 14.371 20.8086C14.473 20.8521 14.5827 20.8745 14.6935 20.8745C14.8044 20.8745 14.9141 20.8521 15.0161 20.8086C15.1181 20.7651 15.2103 20.7014 15.2872 20.6214L16.1118 19.7942L20.2345 23.9301C20.3125 24.0083 20.405 24.0703 20.5069 24.1127C20.6088 24.155 20.718 24.1768 20.8282 24.1768C20.9385 24.1768 21.0476 24.155 21.1495 24.1127C21.2514 24.0703 21.3439 24.0083 21.4219 23.9301C21.4998 23.8519 21.5617 23.759 21.6039 23.6568C21.6461 23.5546 21.6678 23.4451 21.6678 23.3345C21.6678 23.2239 21.6461 23.1144 21.6039 23.0122C21.5617 22.91 21.4998 22.8172 21.4219 22.7389L17.2991 18.6031L20.5973 15.2944L25.1406 19.9266C25.2981 20.0845 25.5116 20.1732 25.7343 20.1732C25.957 20.1732 26.1705 20.0845 26.328 19.9266C26.4854 19.7686 26.5739 19.5544 26.5739 19.331C26.5739 19.1076 26.4854 18.8934 26.328 18.7354L21.7105 14.1363L22.535 13.3505C22.6562 13.2315 22.7379 13.0779 22.7688 12.9106C22.7998 12.7434 22.7787 12.5706 22.7082 12.4158C22.7082 12.3579 20.4572 7.04747 28.3069 1.53849C28.4816 1.44221 28.6156 1.2857 28.6842 1.09792C28.7527 0.910146 28.7511 0.703817 28.6797 0.517124C28.6083 0.330431 28.4719 0.176015 28.2957 0.082453C28.1195 -0.0111086 27.9155 -0.03748 27.7215 0.00821944C27.202 0.0743933 15.6995 1.72874 8.33622 13.9709C8.23561 14.1314 8.193 14.3216 8.21551 14.5099C8.23803 14.6981 8.3243 14.8728 8.45991 15.0049L8.82271 15.3688L7.2808 16.9156L6.31607 15.9313C6.23915 15.8513 6.14693 15.7876 6.04493 15.7441C5.94292 15.7006 5.83323 15.6782 5.72239 15.6782C5.61155 15.6782 5.50185 15.7006 5.39985 15.7441C5.29784 15.7876 5.20563 15.8513 5.12871 15.9313L0.849279 20.2078C0.303467 20.7567 -0.00305176 21.5004 -0.00305176 22.2757C-0.00305176 23.0511 0.303467 23.7947 0.849279 24.3437L4.75766 28.2645C5.30485 28.812 6.04618 29.1195 6.81905 29.1195C7.59192 29.1195 8.33324 28.812 8.88043 28.2645L13.1351 23.9797ZM24.2913 2.67999C19.9872 7.06401 20.5396 11.0758 20.9436 12.5234L17.7279 15.7907L15.4439 18.082L14.6193 18.9091L14.2565 18.5452L14.1988 18.4873L10.076 14.3514C13.3918 8.98597 18.3929 4.87982 24.2913 2.67999ZM10.0101 16.56L12.4837 19.0415L10.9418 20.5883L10.4553 20.1003L8.46815 18.1068L10.0101 16.56ZM5.94502 27.0651L2.03664 23.1443C1.80753 22.912 1.67902 22.5984 1.67902 22.2716C1.67902 21.9448 1.80753 21.6312 2.03664 21.3989L5.7059 17.7263L6.68712 18.7023L10.3729 22.4081L11.3458 23.3924L7.68483 27.0733C7.45218 27.3021 7.13898 27.4295 6.81323 27.428C6.48748 27.4264 6.17549 27.296 5.94502 27.0651Z" fill="#1EC1AA"/>
<path d="M36.5195 29.0255C36.4415 28.9473 36.3489 28.8852 36.2471 28.8429C36.1452 28.8006 36.036 28.7788 35.9258 28.7788C35.8155 28.7788 35.7064 28.8006 35.6045 28.8429C35.5026 28.8852 35.4101 28.9473 35.3321 29.0255C35.2541 29.1037 35.1923 29.1966 35.1501 29.2987C35.1079 29.4009 35.0862 29.5105 35.0862 29.6211C35.0862 29.7317 35.1079 29.8412 35.1501 29.9434C35.1923 30.0456 35.2541 30.1384 35.3321 30.2166L45.8946 40.7548C46.1232 40.9693 46.3064 41.2277 46.4334 41.5147C46.5604 41.8017 46.6285 42.1114 46.6337 42.4253C46.6389 42.7393 46.5811 43.051 46.4638 43.3421C46.3464 43.6332 46.1719 43.8976 45.9506 44.1196C45.7292 44.3416 45.4657 44.5167 45.1755 44.6344C44.8854 44.7522 44.5746 44.8102 44.2616 44.8049C43.9487 44.7997 43.64 44.7314 43.3539 44.604C43.0679 44.4766 42.8102 44.2928 42.5964 44.0635L32.4462 33.8893C32.3682 33.8111 32.2757 33.749 32.1738 33.7067C32.0719 33.6644 31.9628 33.6426 31.8525 33.6426C31.7422 33.6426 31.6331 33.6644 31.5312 33.7067C31.4293 33.749 31.3368 33.8111 31.2588 33.8893C31.1809 33.9675 31.119 34.0603 31.0768 34.1625C31.0346 34.2647 31.0129 34.3742 31.0129 34.4848C31.0129 34.5954 31.0346 34.705 31.0768 34.8072C31.119 34.9094 31.1809 35.0022 31.2588 35.0804L41.4091 45.2546C42.1613 46.0093 43.1817 46.4333 44.2455 46.4333C45.3094 46.4333 46.3297 46.0093 47.082 45.2546C47.8343 44.5 48.2569 43.4764 48.2569 42.4092C48.2569 41.3419 47.8343 40.3184 47.082 39.5637L36.5195 29.0255Z" fill="#1EC1AA"/>
</g>
<defs>
<clipPath id="clip0_816_1250">
<rect width="54" height="47" fill="white"/>
</clipPath>
</defs>
</svg>
