<svg id="Layer_1" data-name="Layer 1" xmlns="http://www.w3.org/2000/svg" viewBox="0 0 81.5 83"><defs><style>.cls-1{fill:#1ec1aa;}</style></defs><path class="cls-1" d="M74.55,45.59,67.9,22.14H62a9.63,9.63,0,0,0-1.53-1.4V16.28c0-4.29-2-9.31-7.56-9.31H41.05c-5.57,0-7.55,5-7.55,9.31v5.86H25.87L19.24,45.59a7,7,0,0,0-.07,3.06,6.8,6.8,0,0,0,3.44,4.61,18.59,18.59,0,0,1-2.23.4c-1,0-1.22-.25-2.24-1.6-.32-.41-.7-.91-1.17-1.5a6.17,6.17,0,0,0-2.85-2,6,6,0,0,0-3.46-.13l-.44.11-.17.4A84.21,84.21,0,0,0,6.27,60s0,.11,0,.17h0a9.56,9.56,0,0,0-.1,4.48c-.65,1.33-.63,3.39.06,6.45l0,.19.12.15c.36.48,2,1.59,8.75,1.5,7.24-.1,27.19-.17,36.57,0h.8c8.61,0,19.41-2.5,20.49-5.81L73,66.9c0-.6-.07-3.56-1.22-4.94-.29-1-1.57-3.71-6.9-4.08-4.32-.3-5.9-1-6.27-1.18l0-.07-.24-.11-.75-.34a3.24,3.24,0,0,0,.06-.4A2.13,2.13,0,0,0,57,54.06H68A6.67,6.67,0,0,0,71,53.38a6.83,6.83,0,0,0,3.64-4.72A6.92,6.92,0,0,0,74.55,45.59ZM35.29,16.28c0-1.25.28-7.52,5.76-7.52H52.88c5.61,0,5.77,6.75,5.77,7.52v3.44a7.21,7.21,0,0,0-3.93-.56,5.76,5.76,0,0,0-4.13,3H35.29Zm23.36,5.1v.76H52.4A4.25,4.25,0,0,1,55,20.64,5.86,5.86,0,0,1,58.65,21.38ZM21.24,55.55a19.85,19.85,0,0,0,5.94-2c.52-.25,1-.52,1.54-.81l.51-.3,1.89.58c-2.83,1.5-7.3,3.6-11.11,4.19A6.13,6.13,0,0,0,21.24,55.55Zm15.7-4.69a2.19,2.19,0,0,0,1.12-.35,2.08,2.08,0,0,0,1,1.54h0a1.67,1.67,0,0,0,.89.25A2.14,2.14,0,0,0,41,52a2.06,2.06,0,0,0,1,1.56,1.87,1.87,0,0,0,.89.23A2.14,2.14,0,0,0,44,53.41a2.08,2.08,0,0,0,1,1.55,1.72,1.72,0,0,0,.89.24,2.14,2.14,0,0,0,1.11-.34,2.18,2.18,0,0,0,.62,1.31l-16.29-5c1-.64,1.83-1.23,2.48-1.68.49-.35.92-.65,1.09-.74a.71.71,0,0,1,.22-.06v0a2.07,2.07,0,0,0,1,1.89A1.85,1.85,0,0,0,36.94,50.86Zm-.58-2.12a2.64,2.64,0,0,1,.34-1.24,3.28,3.28,0,0,1,.81-1,1,1,0,0,1,.55-.24.53.53,0,0,1,.24.06.82.82,0,0,1,.32.77,2,2,0,0,1-.06.39c0,.11-.05.23-.08.35a3.12,3.12,0,0,1-.18.48v0h0a3.35,3.35,0,0,1-.27.45l-.05.06-.2.25a2.12,2.12,0,0,1-.26.26.77.77,0,0,1-.81.18.82.82,0,0,1-.34-.74h0Zm3.07.69A3.06,3.06,0,0,1,39.6,49a3.52,3.52,0,0,1,.28-.46q.13-.18.27-.33a2.49,2.49,0,0,1,.23-.23,1,1,0,0,1,.58-.24.46.46,0,0,1,.23.05.87.87,0,0,1,.36.77,1.49,1.49,0,0,1,0,.28,3.73,3.73,0,0,1-.08.44,3.63,3.63,0,0,1-.19.52,3.31,3.31,0,0,1-.44.68,2.18,2.18,0,0,1-.34.34.74.74,0,0,1-.8.17.92.92,0,0,1-.36-.77,2,2,0,0,1,0-.4h0A2.05,2.05,0,0,1,39.43,49.43Zm2.85,2.19a1.76,1.76,0,0,1,.07-.49,1.39,1.39,0,0,1,.06-.19,3.1,3.1,0,0,1,.21-.55h0a4.41,4.41,0,0,1,.31-.48,3.45,3.45,0,0,1,.3-.34,1.34,1.34,0,0,1,.2-.21h0a1.17,1.17,0,0,1,.42-.2l.12,0a.47.47,0,0,1,.25.07.78.78,0,0,1,.32.71V50a1.62,1.62,0,0,1,0,.2,2.32,2.32,0,0,1-.09.49,3.25,3.25,0,0,1-.2.54h0a3.32,3.32,0,0,1-.38.61h0a2.34,2.34,0,0,1-.41.42.77.77,0,0,1-.81.16A.85.85,0,0,1,42.28,51.62Zm2.95,1.46a2.58,2.58,0,0,1,.07-.6,3,3,0,0,1,.2-.6s0,0,0,0a3.76,3.76,0,0,1,.31-.52,3,3,0,0,1,.29-.32,1,1,0,0,0,.1-.11l.08-.08a1.06,1.06,0,0,1,.56-.23.45.45,0,0,1,.25.07.87.87,0,0,1,.36.77v.06s0,.05,0,.08a3.16,3.16,0,0,1-.07.5,3.9,3.9,0,0,1-.19.5l0,.09a3.58,3.58,0,0,1-.25.42,2.42,2.42,0,0,1-.53.6.74.74,0,0,1-.8.17A.92.92,0,0,1,45.23,53.08Zm-9.61-6.29a10.12,10.12,0,0,0-4.58,2A3.44,3.44,0,0,1,30.1,48a6.38,6.38,0,0,1,.89-2.5c.34-.09,1.6-.21,4.76,1.1Zm-24.1,3.28a4.26,4.26,0,0,1,2,.19,4.37,4.37,0,0,1,2,1.43c.47.57.83,1.05,1.14,1.45.9,1.19,1.44,1.9,2.59,2.18a4.49,4.49,0,0,1-1,1,4.33,4.33,0,0,1-2.43.8c-.73-.05-1.51-.17-2.26-.28a17.93,17.93,0,0,0-2.77-.29,5.9,5.9,0,0,0-1.74.23C9.79,54.52,10.61,52.27,11.52,50.07ZM9,58.84c.91-.7,2.31-.54,4.35-.22a23.31,23.31,0,0,0,2.49.29h0a9.24,9.24,0,0,0,2.15.26c5.1,0,11.74-3.31,15-5.11h1.59L53.7,59.91,55.38,64c-2.52.23-5,.38-7.55.43-6,.14-15-.16-22.95-.43-10.9-.36-15.23-.43-17.06-.24A6.13,6.13,0,0,1,9,58.84Zm40.93-4.35a2.62,2.62,0,0,1-.54.63.78.78,0,0,1-.8.17.82.82,0,0,1-.35-.76,2,2,0,0,1,.13-.7c0-.1.08-.2.12-.3a1.22,1.22,0,0,1,.1-.24,3.43,3.43,0,0,1,.35-.55,2.77,2.77,0,0,1,.37-.39l0-.06,0,0a.88.88,0,0,1,.54-.23.46.46,0,0,1,.25.06.73.73,0,0,1,.18.17.9.9,0,0,1,.11.27.43.43,0,0,0,0,.05.9.9,0,0,1,0,.28v0a2.4,2.4,0,0,1-.09.57,3.36,3.36,0,0,1-.23.62h0A3,3,0,0,1,49.89,54.49Zm.19,2.45L49,56.61a2.17,2.17,0,0,0,.88-.31A2.63,2.63,0,0,0,50.08,56.94Zm2.23-.37a.76.76,0,0,1-.8.18.92.92,0,0,1-.36-.77,2.5,2.5,0,0,1,.13-.78s0-.08,0-.11.07-.23.12-.35a3,3,0,0,1,.78-1,1.06,1.06,0,0,1,.58-.24.46.46,0,0,1,.23.06.53.53,0,0,1,.21.21l0,.06a.81.81,0,0,1,.08.25,1.22,1.22,0,0,1,0,.17v.07a2.81,2.81,0,0,1-.3,1.25l-.16.26A2.81,2.81,0,0,1,52.31,56.57Zm.56,1.22,0,0,0,0S52.87,57.77,52.87,57.79Zm1.25-.37a2.58,2.58,0,0,1,.35-1.24,3.26,3.26,0,0,1,.8-1h0a.88.88,0,0,1,.49-.19.46.46,0,0,1,.25.06.76.76,0,0,1,.32.64v.13A3,3,0,0,1,56.06,57h0c-.06.11-.12.2-.18.29a2.71,2.71,0,0,1-.61.74.78.78,0,0,1-.8.17A.86.86,0,0,1,54.12,57.42Zm16.73,5.49c.66.89.82,3,.83,3.91-.9,2.26-10.61,5-20,4.81-4.13-.08-10.31-.11-16.55-.11-8,0-16,0-20.06.11-5.66.09-7.29-.73-7.6-.94-.6-2.7-.63-4.56-.08-5.53,1.12-.36,9.4-.08,17.41.18s17,.56,23,.43A114.23,114.23,0,0,0,70.85,62.91Zm-6-3.24c3.11.21,4.41,1.31,5,2.09q-3.48.77-7,1.32l-2.58-4A33,33,0,0,0,64.8,59.67ZM57,57.88l.34.16,3.41,5.32c-1.18.16-2.36.32-3.55.44l-1.81-4.4a2.84,2.84,0,0,0,.63-.35A3.94,3.94,0,0,0,57,57.88Zm15.82-9.59a5.18,5.18,0,0,1-1,2.06,5,5,0,0,1-1.73,1.42,4.89,4.89,0,0,1-2.16.5H53.3a1.78,1.78,0,0,0-1,0h-.66a1.82,1.82,0,0,0-2.94-1.13,2,2,0,0,0-1-1.61,1.91,1.91,0,0,0-2,.09,2,2,0,0,0-.94-1.55,1.94,1.94,0,0,0-2,.16,2,2,0,0,0-1-1.62,1.82,1.82,0,0,0-1.74,0l-.22-.12a1.94,1.94,0,0,0-.93-1.38,1.87,1.87,0,0,0-1.79.05c-3-1.33-5.23-1.83-6.59-1.46-1.64.44-2.2,3.93-2.21,4a2.54,2.54,0,0,0,1.25,2.19c-.34.29-.61.54-.8.72l-.13.08c-.34.22-.69.42-1,.62l-.26.14c-.56.3-1.13.56-1.71.81a4.84,4.84,0,0,1-2-.51,4.91,4.91,0,0,1-1.72-1.42,5,5,0,0,1-.94-2.05A5.12,5.12,0,0,1,21,46l6.29-22.09H33.5v5.88h1.79V23.93H50a6.8,6.8,0,0,0-.14,1.87,9,9,0,0,0,6.58,8,6.48,6.48,0,0,0,1,.14,1.12,1.12,0,0,0,.37.35c.48.25,1,0,1.08-.67a1.55,1.55,0,0,0-.64-1.58.69.69,0,0,0-1,.37c-.15,0-.31,0-.47-.07A7.58,7.58,0,0,1,51.3,25.7a5.42,5.42,0,0,1,.17-1.77h7.18v5.88h1.79V23.93h1c1.54,2.36,1.63,5.3.22,7a2.62,2.62,0,0,1-.3.28,1.07,1.07,0,0,0-.29-.06c-.54,0-.83.49-.65,1.1a1.54,1.54,0,0,0,1.31,1.09c.51,0,.78-.44.66-1a6,6,0,0,0,.42-.46c1.69-2,1.79-5.2.35-8H66.5L72.81,46A5.22,5.22,0,0,1,72.86,48.29Z"/></svg>