<svg width="68" height="70" viewBox="0 0 68 70" fill="none" xmlns="http://www.w3.org/2000/svg">
<path d="M34.6751 69.2675H33.4908C33.3275 69.2699 33.1653 69.2398 33.0136 69.1792C32.8619 69.1185 32.7237 69.0284 32.6071 68.9141C21.1715 57.4785 8.5517 57.337 8.42798 57.337C8.18014 57.3395 7.93743 57.2664 7.73219 57.1275C7.52694 56.9885 7.36891 56.7903 7.27913 56.5593L2.50691 44.6288C2.4408 44.4722 2.40675 44.304 2.40675 44.134C2.40675 43.964 2.4408 43.7957 2.50691 43.6391C2.58553 43.4831 2.69501 43.3447 2.82869 43.2323C2.96236 43.1199 3.11746 43.0358 3.28461 42.9851C5.5227 42.2413 7.45935 40.792 8.80412 38.8545C10.1489 36.917 10.8293 34.5957 10.7434 32.2389C10.7434 23.7903 1.05759 21.5456 0.969214 21.5279C0.803202 21.4891 0.646848 21.4169 0.509679 21.3156C0.372509 21.2144 0.257406 21.0862 0.171399 20.939C0.085392 20.7918 0.0302698 20.6287 0.0094198 20.4595C-0.0114302 20.2902 0.00241714 20.1185 0.0501169 19.9549L3.58508 8.02437C3.66389 7.74045 3.84427 7.4954 4.09191 7.33573C4.33956 7.17606 4.63724 7.11292 4.92838 7.15832C13.4476 8.28951 17.4775 6.6104 19.351 5.002C19.9313 4.54202 20.4133 3.97021 20.7685 3.3205C21.1238 2.67078 21.3449 1.95634 21.419 1.21956C21.428 0.895942 21.5618 0.588396 21.7924 0.361123C22.023 0.13385 22.3325 0.00443225 22.6562 0H45.3153C45.6434 0 45.9581 0.130391 46.1901 0.362417C46.4221 0.594444 46.5525 0.909122 46.5525 1.23726C46.7162 2.71646 47.4599 4.07035 48.6205 5.002C50.5117 6.6104 54.5415 8.28951 63.0608 7.15832C63.3514 7.11681 63.6473 7.18154 63.894 7.34064C64.1408 7.49973 64.3219 7.7425 64.404 8.02437L67.939 19.9549C67.9924 20.1173 68.011 20.2891 67.9937 20.4592C67.9764 20.6293 67.9236 20.7938 67.8386 20.9421C67.7536 21.0904 67.6384 21.2192 67.5004 21.3202C67.3624 21.4211 67.2047 21.4919 67.0376 21.5279C66.6311 21.6163 57.2634 23.8257 57.2634 32.2389C57.1917 34.5927 57.8778 36.9074 59.2206 38.842C60.5634 40.7767 62.4919 42.229 64.7222 42.9851C64.8866 43.037 65.0387 43.1217 65.1693 43.2341C65.3 43.3465 65.4064 43.4843 65.4822 43.6391C65.556 43.7936 65.5943 43.9627 65.5943 44.134C65.5943 44.3052 65.556 44.4743 65.4822 44.6288L60.71 56.5593C60.6234 56.7889 60.4686 56.9866 60.2664 57.1256C60.0641 57.2646 59.8242 57.3384 59.5788 57.337C50.3693 58.1089 41.7615 62.2273 35.382 68.9141C35.193 69.1082 34.9438 69.2328 34.6751 69.2675ZM33.9857 66.7931H34.1625C40.7685 60.06 49.5229 55.8517 58.9072 54.8979L62.9194 44.8586C60.4887 43.7831 58.4329 42.0089 57.0134 39.7617C55.5939 37.5145 54.875 34.8958 54.948 32.2389C54.948 23.914 62.3538 20.5381 65.3762 19.4953L62.4598 9.73883C55.3899 10.5519 50.1935 9.5444 47.0651 6.80481C45.7434 5.67381 44.8048 4.16098 44.3785 2.47451H23.805C23.3868 4.16013 22.454 5.67362 21.1362 6.80481C17.99 9.5444 12.8113 10.5342 5.7414 9.73883L2.80741 19.4953C5.84747 20.5381 13.2532 23.914 13.2532 32.2389C13.3224 34.8973 12.5999 37.5164 11.1774 39.7634C9.75493 42.0104 7.69673 43.7839 5.2642 44.8586L9.27636 54.8979C18.6489 55.8568 27.3905 60.065 33.9857 66.7931Z" fill="#1EC1AA"/>
<path d="M20.4588 29.4171C20.5041 26.9202 21.2861 24.4923 22.7066 22.4384C24.1271 20.3844 26.1228 18.796 28.4431 17.8725C30.7634 16.949 33.3049 16.7316 35.7483 17.2477C38.1917 17.7637 40.4282 18.9902 42.1769 20.7731C43.9256 22.556 45.1086 24.8158 45.5772 27.2687C46.0459 29.7217 45.7793 32.2584 44.8111 34.5604C43.8428 36.8624 42.216 38.827 40.1349 40.2075C38.0538 41.588 35.6113 42.3228 33.1139 42.3198C31.4199 42.3601 29.7357 42.052 28.1657 41.4146C26.5956 40.7772 25.1733 39.8241 23.9868 38.6144C22.8002 37.4046 21.8749 35.9641 21.268 34.382C20.6611 32.7999 20.3857 31.11 20.4588 29.4171ZM42.4109 29.4171C42.4109 23.2486 38.4341 19.4309 33.1139 19.4309C27.7938 19.4309 23.8347 23.2486 23.8347 29.4171C23.8347 35.5856 27.8115 39.4565 33.1139 39.4565C38.4164 39.4565 42.4109 35.621 42.4109 29.4171ZM38.7345 39.4565L46.1933 46.8091H41.916L35.5884 40.5523L38.7345 39.4565Z" fill="#1EC1AA"/>
</svg>
