<svg width="59" height="47" viewBox="0 0 59 47" fill="none" xmlns="http://www.w3.org/2000/svg">
<g clip-path="url(#clip0_816_1231)">
<path d="M8.73161 21.0273H13.2823V22.2284H10.2104V24.1183H12.5605V25.3017H10.2104V28.4191H8.73161V21.0273Z" fill="#1EC1AA"/>
<path d="M17.0935 21.0273C18.8539 21.0273 19.7341 22.0518 19.7341 23.2881C19.7341 24.5245 18.9772 25.5401 17.0935 25.5401H15.8084V28.4191H14.3297V21.0273H17.0935ZM17.0407 22.2549H15.8084V24.4274H17.0407C17.8593 24.4274 18.2378 23.9858 18.2378 23.3323C18.2378 22.6788 17.8593 22.2549 17.0407 22.2549ZM17.9209 25.1339L19.8486 28.4191H18.1234L16.2837 25.1339H17.9209Z" fill="#1EC1AA"/>
<path d="M25.3763 22.2196H22.586V24.083H25.0594V25.2576H22.586V27.2181H25.3763V28.4192H21.0985V21.0186H25.3763V22.2196Z" fill="#1EC1AA"/>
<path d="M31.0007 22.2196H28.2017V24.083H30.6839V25.2576H28.2017V27.2181H31.0007V28.4192H26.7142V21.0186H31.0007V22.2196Z" fill="#1EC1AA"/>
<path d="M9.97269 0H9.33895C9.15686 0 8.98223 0.0725737 8.85348 0.201756C8.72472 0.330938 8.65239 0.506147 8.65239 0.688839C8.65239 0.87153 8.72472 1.04674 8.85348 1.17592C8.98223 1.3051 9.15686 1.37768 9.33895 1.37768H9.97269C10.1548 1.37768 10.3294 1.3051 10.4582 1.17592C10.5869 1.04674 10.6593 0.87153 10.6593 0.688839C10.6593 0.506147 10.5869 0.330938 10.4582 0.201756C10.3294 0.0725737 10.1548 0 9.97269 0Z" fill="#1EC1AA"/>
<path d="M6.091 0.689065C6.091 0.871756 6.16334 1.04697 6.29209 1.17615C6.42085 1.30533 6.59547 1.3779 6.77756 1.3779H6.936C7.11808 1.3779 7.29271 1.30533 7.42147 1.17615C7.55022 1.04697 7.62256 0.871756 7.62256 0.689065C7.62256 0.506374 7.55022 0.331165 7.42147 0.201983C7.29271 0.0728002 7.11808 0.000226497 6.936 0.000226497H6.79517C6.70354 -0.00213159 6.61236 0.0139433 6.52702 0.0475034C6.44168 0.0810635 6.3639 0.131429 6.29828 0.19563C6.23265 0.259831 6.18049 0.336567 6.1449 0.421313C6.1093 0.506059 6.09097 0.5971 6.091 0.689065Z" fill="#1EC1AA"/>
<path d="M12.5693 0.688895C12.5693 0.780103 12.5873 0.870404 12.6224 0.954558C12.6574 1.03871 12.7088 1.11505 12.7735 1.17913C12.8382 1.24321 12.9149 1.29376 12.9992 1.32786C13.0835 1.36195 13.1738 1.3789 13.2647 1.37773H21.0281C21.2101 1.37773 21.3848 1.30516 21.5135 1.17598C21.6423 1.0468 21.7146 0.871587 21.7146 0.688895C21.7146 0.506204 21.6423 0.330995 21.5135 0.201813C21.3848 0.0726303 21.2101 5.66188e-05 21.0281 5.66188e-05H13.2647C13.1738 -0.00111271 13.0835 0.0158408 12.9992 0.0499343C12.9149 0.0840278 12.8382 0.134582 12.7735 0.198664C12.7088 0.262745 12.6574 0.339077 12.6224 0.423232C12.5873 0.507386 12.5693 0.597688 12.5693 0.688895Z" fill="#1EC1AA"/>
<path d="M8.6964 3.48824C8.69639 3.57945 8.71444 3.66975 8.74949 3.75391C8.78454 3.83806 8.8359 3.91439 8.90059 3.97847C8.96528 4.04256 9.04201 4.09311 9.12632 4.1272C9.21064 4.1613 9.30086 4.17825 9.39176 4.17708H21.028C21.2101 4.17708 21.3848 4.10451 21.5135 3.97533C21.6423 3.84614 21.7146 3.67093 21.7146 3.48824C21.7146 3.30555 21.6423 3.13034 21.5135 3.00116C21.3848 2.87198 21.2101 2.7994 21.028 2.7994H9.43577C9.34127 2.79209 9.24628 2.80449 9.15679 2.83581C9.0673 2.86714 8.98524 2.91672 8.91578 2.98143C8.84633 3.04613 8.79098 3.12457 8.75322 3.2118C8.71547 3.29902 8.69612 3.39315 8.6964 3.48824Z" fill="#1EC1AA"/>
<path d="M3.27435 40.677H6.04699C6.19762 42.3974 6.98521 43.9986 8.25446 45.1651C9.52372 46.3317 11.1825 46.9787 12.9038 46.9787C14.625 46.9787 16.2838 46.3317 17.5531 45.1651C18.8223 43.9986 19.6099 42.3974 19.7606 40.677H35.8419C36.2574 40.677 36.6559 40.5114 36.9497 40.2166C37.2436 39.9218 37.4086 39.5219 37.4086 39.105V14.1214H38.4825C38.5734 14.1225 38.6636 14.1056 38.7479 14.0715C38.8322 14.0374 38.909 13.9869 38.9736 13.9228C39.0383 13.8587 39.0897 13.7824 39.1247 13.6982C39.1598 13.614 39.1778 13.5237 39.1778 13.4325V7.30364C39.1778 7.21243 39.1598 7.12213 39.1247 7.03798C39.0897 6.95382 39.0383 6.87749 38.9736 6.81341C38.909 6.74933 38.8322 6.69877 38.7479 6.66468C38.6636 6.63059 38.5734 6.61363 38.4825 6.6148H0.686559C0.504472 6.6148 0.329844 6.68738 0.201089 6.81656C0.0723343 6.94574 0 7.12095 0 7.30364V13.4325C0 13.6152 0.0723343 13.7904 0.201089 13.9196C0.329844 14.0488 0.504472 14.1214 0.686559 14.1214H1.734V39.105C1.73394 39.5174 1.89538 39.9133 2.18352 40.2073C2.47166 40.5014 2.86342 40.67 3.27435 40.677ZM12.9566 45.6137C11.8674 45.6189 10.8012 45.2997 9.89308 44.6964C8.98494 44.0931 8.27572 43.2329 7.85529 42.2248C7.43486 41.2167 7.32214 40.1061 7.53142 39.0337C7.74069 37.9612 8.26254 36.9753 9.03085 36.2007C9.79915 35.4261 10.7793 34.8978 11.8472 34.6827C12.915 34.4675 14.0225 34.5753 15.0293 34.9923C16.036 35.4092 16.8968 36.1167 17.5025 37.0249C18.1081 37.9332 18.4314 39.0013 18.4314 40.0941C18.4315 41.5534 17.8555 42.9533 16.8295 43.9877C15.8035 45.0221 14.411 45.6067 12.9566 45.6137ZM36.0707 39.105C36.0707 39.1542 36.0512 39.2014 36.0166 39.2362C35.9819 39.271 35.9349 39.2905 35.8859 39.2905H19.7606C19.5698 37.607 18.7681 36.0529 17.5083 34.9245C16.2485 33.7961 14.6189 33.1725 12.9302 33.1725C11.2415 33.1725 9.61182 33.7961 8.35206 34.9245C7.09231 36.0529 6.29059 37.607 6.09981 39.2905H3.27435C3.22449 39.2905 3.17652 39.2713 3.14045 39.2367C3.10438 39.2022 3.08298 39.155 3.08071 39.105V14.1832H36.0443L36.0707 39.105ZM1.38192 8.00131H37.7783V12.7172H1.38192V8.00131Z" fill="#1EC1AA"/>
<path d="M56.0865 26.8473C56.0865 26.8473 55.2063 23.4737 54.3261 19.9589C54.1771 19.3244 53.8186 18.7592 53.3088 18.3552C52.799 17.9511 52.1679 17.732 51.5183 17.7334H39.4419C39.2598 17.7334 39.0852 17.806 38.9564 17.9352C38.8277 18.0643 38.7553 18.2396 38.7553 18.4222V40.0059C38.7553 40.1886 38.8277 40.3638 38.9564 40.4929C39.0852 40.6221 39.2598 40.6947 39.4419 40.6947H41.8184C41.9566 42.4229 42.7384 44.0356 44.0083 45.2116C45.2781 46.3875 46.9428 47.0405 48.6708 47.0405C50.3989 47.0405 52.0636 46.3875 53.3334 45.2116C54.6032 44.0356 55.385 42.4229 55.5232 40.6947H57.2836C57.7505 40.6947 58.1983 40.5086 58.5284 40.1774C58.8585 39.8461 59.044 39.3969 59.044 38.9284V32.252C59.044 31.7751 58.6743 31.1039 57.3804 29.0463C56.9057 28.3399 56.4736 27.6056 56.0865 26.8473ZM48.6664 45.6137C47.5784 45.6137 46.5148 45.29 45.6101 44.6835C44.7054 44.077 44.0003 43.215 43.5839 42.2064C43.1675 41.1978 43.0586 40.088 43.2709 39.0174C43.4831 37.9467 44.0071 36.9632 44.7764 36.1913C45.5458 35.4193 46.526 34.8937 47.5932 34.6807C48.6603 34.4677 49.7664 34.577 50.7717 34.9948C51.7769 35.4125 52.6361 36.12 53.2406 37.0277C53.845 37.9354 54.1677 39.0025 54.1677 40.0942C54.1654 41.5573 53.585 42.9599 52.5538 43.9945C51.5227 45.0291 50.1247 45.6114 48.6664 45.6137ZM57.6181 38.9284C57.6181 38.9783 57.6083 39.0277 57.5893 39.0738C57.5703 39.1198 57.5424 39.1617 57.5072 39.197C57.4721 39.2322 57.4304 39.2602 57.3844 39.2793C57.3385 39.2984 57.2893 39.3082 57.2396 39.3082H55.4792C55.2798 37.6301 54.474 36.0836 53.2144 34.9615C51.9548 33.8395 50.3288 33.2198 48.6444 33.2198C46.96 33.2198 45.3341 33.8395 44.0745 34.9615C42.8149 36.0836 42.0091 37.6301 41.8096 39.3082H40.1285V19.1199H51.5711C51.9102 19.1184 52.2398 19.2319 52.5066 19.4418C52.7734 19.6518 52.9617 19.946 53.041 20.2768C53.8508 23.6857 54.6782 26.8826 54.7398 27.121C55.1214 28.0605 55.615 28.9501 56.2098 29.7704C56.7508 30.5734 57.2332 31.4146 57.6533 32.2873L57.6181 38.9284Z" fill="#1EC1AA"/>
<path d="M52.0816 22.9613C52.0085 22.5482 51.7912 22.1747 51.4686 21.9077C51.1461 21.6407 50.7393 21.4977 50.3212 21.5041H44.0542C43.5873 21.5041 43.1395 21.6902 42.8094 22.0214C42.4792 22.3527 42.2937 22.8019 42.2937 23.2704V26.9177C42.2937 27.3861 42.4792 27.8354 42.8094 28.1666C43.1395 28.4978 43.5873 28.6839 44.0542 28.6839H50.9373C51.1886 28.6814 51.4365 28.6249 51.6642 28.5183C51.892 28.4117 52.0943 28.2574 52.2576 28.0657C52.4196 27.8735 52.5387 27.6488 52.607 27.4066C52.6753 27.1645 52.6912 26.9104 52.6537 26.6616C52.4953 25.5312 52.2576 24.0122 52.0816 22.9613ZM51.2014 27.1208C51.1677 27.1631 51.1248 27.197 51.0759 27.2199C51.0271 27.2429 50.9737 27.2543 50.9197 27.2533H44.0453C43.9473 27.2533 43.8533 27.2142 43.7839 27.1446C43.7146 27.0751 43.6757 26.9807 43.6757 26.8824V23.2527C43.6757 23.2044 43.6853 23.1566 43.704 23.1121C43.7226 23.0676 43.75 23.0272 43.7845 22.9935C43.8189 22.9598 43.8597 22.9333 43.9045 22.9156C43.9493 22.8979 43.9972 22.8894 44.0453 22.8906H50.3476C50.4335 22.8894 50.5171 22.9189 50.5833 22.974C50.6494 23.029 50.6938 23.1059 50.7085 23.1909C50.8845 24.2418 51.1222 25.7431 51.2894 26.8294C51.2979 26.8808 51.2952 26.9335 51.2815 26.9838C51.2679 27.0341 51.2435 27.0808 51.2102 27.1208H51.2014Z" fill="#1EC1AA"/>
</g>
<defs>
<clipPath id="clip0_816_1231">
<rect width="59" height="47" fill="white"/>
</clipPath>
</defs>
</svg>
