<svg width="57" height="54" viewBox="0 0 57 54" fill="none" xmlns="http://www.w3.org/2000/svg">
<path d="M56.8183 31.6078L51.3304 12.4156H45.174V7.61958C45.174 4.10852 43.5235 0 38.9351 0H29.1724C24.5758 0 22.9418 4.09215 22.9418 7.61958V12.4156H16.6451L11.1737 31.6078C10.9684 32.4281 10.9487 33.2834 11.1159 34.1122C11.2884 34.9021 11.6315 35.6455 12.1216 36.2912C12.6116 36.9369 13.2371 37.4695 13.9548 37.8524C13.3477 37.9939 12.7334 38.1031 12.1145 38.1798C11.2892 38.1798 11.1077 37.9751 10.2659 36.8703C10.0019 36.5347 9.68826 36.1255 9.3004 35.6426C8.6934 34.882 7.87612 34.3132 6.94843 34.0058C6.03292 33.7046 5.04801 33.679 4.11783 33.9321L3.75472 34.0221L3.61442 34.3495C2.35264 37.2896 1.30195 40.3144 0.470223 43.4013V43.5814C0.150196 44.7798 0.12191 46.0365 0.387698 47.248C-0.148714 48.3365 -0.132209 50.0224 0.437213 52.5268V52.6823L0.536243 52.8051C0.833333 53.1979 2.18674 54.1064 7.75718 54.0327C13.732 53.9509 30.1957 53.8936 37.9366 54.0327H38.5968C45.7022 54.0327 54.6149 51.9867 55.5061 49.2777V49.0894C55.5061 48.5984 55.4484 46.1758 54.4993 45.0464C54.26 44.2279 53.2037 42.01 48.8051 41.7072C45.24 41.4617 43.9361 40.8888 43.6308 40.7414V40.6841L43.4327 40.5941L42.8468 40.3077C42.8707 40.1998 42.8873 40.0904 42.8963 39.9803C42.9167 39.7188 42.8768 39.4561 42.7795 39.2122C42.6823 38.9683 42.5303 38.7496 42.3351 38.5726H51.4129C52.2703 38.5782 53.1175 38.3878 53.8886 38.0161C55.0439 37.452 55.9668 36.5089 56.5008 35.3468C57.0347 34.1847 57.1469 32.8752 56.8183 31.6405V31.6078ZM24.419 7.61958C24.419 6.59654 24.65 1.46499 29.1724 1.46499H38.9351C43.5648 1.46499 43.6968 6.98939 43.6968 7.61958V12.4156H24.419V7.61958ZM12.8655 39.7593C14.5756 39.4709 16.2297 38.9186 17.7675 38.1225C18.1966 37.9179 18.5927 37.6969 19.0383 37.4595L19.4592 37.214L21.0189 37.6887C18.6835 38.9163 14.9946 40.635 11.8504 41.1179C12.2457 40.7192 12.5745 40.2606 12.8242 39.7593H12.8655ZM41.6007 42.6238C41.9376 42.3627 42.2183 42.037 42.4259 41.6663L42.7065 41.7972L45.5206 46.1513C44.5468 46.2822 43.573 46.4132 42.591 46.5114L41.0973 42.9103C41.26 42.8294 41.4147 42.7335 41.5594 42.6238H41.6007ZM1.42751 47.6244C2.35179 47.3298 9.18486 47.559 15.7951 47.7718C22.4054 47.9845 29.8244 48.2301 34.7759 48.1237C41.1661 47.9793 47.5253 47.1951 53.7566 45.783C54.3013 46.5114 54.4333 48.2383 54.4416 48.983C53.6988 50.8327 45.6857 53.0752 37.9366 52.9197C34.5283 52.8542 29.4282 52.8296 24.2787 52.8296C17.6767 52.8296 11.0747 52.8296 7.72417 52.9197C3.05325 52.9933 1.7081 52.3222 1.45227 52.1503C0.998383 49.9488 0.973626 48.4183 1.42751 47.6244ZM41.8647 39.9312C41.8368 40.2871 41.7327 40.6331 41.5594 40.946C41.5099 41.0361 41.4604 41.1097 41.4109 41.1834C41.278 41.4115 41.1079 41.6161 40.9075 41.789C40.8202 41.869 40.7128 41.9241 40.5966 41.9486C40.4804 41.9731 40.3597 41.966 40.2473 41.9282C40.1484 41.8567 40.0699 41.7611 40.0193 41.6507C39.9687 41.5403 39.9477 41.4188 39.9584 41.298C39.9693 40.9491 40.0687 40.6085 40.2473 40.3077C40.4054 39.9909 40.6306 39.7117 40.9075 39.4892C41.0211 39.3943 41.1634 39.3396 41.3118 39.3337C41.3843 39.3251 41.4575 39.3425 41.5181 39.3828C41.6038 39.4403 41.6731 39.5187 41.7193 39.6105C41.7656 39.7022 41.7872 39.8042 41.7822 39.9066L41.8647 39.9312ZM21.1015 36.2155C21.9267 35.6917 22.6117 35.2089 23.1481 34.8406C23.5525 34.5541 23.9073 34.3086 24.0476 34.2349C24.1026 34.2026 24.1653 34.1857 24.2292 34.1858C24.2126 34.4936 24.2807 34.8 24.426 35.0724C24.5714 35.3449 24.7885 35.5731 25.0544 35.7326C25.2711 35.8456 25.5112 35.9072 25.7559 35.9127C26.0835 35.8966 26.4016 35.798 26.6802 35.6263C26.7107 35.8851 26.801 36.1335 26.9442 36.3522C27.0873 36.5708 27.2794 36.7537 27.5054 36.8866C27.727 37.0196 27.9809 37.0904 28.2399 37.0912C28.5507 37.0997 28.8583 37.0263 29.1311 36.8784C29.1611 37.1397 29.251 37.3906 29.3941 37.612C29.5372 37.8333 29.7295 38.0192 29.9564 38.1552C30.1832 38.2736 30.4346 38.3381 30.6909 38.3434C31.0182 38.32 31.3338 38.2129 31.6069 38.0324C31.6368 38.2926 31.7268 38.5424 31.87 38.7624C32.0131 38.9824 32.2055 39.1667 32.4321 39.301C32.6549 39.4304 32.9085 39.4982 33.1666 39.4974C33.4916 39.4881 33.8081 39.3919 34.0826 39.2192C34.1226 39.6294 34.3032 40.0136 34.5943 40.3077L21.1015 36.2155ZM25.302 34.2186C25.3035 33.8549 25.3971 33.4975 25.5743 33.1791C25.7382 32.8638 25.9657 32.5852 26.2428 32.3607C26.3702 32.2507 26.5287 32.1821 26.6967 32.1643C26.7657 32.1649 26.8335 32.1818 26.8947 32.2134C26.9922 32.2848 27.0683 32.3812 27.1148 32.4922C27.1613 32.6032 27.1765 32.7247 27.1588 32.8436C27.1504 32.9511 27.1338 33.0578 27.1093 33.1628C27.0983 33.2604 27.0761 33.3565 27.0433 33.4492C27.001 33.5828 26.9514 33.7139 26.8947 33.8421C26.8287 33.9676 26.7544 34.0903 26.6719 34.2104L26.6306 34.2595L26.4656 34.4641C26.3983 34.539 26.3266 34.6101 26.251 34.6769C26.1649 34.7613 26.0564 34.8199 25.9382 34.846C25.8199 34.8721 25.6967 34.8645 25.5826 34.8242C25.4854 34.7574 25.4081 34.666 25.3588 34.5594C25.3094 34.4529 25.2898 34.3352 25.302 34.2186ZM28.4297 33.7357C28.4866 33.667 28.5502 33.6039 28.6195 33.5474C28.7516 33.4295 28.9206 33.3602 29.0981 33.351C29.1642 33.3438 29.2309 33.3582 29.2879 33.3919C29.3877 33.463 29.4674 33.5583 29.5194 33.6686C29.5714 33.7789 29.594 33.9007 29.585 34.0221C29.5933 34.0983 29.5933 34.1751 29.585 34.2513C29.585 34.3659 29.585 34.4886 29.519 34.6114C29.4777 34.757 29.4253 34.8993 29.3622 35.037C29.2617 35.2349 29.14 35.4215 28.9991 35.5935C28.914 35.6943 28.8201 35.7874 28.7185 35.8718C28.6333 35.955 28.5259 36.0123 28.4089 36.0369C28.2919 36.0616 28.1703 36.0526 28.0583 36.0109C27.9619 35.9368 27.8846 35.841 27.8329 35.7314C27.7813 35.6219 27.7567 35.5016 27.7612 35.3807C27.753 35.2718 27.753 35.1623 27.7612 35.0534C27.7717 34.959 27.791 34.8659 27.819 34.7751C27.8577 34.6523 27.9103 34.5342 27.9758 34.4232C28.0399 34.2903 28.1173 34.1642 28.2069 34.0467C28.2609 33.9228 28.3363 33.8093 28.4297 33.7111V33.7357ZM36.4759 40.3977C36.5012 40.5782 36.5511 40.7544 36.6244 40.9215L35.7331 40.6514C35.9974 40.6104 36.2503 40.5157 36.4759 40.3731V40.3977ZM36.9133 37.3204C36.9215 37.3966 36.9215 37.4734 36.9133 37.5496C36.9046 37.7072 36.8798 37.8635 36.839 38.0161C36.7917 38.1907 36.7282 38.3606 36.6492 38.5235C36.5883 38.6373 36.5193 38.7467 36.4429 38.8509C36.3191 39.0424 36.1691 39.2159 35.9972 39.3665C35.91 39.4464 35.8026 39.5015 35.6864 39.526C35.5702 39.5505 35.4495 39.5435 35.337 39.5056C35.237 39.4372 35.1574 39.3433 35.1066 39.2339C35.0558 39.1244 35.0356 39.0034 35.0482 38.8836C35.0462 38.6875 35.0826 38.493 35.1555 38.3107C35.1739 38.2238 35.2074 38.1407 35.2545 38.0652C35.2719 37.996 35.2998 37.9298 35.337 37.8687C35.4187 37.7099 35.5154 37.5592 35.6259 37.4186C35.7127 37.2991 35.8154 37.1917 35.9312 37.0994V37.034C36.0525 36.9207 36.2105 36.854 36.3768 36.8457C36.4493 36.8371 36.5225 36.8545 36.5831 36.8948C36.6422 36.9301 36.6929 36.9775 36.7317 37.034C36.8141 37.1042 36.8766 37.1944 36.9133 37.2958V37.3204ZM34.4375 36.4529V36.5183C34.4299 36.6561 34.4105 36.793 34.3797 36.9276C34.3347 37.0666 34.2824 37.2032 34.2229 37.3368V37.4104C34.1603 37.5285 34.0914 37.6433 34.0166 37.7542C33.8983 37.94 33.7506 38.1058 33.5792 38.2452C33.494 38.3284 33.3866 38.3857 33.2696 38.4104C33.1527 38.435 33.031 38.426 32.919 38.3844C32.8227 38.312 32.7454 38.2177 32.6937 38.1094C32.642 38.0011 32.6174 37.8821 32.622 37.7624C32.6198 37.5969 32.6392 37.4318 32.6797 37.2713C32.7135 37.1013 32.7689 36.9363 32.8448 36.7802C32.9154 36.6302 33.0011 36.4876 33.1006 36.3547C33.1716 36.2598 33.2517 36.1721 33.3399 36.0928L33.4224 36.0027L33.4885 35.9373C33.6192 35.8287 33.7806 35.7629 33.9506 35.749C34.024 35.7435 34.0971 35.7638 34.1569 35.8063C34.2567 35.8774 34.3363 35.9726 34.3883 36.083C34.4404 36.1933 34.463 36.315 34.454 36.4365L34.4375 36.4529ZM32.0195 35.1679V35.3971C32.0108 35.5332 31.9859 35.6678 31.9452 35.7981C31.9012 35.9492 31.846 36.097 31.7802 36.2401C31.6915 36.4158 31.5865 36.5829 31.4666 36.7393C31.3645 36.8638 31.2513 36.9788 31.1283 37.0831C31.0394 37.1631 30.9302 37.2176 30.8124 37.2407C30.6946 37.2637 30.5727 37.2545 30.4598 37.214C30.3625 37.1416 30.2856 37.0456 30.2365 36.9353C30.1873 36.8249 30.1676 36.7039 30.1792 36.5838C30.177 36.4479 30.1965 36.3126 30.237 36.1828C30.2446 36.1286 30.2614 36.076 30.2865 36.0273C30.3269 35.8712 30.385 35.7202 30.4598 35.5771C30.5354 35.4402 30.6209 35.3089 30.7156 35.1843C30.7892 35.0841 30.8721 34.9909 30.9632 34.906C31.0095 34.8411 31.0651 34.7832 31.1283 34.7342C31.2292 34.6533 31.348 34.5973 31.4749 34.5705H31.5739C31.6473 34.565 31.7203 34.5852 31.7802 34.6278C31.8658 34.6877 31.9354 34.7676 31.9829 34.8603C32.0303 34.953 32.0543 35.0558 32.0525 35.1597L32.0195 35.1679ZM24.6583 32.6144C23.279 32.834 21.9785 33.3972 20.8786 34.2513C20.5962 34.0787 20.3451 33.8601 20.1359 33.6047C20.233 32.8791 20.4832 32.1819 20.8704 31.5587C21.151 31.485 22.1908 31.3868 24.7986 32.4589L24.6583 32.6144ZM4.76977 35.2989C5.32445 35.2149 5.89147 35.2683 6.42027 35.4544C7.07269 35.6786 7.64586 36.085 8.07077 36.6247C8.45864 37.0912 8.75573 37.4841 9.01156 37.8115C9.75428 38.7854 10.1999 39.3665 11.149 39.5956C10.9167 39.9078 10.6385 40.1837 10.3237 40.4141C9.73517 40.824 9.03735 41.0519 8.31835 41.0688C7.71592 41.0688 7.07222 40.9297 6.45328 40.8396C5.699 40.6995 4.93453 40.6201 4.16734 40.6023C3.68174 40.5906 3.19727 40.6541 2.73141 40.7905C3.3751 38.9409 4.05181 37.0994 4.80278 35.2989H4.76977ZM2.72316 42.452C3.47413 41.8791 4.62948 42.01 6.31299 42.2719C6.9897 42.3865 7.67465 42.4601 8.36786 42.5092C8.94778 42.6598 9.54298 42.7449 10.1421 42.763C14.3509 42.763 19.8306 40.054 22.5209 38.5808H23.833L39.6036 43.3277L40.99 46.6751C38.9104 46.8633 36.8637 46.9861 34.7593 47.027C29.8079 47.1416 22.3806 46.896 15.8199 46.6751C6.82465 46.3804 3.25131 46.3231 1.74111 46.4786C1.60733 45.7768 1.62572 45.0547 1.79504 44.3604C1.96436 43.6662 2.28074 43.0156 2.72316 42.452ZM48.8051 43.1313C51.3716 43.3031 52.4445 44.2034 52.9314 44.8418C51.0168 45.2564 49.0912 45.6166 47.1546 45.9221L45.0255 42.6484C46.2622 42.8912 47.5138 43.0525 48.7721 43.1313H48.8051ZM39.356 38.6708V38.7281C39.3525 39.0833 39.2679 39.4331 39.1084 39.7511L38.9764 39.9639C38.8414 40.1977 38.6685 40.4078 38.4647 40.5859C38.3804 40.6705 38.2734 40.7294 38.1564 40.7555C38.0394 40.7816 37.9172 40.7739 37.8045 40.7333C37.7081 40.6592 37.6308 40.5634 37.5791 40.4538C37.5275 40.3442 37.5029 40.224 37.5074 40.1031C37.5054 39.8857 37.5417 39.6697 37.6147 39.4647V39.3747C37.6403 39.2768 37.6734 39.181 37.7137 39.0882C37.8631 38.7706 38.0832 38.4908 38.3574 38.2698C38.4916 38.1551 38.6594 38.0862 38.8361 38.0734C38.9026 38.0729 38.9681 38.0899 39.0259 38.1225C39.1009 38.1597 39.1617 38.22 39.1992 38.2943V38.3434C39.2346 38.4067 39.257 38.4762 39.2652 38.548C39.3019 38.5839 39.3326 38.6253 39.356 38.6708ZM55.4236 33.8093C55.2747 34.4239 54.9931 34.9991 54.5984 35.4953C54.2155 35.9831 53.7278 36.3802 53.1707 36.6575C52.6159 36.9274 52.0061 37.0674 51.3881 37.0667H39.2817C39.0129 36.9846 38.7253 36.9846 38.4565 37.0667H37.9531C37.9184 36.7992 37.8107 36.5462 37.6417 36.3349C37.4727 36.1236 37.2487 35.9621 36.994 35.8678C36.7392 35.7734 36.4633 35.7499 36.196 35.7996C35.9288 35.8494 35.6803 35.9705 35.4773 36.15C35.4604 35.8799 35.3761 35.6181 35.2321 35.3881C35.088 35.1581 34.8888 34.9672 34.6521 34.8324C34.3973 34.6911 34.1078 34.6231 33.8162 34.6361C33.5246 34.6491 33.2425 34.7426 33.0016 34.906C32.9821 34.6489 32.9017 34.4 32.7669 34.1796C32.6321 33.9591 32.4467 33.7734 32.2258 33.6375C31.9658 33.5044 31.6734 33.4461 31.3817 33.4693C31.0901 33.4924 30.8107 33.596 30.5753 33.7684C30.5597 33.4968 30.4761 33.2334 30.332 33.0019C30.1879 32.7704 29.9879 32.5781 29.7501 32.4426C29.5305 32.3214 29.2834 32.2579 29.0321 32.2579C28.7808 32.2579 28.5337 32.3214 28.3141 32.4426L28.1326 32.3443C28.0977 32.1112 28.0107 31.8888 27.8779 31.6934C27.7451 31.498 27.5699 31.3345 27.3651 31.2149C27.1385 31.0924 26.8846 31.0282 26.6265 31.0282C26.3684 31.0282 26.1145 31.0924 25.8879 31.2149C23.4122 30.1264 21.5719 29.7172 20.4495 30.02C19.0961 30.3801 18.634 33.2364 18.6257 33.2937C18.6246 33.6559 18.7193 34.0119 18.9003 34.3264C19.0813 34.6409 19.3423 34.9029 19.6573 35.0861C19.3767 35.3234 19.1539 35.528 18.9971 35.6754L18.8898 35.7408L18.0645 36.2483L17.85 36.3628C17.3878 36.6084 16.9175 36.8212 16.4388 37.0258C15.8651 37.0037 15.3026 36.8614 14.7883 36.6084C14.233 36.3319 13.7477 35.9346 13.3689 35.4462C12.9904 34.9648 12.7254 34.4055 12.5931 33.8093C12.4528 33.1951 12.4528 32.5575 12.5931 31.9433L17.817 13.8642H22.9418V20.4853H24.419V13.8806H43.7298V20.4853H45.207V13.8806H50.208L55.4154 31.9433C55.5582 32.5597 55.561 33.1999 55.4236 33.8175V33.8093Z" fill="#1EC1AA"/>
</svg>
