<svg width="52" height="53" viewBox="0 0 52 53" fill="none" xmlns="http://www.w3.org/2000/svg">
<path d="M26.2631 52.4637H25.3662C25.2425 52.4655 25.1196 52.4427 25.0047 52.3968C24.8899 52.3508 24.7852 52.2826 24.6968 52.196C16.0354 43.5346 6.47712 43.4275 6.38341 43.4275C6.1957 43.4293 6.01187 43.374 5.85641 43.2687C5.70096 43.1635 5.58127 43.0134 5.51326 42.8384L1.89875 33.8022C1.84868 33.6836 1.82289 33.5561 1.82289 33.4274C1.82289 33.2986 1.84868 33.1712 1.89875 33.0525C1.9583 32.9344 2.04122 32.8296 2.14247 32.7445C2.24372 32.6593 2.36119 32.5956 2.48778 32.5572C4.18293 31.9939 5.64976 30.8961 6.6683 29.4287C7.68685 27.9612 8.20221 26.2031 8.1371 24.4179C8.1371 18.0189 0.801024 16.3188 0.734089 16.3054C0.608351 16.276 0.489927 16.2213 0.386034 16.1446C0.282141 16.0679 0.194961 15.9709 0.129819 15.8594C0.0646765 15.7479 0.0229266 15.6243 0.00713462 15.4961C-0.00865734 15.368 0.00183076 15.2379 0.0379589 15.1139L2.71536 6.07771C2.77505 5.86267 2.91167 5.67707 3.09924 5.55613C3.28681 5.4352 3.51228 5.38738 3.73279 5.42176C10.1853 6.27853 13.2375 5.00676 14.6566 3.78855C15.0961 3.44015 15.4612 3.00707 15.7302 2.51497C15.9993 2.02287 16.1668 1.48175 16.2229 0.923707C16.2298 0.678593 16.3311 0.445655 16.5057 0.273517C16.6804 0.101379 16.9148 0.00335701 17.16 0H34.3221C34.5706 0 34.809 0.0987589 34.9847 0.274497C35.1605 0.450236 35.2592 0.688575 35.2592 0.937107C35.3832 2.05746 35.9465 3.08291 36.8255 3.78855C38.2579 5.00676 41.3101 6.27853 47.7627 5.42176C47.9828 5.39032 48.2069 5.43935 48.3938 5.55985C48.5807 5.68035 48.7178 5.86422 48.7801 6.07771L51.4575 15.1139C51.4979 15.237 51.512 15.3671 51.4989 15.4959C51.4858 15.6248 51.4458 15.7493 51.3814 15.8617C51.317 15.974 51.2298 16.0716 51.1252 16.148C51.0207 16.2245 50.9013 16.2781 50.7747 16.3054C50.4668 16.3723 43.3717 18.0457 43.3717 24.4179C43.3174 26.2008 43.837 27.9539 44.8541 29.4192C45.8711 30.8845 47.3318 31.9845 49.021 32.5572C49.1455 32.5965 49.2607 32.6607 49.3597 32.7458C49.4587 32.8309 49.5393 32.9353 49.5967 33.0525C49.6525 33.1696 49.6815 33.2977 49.6815 33.4274C49.6815 33.5571 49.6525 33.6851 49.5967 33.8022L45.9822 42.8384C45.9166 43.0123 45.7993 43.162 45.6462 43.2673C45.493 43.3726 45.3113 43.4285 45.1254 43.4275C38.1501 44.0121 31.6305 47.1314 26.7986 52.196C26.6554 52.3431 26.4667 52.4374 26.2631 52.4637ZM25.741 50.5895H25.8749C30.8784 45.4899 37.509 42.3025 44.6167 41.5801L47.6556 33.9762C45.8146 33.1616 44.2575 31.8178 43.1823 30.1158C42.1072 28.4137 41.5627 26.4303 41.618 24.4179C41.618 18.1127 47.2272 15.5557 49.5164 14.7659L47.3075 7.37626C41.9527 7.99206 38.0169 7.22899 35.6474 5.15401C34.6464 4.29739 33.9355 3.15156 33.6126 1.87421H18.0301C17.7133 3.15091 17.0068 4.29724 16.0087 5.15401C13.6258 7.22899 9.70338 7.97867 4.34858 7.37626L2.12635 14.7659C4.42892 15.5557 10.0381 18.1127 10.0381 24.4179C10.0905 26.4315 9.54322 28.4152 8.46583 30.1171C7.38845 31.8189 5.82956 33.1622 3.98714 33.9762L7.02598 41.5801C14.1248 42.3063 20.7458 45.4936 25.741 50.5895Z" fill="#1EC1AA"/>
<path d="M15.4956 22.2809C15.5299 20.3897 16.1222 18.5508 17.1981 16.9951C18.2741 15.4394 19.7856 14.2363 21.543 13.5369C23.3004 12.8374 25.2253 12.6728 27.076 13.0636C28.9267 13.4545 30.6206 14.3834 31.9451 15.7338C33.2696 17.0842 34.1655 18.7958 34.5205 20.6537C34.8755 22.5116 34.6736 24.4329 33.9402 26.1764C33.2068 27.92 31.9747 29.408 30.3985 30.4536C28.8222 31.4992 26.9722 32.0557 25.0807 32.0534C23.7977 32.0839 22.522 31.8506 21.3329 31.3678C20.1437 30.885 19.0664 30.1632 18.1677 29.2469C17.2691 28.3307 16.5682 27.2396 16.1085 26.0413C15.6489 24.843 15.4403 23.5631 15.4956 22.2809ZM32.1223 22.2809C32.1223 17.6088 29.1102 14.7172 25.0807 14.7172C21.0512 14.7172 18.0526 17.6088 18.0526 22.2809C18.0526 26.9529 21.0646 29.8847 25.0807 29.8847C29.0968 29.8847 32.1223 26.9797 32.1223 22.2809ZM29.3378 29.8847L34.9871 35.4537H31.7475L26.9549 30.7147L29.3378 29.8847Z" fill="#1EC1AA"/>
</svg>
