<svg width="55" height="45" viewBox="0 0 55 45" fill="none" xmlns="http://www.w3.org/2000/svg">
<path fill-rule="evenodd" clip-rule="evenodd" d="M49.8932 7.32006C47.8196 7.63075 45.8802 8.5315 44.3083 9.914C42.5347 11.2715 40.8416 12.7302 39.2374 14.2827C37.1144 16.316 35.1195 18.4779 33.2641 20.7562C31.8335 19.7992 30.6356 18.5359 29.7579 17.0587C28.7757 15.1019 29.6094 13.8049 30.2718 11.9391C30.6375 10.8323 30.7715 9.66256 30.6654 8.50216C30.5593 7.34176 30.2155 6.21536 29.6551 5.19258C27.0168 0.0957196 20.701 -1.0875 15.6529 0.937588C12.9345 2.19402 10.5107 4.00393 8.53752 6.25063C6.10827 8.58224 4.04809 11.2674 2.42726 14.2145C1.01498 16.9957 0.199323 20.0393 0.0321892 23.1517C-0.134945 26.264 0.350093 29.377 1.45646 32.2924C2.58896 35.2048 4.31122 37.8537 6.516 40.0742C8.61748 42.179 11.5184 44.625 14.6706 43.658C16.3724 44.7956 19.4903 44.4771 21.272 44.2951C25.8404 43.84 32.0992 42.8729 34.8403 38.8114C35.3431 38.1014 35.6878 37.2925 35.8513 36.439C36.0148 35.5855 35.9933 34.707 35.7882 33.8624C38.415 31.8373 45.6788 25.7621 46.4669 24.9998C49.4478 22.167 53.1825 18.6287 54.4616 14.6354C55.6037 11.2906 53.8449 7.12666 49.8932 7.33145V7.32006ZM26.8341 7.00151C28.1361 10.7445 25.692 15.4773 21.6489 16.103C20.0188 16.3666 18.3486 16.0163 16.9636 15.1204C15.5786 14.2245 14.578 12.8471 14.1567 11.2565C13.2087 8.68528 15.0133 5.2722 17.4117 3.99798C20.6781 2.24594 25.5321 3.25849 26.8341 7.02425V7.00151ZM20.8152 14.3396C19.499 14.3747 18.2183 13.9119 17.2308 13.0444C16.2434 12.1768 15.6224 10.9689 15.493 9.6637C15.6431 8.65756 16.0614 7.70995 16.7042 6.91957C17.347 6.12919 18.1908 5.52494 19.1477 5.1698C21.7174 4.31653 24.9839 5.51113 25.3151 8.45775C25.6463 11.4044 23.7618 14.2031 20.8152 14.3396ZM14.5793 16.9677C14.9169 17.5181 15.1287 18.1358 15.1995 18.7769C15.2704 19.4181 15.1986 20.0669 14.9893 20.6773C14.7799 21.2877 14.4382 21.8446 13.9883 22.3085C13.5385 22.7724 12.9916 23.132 12.3864 23.3615C11.0462 23.855 9.56457 23.8019 8.26342 23.2136C7.86665 22.9918 7.5206 22.69 7.24728 22.3277C6.97396 21.9653 6.77937 21.5503 6.6759 21.1089C5.67084 19.6185 6.56169 17.2635 8.00074 16.012C8.47877 15.6033 9.03918 15.3014 9.64423 15.1266C10.2493 14.9518 10.8849 14.9082 11.5083 14.9988C12.1317 15.0893 12.7283 15.3119 13.2581 15.6516C13.7878 15.9912 14.2383 16.44 14.5793 16.9677ZM11.3471 21.8029C10.5414 22.0144 9.68742 21.9461 8.92585 21.6095L8.75452 21.4843C8.7427 21.38 8.69414 21.2833 8.61747 21.2113C5.94494 18.4922 11.8496 14.3851 13.3344 18.3898C13.4535 18.7438 13.4956 19.1189 13.4578 19.4903C13.42 19.8617 13.3032 20.2208 13.1151 20.5438C12.9271 20.8667 12.6722 21.146 12.3673 21.3631C12.0625 21.5802 11.7147 21.7301 11.3471 21.8029ZM7.92079 25.7962C8.36952 25.804 8.81104 25.9101 9.21406 26.1068C9.61707 26.3035 9.97173 26.5861 10.2529 26.9346C10.5341 27.2831 10.7348 27.6889 10.841 28.1233C10.9472 28.5576 10.9563 29.01 10.8674 29.4482C10.3649 31.7236 7.82943 32.2355 6.00206 31.2343C5.52235 30.899 5.17086 30.4116 5.00493 29.8517C4.839 29.2917 4.86841 28.6923 5.08837 28.1512C5.20454 27.4883 5.55286 26.888 6.07145 26.4568C6.59004 26.0256 7.2453 25.7915 7.92079 25.7962ZM9.4969 28.9476C9.46126 29.1766 9.37552 29.395 9.24576 29.5874C9.11599 29.7797 8.94538 29.9413 8.74598 30.0607C8.54658 30.1801 8.32326 30.2544 8.09185 30.2783C7.86044 30.3022 7.6266 30.2751 7.40684 30.199C6.77868 30.0398 6.43605 29.8236 6.35611 29.1751C6.3434 28.944 6.3434 28.7123 6.35611 28.4811C6.64163 26.9339 9.78241 26.8315 9.55399 28.9476H9.4969ZM6.83579 38.1515C3.97901 34.969 2.18086 30.9839 1.68805 26.743C1.19524 22.5021 2.03192 18.2132 4.08331 14.4648C5.56626 11.9599 7.37929 9.66408 9.47405 7.63861C11.3593 5.44373 13.6964 3.67835 16.3267 2.46213C21.3976 0.505296 28.0904 2.4621 28.8899 8.48049C29.2439 11.1427 27.1653 13.1337 27.4965 15.739C27.8506 18.5491 30.0206 20.449 32.1334 22.0987C31.0294 23.5094 29.9711 24.9543 28.9584 26.4333C28.7871 26.3423 28.6043 26.2626 28.4102 26.183C27.4988 25.8623 26.5162 25.7989 25.5709 25.9996C24.6256 26.2004 23.7545 26.6576 23.0537 27.3207C21.2035 28.9476 20.4954 31.2912 19.97 33.6008C19.7357 34.9632 19.3842 36.303 18.9193 37.6054C18.6435 38.3859 18.1716 39.0831 17.5487 39.6305C16.8541 40.1347 16.0092 40.3912 15.1503 40.3587C14.9076 40.3719 14.6707 40.4381 14.4566 40.5528C14.2425 40.6674 14.0563 40.8276 13.9113 41.022C13.7663 41.2164 13.6661 41.4401 13.6177 41.6774C13.5693 41.9148 13.574 42.1598 13.6313 42.3951C10.9816 42.5999 8.41189 39.9604 6.77868 38.1629L6.83579 38.1515ZM26.6057 41.7921C23.8213 42.579 20.933 42.9396 18.0399 42.8616C17.663 42.8616 16.144 42.8616 15.847 42.5203C15.1161 41.6784 16.361 41.8832 16.7721 41.7808C17.6114 41.5495 18.3727 41.0976 18.9764 40.4724C20.5982 38.8341 20.9865 36.3881 21.4662 34.2379C21.5575 33.8283 21.6489 33.396 21.7631 32.9636C22.5914 34.7522 23.9667 36.2337 25.692 37.1959C28.0677 38.3016 30.7043 38.7308 33.3098 38.436C31.7109 40.4383 29.0269 41.2005 26.6057 41.7921ZM34.2578 36.809C31.7908 36.8887 29.084 37.1617 26.7998 36.115C25.7704 35.6324 24.8537 34.9409 24.1083 34.0847C23.3629 33.2286 22.8053 32.2267 22.4712 31.1433L22.4027 30.9954C22.6502 30.2374 23.0575 29.5407 23.5972 28.9521C24.1369 28.3635 24.7966 27.8965 25.5321 27.5824C28.1589 26.6153 32.2362 31.4505 32.3847 31.3936C33.8352 32.9978 35.0458 34.6247 34.2349 36.7977L34.2578 36.809ZM35.1486 32.4403C33.8809 30.3469 31.3111 29.1182 30.4888 26.7518C30.4567 26.6721 30.4103 26.5988 30.3518 26.5357C31.9184 24.3057 33.6075 22.1636 35.4113 20.1191C36.6562 21.6095 37.9125 23.0771 39.2716 24.4537C40.0766 25.4012 40.9632 26.2768 41.9213 27.0704C39.7285 28.9248 37.4443 30.6996 35.16 32.4631L35.1486 32.4403ZM51.4351 17.1383C49.9629 19.1632 48.3281 21.0656 46.5468 22.8268C45.4047 23.9645 44.2626 25.1022 43.0177 26.1147C42.379 25.64 41.7864 25.1067 41.2475 24.522C40.6079 23.9076 39.9797 23.2819 39.363 22.6448C38.2894 21.5071 37.2501 20.3694 36.2222 19.2317C37.4252 17.9196 38.6701 16.6605 39.9569 15.4546C42.3096 13.2474 49.4935 5.7159 52.7028 10.0846C54.4616 12.3031 52.8513 15.1815 51.4693 17.1383H51.4351Z" fill="#1EC1AA"/>
</svg>
