<svg width="28" height="28" viewBox="0 0 28 28" fill="none" xmlns="http://www.w3.org/2000/svg">
<g clip-path="url(#clip0_1_3324)">
<path fill-rule="evenodd" clip-rule="evenodd" d="M6.15959 0H21.8377C23.4697 0.00643827 25.033 0.657637 26.187 1.8117C27.341 2.96577 27.9922 4.52917 27.9986 6.16125V21.8252C27.9951 23.4594 27.3453 25.0258 26.191 26.1827C25.0368 27.3395 23.4718 27.9928 21.8377 28H6.15959C4.5257 27.9925 2.96109 27.339 1.80715 26.1822C0.653198 25.0254 0.00356894 23.4592 0 21.8252V6.16125C0.00608045 4.52929 0.656946 2.96589 1.81074 1.81179C2.96453 0.657681 4.52772 0.00644056 6.15959 0Z" fill="white"/>
<path d="M18.1039 23.5299H9.89476C8.45668 23.5277 7.07812 22.9555 6.06124 21.9385C5.04436 20.9216 4.47213 19.543 4.46997 18.1048V9.89391C4.47249 8.45599 5.04487 7.07771 6.06171 6.06108C7.07855 5.04444 8.45691 4.47237 9.89476 4.47021H18.1039C19.5418 4.47237 20.9201 5.04444 21.937 6.06108C22.9538 7.07771 23.5262 8.45599 23.5287 9.89391V18.1048C23.5266 19.543 22.9543 20.9216 21.9375 21.9385C20.9206 22.9555 19.542 23.5277 18.1039 23.5299ZM9.89476 6.10018C8.88982 6.10089 7.92624 6.50035 7.21551 7.21085C6.50479 7.92135 6.10501 8.88485 6.10393 9.88984V18.1008C6.10501 19.1059 6.50474 20.0695 7.21543 20.7802C7.92612 21.4909 8.8897 21.8907 9.89476 21.8918H18.1039C19.109 21.8907 20.0726 21.4909 20.7833 20.7802C21.4939 20.0695 21.8937 19.1059 21.8948 18.1008V9.89391C21.8948 8.88822 21.4955 7.92368 20.7846 7.21229C20.0738 6.50091 19.1096 6.1009 18.1039 6.10018H9.89476Z" fill="#7B002B"/>
<path d="M18.1039 23.5299H9.89476C8.45668 23.5277 7.07812 22.9555 6.06124 21.9385C5.04436 20.9216 4.47213 19.543 4.46997 18.1048V9.89391C4.47249 8.45599 5.04487 7.07771 6.06171 6.06108C7.07855 5.04444 8.45691 4.47237 9.89476 4.47021H18.1039C19.5418 4.47237 20.9201 5.04444 21.937 6.06108C22.9538 7.07771 23.5262 8.45599 23.5287 9.89391V18.1048C23.5266 19.543 22.9543 20.9216 21.9375 21.9385C20.9206 22.9555 19.542 23.5277 18.1039 23.5299ZM9.89476 6.10018C8.88982 6.10089 7.92624 6.50035 7.21551 7.21085C6.50479 7.92135 6.10501 8.88485 6.10393 9.88984V18.1008C6.10501 19.1059 6.50474 20.0695 7.21543 20.7802C7.92612 21.4909 8.8897 21.8907 9.89476 21.8918H18.1039C19.109 21.8907 20.0726 21.4909 20.7833 20.7802C21.4939 20.0695 21.8937 19.1059 21.8948 18.1008V9.89391C21.8948 8.88822 21.4955 7.92368 20.7846 7.21229C20.0738 6.50091 19.1096 6.1009 18.1039 6.10018H9.89476Z" fill="#4E4E4D"/>
<path d="M13.9993 18.8804C12.7058 18.8779 11.4659 18.3629 10.5513 17.4482C9.63662 16.5335 9.12165 15.2936 9.11914 14C9.12165 12.7064 9.63662 11.4665 10.5513 10.5518C11.4659 9.63713 12.7058 9.12214 13.9993 9.11963C15.2928 9.12214 16.5326 9.63713 17.4473 10.5518C18.3619 11.4665 18.8769 12.7064 18.8794 14C18.8769 15.2936 18.3619 16.5335 17.4473 17.4482C16.5326 18.3629 15.2928 18.8779 13.9993 18.8804ZM13.9993 10.7537C13.1387 10.7547 12.3136 11.0971 11.7051 11.7057C11.0965 12.3143 10.7542 13.1393 10.7531 14C10.7542 14.8607 11.0965 15.6857 11.7051 16.2943C12.3136 16.9029 13.1387 17.2453 13.9993 17.2463C14.8599 17.2453 15.6849 16.9029 16.2935 16.2943C16.902 15.6857 17.2444 14.8607 17.2455 14C17.2444 13.1393 16.902 12.3143 16.2935 11.7057C15.6849 11.0971 14.8599 10.7547 13.9993 10.7537Z" fill="#7B002B"/>
<path d="M13.9993 18.8804C12.7058 18.8779 11.4659 18.3629 10.5513 17.4482C9.63662 16.5335 9.12165 15.2936 9.11914 14C9.12165 12.7064 9.63662 11.4665 10.5513 10.5518C11.4659 9.63713 12.7058 9.12214 13.9993 9.11963C15.2928 9.12214 16.5326 9.63713 17.4473 10.5518C18.3619 11.4665 18.8769 12.7064 18.8794 14C18.8769 15.2936 18.3619 16.5335 17.4473 17.4482C16.5326 18.3629 15.2928 18.8779 13.9993 18.8804ZM13.9993 10.7537C13.1387 10.7547 12.3136 11.0971 11.7051 11.7057C11.0965 12.3143 10.7542 13.1393 10.7531 14C10.7542 14.8607 11.0965 15.6857 11.7051 16.2943C12.3136 16.9029 13.1387 17.2453 13.9993 17.2463C14.8599 17.2453 15.6849 16.9029 16.2935 16.2943C16.902 15.6857 17.2444 14.8607 17.2455 14C17.2444 13.1393 16.902 12.3143 16.2935 11.7057C15.6849 11.0971 14.8599 10.7547 13.9993 10.7537Z" fill="#4E4E4D"/>
<path d="M20.2608 8.84105C20.2608 9.15194 20.1373 9.4501 19.9175 9.66994C19.6977 9.88977 19.3996 10.0133 19.0887 10.0133C18.7777 10.0133 18.4794 9.88981 18.2594 9.67002C18.0393 9.45023 17.9155 9.15207 17.9152 8.84105C17.9152 8.5298 18.0388 8.2313 18.2589 8.01122C18.479 7.79113 18.7774 7.66748 19.0887 7.66748C19.2427 7.66748 19.3953 7.69785 19.5376 7.75684C19.6799 7.81584 19.8091 7.90231 19.918 8.0113C20.0269 8.12029 20.1132 8.24968 20.172 8.39205C20.2308 8.53443 20.261 8.687 20.2608 8.84105Z" fill="#7B002B"/>
<path d="M20.2608 8.84105C20.2608 9.15194 20.1373 9.4501 19.9175 9.66994C19.6977 9.88977 19.3996 10.0133 19.0887 10.0133C18.7777 10.0133 18.4794 9.88981 18.2594 9.67002C18.0393 9.45023 17.9155 9.15207 17.9152 8.84105C17.9152 8.5298 18.0388 8.2313 18.2589 8.01122C18.479 7.79113 18.7774 7.66748 19.0887 7.66748C19.2427 7.66748 19.3953 7.69785 19.5376 7.75684C19.6799 7.81584 19.8091 7.90231 19.918 8.0113C20.0269 8.12029 20.1132 8.24968 20.172 8.39205C20.2308 8.53443 20.261 8.687 20.2608 8.84105Z" fill="#4E4E4D"/>
</g>
<defs>
<clipPath id="clip0_1_3324">
<rect width="28" height="28" fill="white"/>
</clipPath>
</defs>
</svg>
