<svg width="28" height="28" viewBox="0 0 28 28" fill="none" xmlns="http://www.w3.org/2000/svg">
<path fill-rule="evenodd" clip-rule="evenodd" d="M27.7439 16.688C27.2051 19.4021 25.8722 21.8951 23.9145 23.8506C22.625 25.1636 21.0869 26.2066 19.3898 26.9186C17.6928 27.6305 15.871 27.9972 14.0306 27.9972C12.1903 27.9972 10.3684 27.6305 8.67143 26.9186C6.97441 26.2066 5.43626 25.1636 4.14683 23.8506C1.51364 21.2458 0.0221382 17.7024 -4.76837e-06 13.9986C0.00452905 12.1542 0.373167 10.3289 1.08478 8.62732C1.7964 6.92575 2.83698 5.38143 4.14683 4.08296C5.4401 2.78833 6.9759 1.76134 8.66639 1.06072C10.3569 0.360088 12.1689 -0.000431832 13.9988 -0.00022864C16.7659 -0.0090161 19.4733 0.804258 21.7775 2.33643C24.0817 3.8686 25.8789 6.05063 26.9411 8.60573C28.0034 11.1608 28.2828 13.9739 27.7439 16.688ZM13.9988 25.4678C17.046 25.4796 19.9734 24.2825 22.1393 22.139C24.3016 19.9805 25.5185 17.0516 25.5223 13.9962C25.5223 13.7463 25.5128 13.4988 25.4963 13.2513C23.7044 14.0637 21.7945 14.5858 19.8383 14.7978C18.7947 14.9221 17.7445 14.9843 16.6935 14.984C16.4248 14.9941 16.1559 14.9736 15.8919 14.9227C15.3963 14.9116 14.9018 14.8698 14.4114 14.7978C14.1474 14.747 13.8785 14.7264 13.6098 14.7365C13.5087 14.8668 13.4292 15.0125 13.3741 15.1679C13.3104 15.3542 13.2491 15.538 13.1879 15.7856C13.0558 16.3507 13.0144 16.9332 13.0653 17.5113C13.189 17.5113 13.3321 17.4956 13.4737 17.4802C13.6125 17.465 13.7501 17.45 13.8668 17.45C13.8082 16.6907 13.9352 15.9285 14.2369 15.2292C14.6649 15.3012 15.0974 15.3429 15.5312 15.3542C15.4306 15.4848 15.3511 15.6304 15.2954 15.7856C15.001 16.2812 14.793 16.8233 14.6801 17.3887H14.7414C15.237 17.3991 15.7314 17.44 16.222 17.5113C17.5146 17.6713 18.7563 18.1131 19.8596 18.8055C20.234 19.0387 20.5853 19.3071 20.9087 19.6071C20.5793 19.3863 20.2276 19.2006 19.8596 19.0531C18.7246 18.495 17.4856 18.1802 16.222 18.1289H15.7905C13.8725 18.1129 11.9971 18.6946 10.4248 19.7933C10.4167 19.793 10.4086 19.7943 10.401 19.7973C10.3934 19.8003 10.3865 19.8048 10.3808 19.8105C10.375 19.8163 10.3705 19.8232 10.3675 19.8308C10.3646 19.8384 10.3632 19.8465 10.3635 19.8546C10.2092 19.9419 10.0645 20.0454 9.93213 20.1634C9.55194 20.4804 9.20086 20.8307 8.88306 21.2102C8.80016 21.349 8.69593 21.4739 8.57421 21.5803C8.85232 22.0472 9.20695 22.464 9.62329 22.8133C10.1971 23.3599 10.9323 23.7064 11.7191 23.8011C12.6456 23.9307 13.756 23.6148 14.1874 22.752C14.2972 22.5456 14.3645 22.3194 14.3856 22.0866C14.4066 21.8538 14.3809 21.6191 14.31 21.3964C13.8173 19.7226 11.3608 20.2766 11.5965 21.6322C11.8441 22.8675 13.1383 22.6813 13.077 22.0023C13.0157 21.5308 12.5725 21.5308 12.3368 21.7665C12.4523 20.965 13.3953 20.9037 13.631 21.7053C13.6851 21.9223 13.6729 22.1507 13.596 22.3608C13.5191 22.5709 13.3811 22.7531 13.1996 22.884C12.9958 23.0147 12.7645 23.0963 12.5238 23.1224C12.2832 23.1485 12.0397 23.1185 11.8126 23.0347C11.5855 22.9508 11.3809 22.8154 11.215 22.6392C11.0491 22.4629 10.9263 22.2505 10.8563 22.0188C10.4862 20.8401 11.2264 19.6094 12.5843 19.4256C13.0989 19.3322 13.6299 19.4006 14.104 19.6214C14.5781 19.8422 14.9721 20.2045 15.2318 20.6585C15.7269 21.5827 15.8494 22.8793 15.2318 23.8034C14.9508 24.2225 14.5875 24.5802 14.1639 24.8545C13.7404 25.1289 13.2656 25.3143 12.7682 25.3995C13.1769 25.4448 13.5877 25.4676 13.9988 25.4678ZM8.2041 17.8955C8.0564 18.3533 7.97308 18.8293 7.95655 19.31V19.303C7.9503 19.4711 7.97509 19.6389 8.02965 19.798C7.72387 20.2151 7.47493 20.6709 7.28939 21.1536C7.50007 20.7805 7.74809 20.4298 8.02965 20.1069L8.46106 19.6731C8.52471 19.6462 8.57246 19.6002 8.62083 19.5536C8.66562 19.5105 8.71093 19.4668 8.76988 19.4373C8.8371 19.3621 8.91686 19.2991 9.00562 19.2511C9.15858 19.1134 9.32349 18.9895 9.49836 18.881C9.17868 18.6045 8.88942 18.2947 8.63551 17.9568C8.55418 17.78 8.45037 17.6144 8.32666 17.4641C8.15 17.1388 8.0078 16.7958 7.90233 16.441C7.90786 16.5082 7.91734 16.5794 7.92685 16.6508C7.94167 16.762 7.95655 16.8737 7.95655 16.9714C8.00946 17.2866 8.09236 17.5961 8.2041 17.8955ZM20.7678 10.5841C20.983 10.1753 21.0937 9.71962 21.0902 9.25766V9.25059C21.0864 8.78139 20.973 8.31956 20.7589 7.90203C20.5448 7.48449 20.236 7.12283 19.8572 6.84594C19.3873 6.51858 18.8268 6.34631 18.2541 6.35323C17.8723 6.3526 17.494 6.42758 17.1413 6.57385C16.7886 6.72012 16.4683 6.93478 16.1989 7.20545C15.9296 7.47612 15.7165 7.79744 15.5719 8.15088C15.4274 8.50432 15.3542 8.88289 15.3567 9.26474C15.3704 10.0226 15.6822 10.7446 16.2245 11.2742C16.7669 11.8037 17.4961 12.0982 18.2541 12.0937C18.8268 12.1007 19.3873 11.9284 19.8572 11.601C20.2399 11.3423 20.5527 10.9929 20.7678 10.5841ZM12.2118 14.6846C12.333 14.2861 12.5202 13.9107 12.7659 13.5742V13.5672C12.3901 13.8806 12.091 14.2757 11.8912 14.7223C11.6805 14.7335 11.4725 14.7748 11.2735 14.8449C10.7779 14.9706 10.3154 15.2022 9.91798 15.5239C9.62389 15.7164 9.3547 15.9444 9.11645 16.2029C9.1471 16.2641 9.16242 16.3414 9.17775 16.4186C9.19307 16.4958 9.2084 16.573 9.23904 16.6343V16.6344C9.23904 16.6956 9.23904 16.6956 9.30031 16.7569C9.47522 17.3637 9.76936 17.9295 10.1655 18.4213C10.36 18.3681 10.5464 18.2888 10.7195 18.1855C10.2906 17.5591 10.016 16.8401 9.91798 16.0873C10.1507 15.9029 10.3983 15.7381 10.6582 15.5946C10.7569 15.5668 10.8562 15.5186 10.9554 15.4705C11.0412 15.4289 11.127 15.3873 11.2123 15.3589C11.1613 15.7053 11.1408 16.0556 11.151 16.4056C11.2 16.9148 11.3248 17.4138 11.5211 17.8861L12.2613 17.7022C12.1526 17.3391 12.0738 16.9678 12.0256 16.5918C11.9864 16.1196 12.007 15.6444 12.0869 15.1773C12.1135 15.0757 12.134 14.9726 12.1482 14.8685C12.1722 14.8448 12.1905 14.8159 12.2015 14.784C12.2126 14.7521 12.2161 14.7181 12.2118 14.6846ZM5.36074 6.40494C3.52296 8.50923 2.51626 11.2119 2.52959 14.0057V13.9986C2.54379 16.927 3.65301 19.7442 5.63914 21.8962C4.52336 20.5192 3.77178 18.8838 3.45353 17.1403C3.13529 15.3968 3.2606 13.6013 3.81795 11.9189C4.3753 10.2365 5.3468 8.72134 6.64303 7.51271C7.93927 6.30408 9.51864 5.44083 11.2358 5.00238C11.3537 6.6871 11.7712 8.33728 12.4688 9.87533C12.1454 8.73153 11.9796 7.54894 11.9761 6.3603C11.977 5.8607 12.0077 5.36159 12.068 4.86565C12.1426 4.10338 12.291 3.35016 12.5112 2.61659V2.57652C9.74105 2.93935 7.19852 4.30064 5.36074 6.40494ZM19.8313 9.85434C19.8313 10.4025 19.3869 10.8468 18.8388 10.8468C18.2906 10.8468 17.8463 10.4025 17.8463 9.85434C17.8463 9.30619 18.2906 8.86183 18.8388 8.86183C19.3869 8.86183 19.8313 9.30619 19.8313 9.85434Z" fill="#E22D21"/>
</svg>
