<svg width="45" height="44" viewBox="0 0 45 44" fill="none" xmlns="http://www.w3.org/2000/svg">
<path d="M37.759 37.488C41.89 33.3642 44.2095 27.7787 44.2095 21.9559C44.2095 16.1331 41.89 10.5477 37.759 6.42391C34.67 3.34027 30.731 1.23817 26.4407 0.38371C22.1505 -0.470745 17.702 -0.0390728 13.6584 1.62403C9.61485 3.28713 6.1581 6.10695 3.72588 9.72632C1.29366 13.3457 -0.00469971 17.6018 -0.00469971 21.9559C-0.00469971 26.31 1.29366 30.5662 3.72588 34.1856C6.1581 37.805 9.61485 40.6248 13.6584 42.2879C17.702 43.951 22.1505 44.3827 26.4407 43.5282C30.731 42.6738 34.67 40.5717 37.759 37.488ZM34.9735 34.804C31.5434 38.165 26.9209 40.0461 22.1071 40.04C21.4594 40.0837 20.8094 40.0837 20.1617 40.04C20.9488 39.9111 21.7007 39.6218 22.3703 39.1903C23.0398 38.7587 23.6125 38.1941 24.0526 37.5319C24.4872 36.7828 24.716 35.933 24.716 35.0679C24.716 34.2029 24.4872 33.3531 24.0526 32.604C23.6555 31.8845 23.0389 31.3093 22.2919 30.9613C21.5448 30.6134 20.706 30.5106 19.8964 30.6679C19.4268 30.7059 18.9718 30.8486 18.5652 31.0854C18.1586 31.3222 17.8107 31.647 17.5474 32.0358C17.2841 32.4246 17.1122 32.8674 17.0443 33.3313C16.9763 33.7953 17.0143 34.2686 17.1552 34.716C17.2653 35.0821 17.4594 35.4177 17.7223 35.6962C17.9852 35.9748 18.3097 36.1886 18.6699 36.3209C19.0302 36.4532 19.4164 36.5003 19.7981 36.4585C20.1798 36.4167 20.5464 36.2871 20.8692 36.08C21.1516 35.8723 21.3655 35.5856 21.4836 35.2565C21.6017 34.9274 21.6186 34.5707 21.5323 34.2319C21.1344 32.9999 19.6754 33.0879 19.4985 34.2319C19.8964 33.8799 20.5597 33.8799 20.6481 34.6279C20.7366 35.3759 18.7026 35.9919 18.3046 34.0559C17.9067 32.1199 21.8418 31.0639 22.7261 33.6599C22.8785 33.9991 22.9573 34.3665 22.9573 34.738C22.9573 35.1096 22.8785 35.4769 22.7261 35.816C22.3248 36.4529 21.7358 36.9509 21.0394 37.2423C20.3431 37.5337 19.5734 37.6041 18.8353 37.444C17.5882 37.3135 16.4208 36.7714 15.5193 35.904C14.8754 35.3479 14.3232 34.6946 13.8832 33.9679L14.3697 33.3959C14.8578 32.7859 15.4058 32.2258 16.0056 31.7239C16.0056 31.7239 16.4035 31.46 16.6687 31.24C19.1463 29.5266 22.0967 28.6196 25.1137 28.644H25.5559C27.5399 28.7139 29.4855 29.2091 31.2595 30.0959C31.8488 30.3122 32.4123 30.5926 32.9397 30.9319C32.4257 30.4625 31.8624 30.0495 31.2595 29.6999C29.5364 28.6051 27.5863 27.9131 25.5559 27.676C24.782 27.5394 23.9983 27.4657 23.2125 27.4559C23.3847 26.5691 23.714 25.72 24.1852 24.948C24.2671 24.6971 24.3863 24.4597 24.5389 24.244C23.8616 24.2856 23.1824 24.2856 22.5051 24.244C22.0365 25.3401 21.8393 26.5323 21.9303 27.72H20.6481C20.5674 26.8048 20.6421 25.8825 20.8692 24.9919C20.9405 24.6649 21.0291 24.3417 21.1344 24.0239C21.2329 23.7717 21.3669 23.5348 21.5323 23.32C21.9575 23.258 22.3895 23.258 22.8146 23.32C23.595 23.3653 24.3775 23.3653 25.1579 23.32C25.5693 23.3654 25.9845 23.3654 26.3959 23.32C28.0502 23.321 29.7032 23.2327 31.3479 23.0559C34.4056 22.6935 37.3885 21.8623 40.1908 20.5919C40.2128 20.9876 40.2128 21.3843 40.1908 21.78C40.2336 24.1869 39.7944 26.5781 38.8987 28.8143C38.0029 31.0504 36.6685 33.0865 34.9735 34.804ZM12.6011 30.404C12.6249 29.6587 12.7437 28.9194 12.9548 28.204C12.7957 27.7308 12.6774 27.2451 12.6011 26.752C12.6011 26.488 12.6011 26.18 12.6011 25.916C12.7409 26.4742 12.9644 27.0081 13.2643 27.4999C13.4581 27.7433 13.6214 28.0093 13.7506 28.2919C14.1609 28.8175 14.6199 29.3037 15.1214 29.744C14.8341 29.9023 14.5668 30.0944 14.3254 30.316C14.1767 30.3963 14.0423 30.5003 13.9275 30.6239C13.9275 30.6239 13.6623 30.888 13.4412 31.02L12.7779 31.68C12.3309 32.1853 11.9314 32.7302 11.5841 33.308C11.8945 32.5584 12.2953 31.8491 12.7779 31.1959C12.6643 30.9161 12.6044 30.6177 12.6011 30.316V30.404ZM33.2933 14.652C33.2933 15.819 32.8275 16.9381 31.9983 17.7632C31.1691 18.5884 30.0446 19.052 28.8719 19.052C27.67 19.052 26.5172 18.5768 25.6673 17.731C24.8174 16.8852 24.34 15.738 24.34 14.5419C24.34 13.3458 24.8174 12.1987 25.6673 11.353C26.5172 10.5072 27.67 10.0319 28.8719 10.0319C29.7735 10.0341 30.6529 10.3104 31.3922 10.8239C31.9966 11.2408 32.4869 11.8011 32.8189 12.4542C33.1509 13.1072 33.314 13.8324 33.2933 14.5639V14.652ZM20.0291 21.4279C19.648 21.9517 19.3498 22.5304 19.1447 23.144C19.182 23.2433 19.182 23.3527 19.1447 23.452C19.1447 23.452 19.1447 23.848 19.1447 23.936C19.0573 24.6814 19.0573 25.4345 19.1447 26.18C19.2139 26.7648 19.3475 27.3401 19.5428 27.8959L18.3489 28.204C18.0542 27.4554 17.8609 26.6712 17.7741 25.872C17.7311 25.3155 17.7311 24.7565 17.7741 24.1999C17.492 24.3583 17.1961 24.4908 16.8899 24.5959L15.7403 25.388C15.8784 26.5787 16.3198 27.7146 17.0225 28.688L16.1382 29.084C15.5257 28.293 15.0615 27.3987 14.7676 26.444C14.7865 26.2097 14.7865 25.9743 14.7676 25.74C15.1539 25.3413 15.584 24.9871 16.0498 24.684C16.6689 24.1784 17.3941 23.8174 18.172 23.6279C18.4869 23.5183 18.8132 23.4446 19.1447 23.408C19.332 22.6545 19.6788 21.9495 20.1617 21.34L20.0291 21.4279ZM3.8909 22.088C3.8751 17.2957 5.76684 12.6921 9.1524 9.28401C11.9939 6.4853 15.6707 4.6789 19.6312 4.13596C19.2683 5.29545 19.0311 6.49024 18.9237 7.69994C18.8785 8.47663 18.8785 9.25526 18.9237 10.0319C18.9224 11.9052 19.1753 13.7701 19.6754 15.576C18.5951 13.1523 17.9372 10.5634 17.73 7.92003C14.1419 8.82895 10.9599 10.9008 8.68622 13.8088C6.41253 16.7168 5.17658 20.2954 5.17315 23.98C5.17965 27.7892 6.48954 31.4826 8.88713 34.452C5.76966 31.0456 4.03615 26.6073 4.02354 21.9999L3.8909 22.088Z" fill="white"/>
</svg>
