<svg width="122" height="33" viewBox="0 0 122 33" fill="none" xmlns="http://www.w3.org/2000/svg">
<g clip-path="url(#clip0_0_1)">
<path d="M39.4078 11.496C39.274 11.1762 39.0461 10.9043 38.7541 10.7158C38.4622 10.5273 38.1198 10.4312 37.7718 10.44H36.7549C36.4144 10.44 36.0817 10.5402 35.7985 10.7282C35.5152 10.9161 35.2942 11.1832 35.1632 11.496L27.0278 29.096C26.8765 29.3568 26.7968 29.6528 26.7968 29.954C26.7968 30.2552 26.8765 30.5512 27.0278 30.812C27.1913 31.0591 27.4148 31.2612 27.6775 31.3996C27.9403 31.5381 28.2338 31.6084 28.5311 31.604H29.3712C29.7062 31.6045 30.0352 31.5149 30.3232 31.3444C30.6112 31.174 30.8475 30.9292 31.0071 30.636L32.5103 27.512H38.8772C38.9633 27.5138 39.0486 27.4948 39.1256 27.4564C39.2026 27.4181 39.2691 27.3616 39.3194 27.292C39.362 27.2104 39.3843 27.1199 39.3843 27.028C39.3843 26.9361 39.362 26.8455 39.3194 26.764L37.6835 23.508C37.6442 23.422 37.5824 23.348 37.5047 23.2938C37.4269 23.2397 37.3359 23.2073 37.2413 23.2H34.4558L37.2413 17.04L43.4313 30.636C43.5808 30.9406 43.8136 31.1971 44.103 31.3761C44.3923 31.5551 44.7265 31.6494 45.0672 31.648H45.9515C46.2488 31.6524 46.5423 31.5821 46.8051 31.4437C47.0678 31.3052 47.2913 31.1031 47.4548 30.8559C47.6061 30.5951 47.6858 30.2993 47.6858 29.998C47.6858 29.6968 47.6061 29.4009 47.4548 29.14L39.4078 11.496Z" fill="white"/>
<path d="M68.6776 27.336H60.0559V12.1559C60.0443 11.7202 59.8622 11.3062 59.5484 11.0021C59.2346 10.698 58.8138 10.5278 58.3757 10.528H57.4473C57.0092 10.5278 56.5884 10.698 56.2746 11.0021C55.9607 11.3062 55.7786 11.7202 55.7671 12.1559V30.0201C55.767 30.2376 55.8107 30.4529 55.8957 30.6533C55.9806 30.8538 56.1051 31.0353 56.2617 31.1871C56.4184 31.3388 56.6039 31.4578 56.8075 31.537C57.0112 31.6162 57.2287 31.6539 57.4473 31.648H68.6776C68.8961 31.6539 69.1137 31.6162 69.3173 31.537C69.5209 31.4578 69.7065 31.3388 69.8631 31.1871C70.0197 31.0353 70.1442 30.8538 70.2291 30.6533C70.3141 30.4529 70.3578 30.2376 70.3577 30.0201V29.008C70.3577 28.7884 70.3143 28.571 70.2298 28.3682C70.1454 28.1653 70.0217 27.981 69.8656 27.8257C69.7096 27.6704 69.5244 27.5473 69.3205 27.4633C69.1167 27.3793 68.8982 27.336 68.6776 27.336Z" fill="white"/>
<path d="M121.602 29.14L120.099 27.5559C119.038 26.4119 117.932 25.268 117.048 24.212C118.337 23.8253 119.457 23.0196 120.231 21.9239C121.045 20.7132 121.476 19.2883 121.469 17.8319C121.485 16.8101 121.305 15.7948 120.939 14.84C120.567 13.9405 120.027 13.1194 119.347 12.42C118.745 11.8314 118.021 11.3808 117.225 11.0999C116.161 10.7139 115.041 10.5058 113.909 10.484H106.039C105.64 10.484 105.258 10.6416 104.976 10.9222C104.694 11.2027 104.535 11.5832 104.535 11.98V30.372C104.535 30.7687 104.694 31.1492 104.976 31.4298C105.258 31.7104 105.64 31.8679 106.039 31.8679H107.409C107.808 31.8679 108.19 31.7104 108.472 31.4298C108.754 31.1492 108.913 30.7687 108.913 30.372V25.004H111.742C112.317 25.796 113.732 27.38 115.103 28.876C116.473 30.372 116.827 30.812 117.269 31.384C117.419 31.5511 117.603 31.6844 117.809 31.7754C118.015 31.8664 118.238 31.913 118.463 31.912H120.497C120.788 31.924 121.077 31.8458 121.322 31.6883C121.568 31.5307 121.758 31.3015 121.867 31.0319C122.061 30.738 122.14 30.3843 122.091 30.0364C122.043 29.6885 121.869 29.3701 121.602 29.14ZM116.783 18.9319C116.639 19.2644 116.429 19.564 116.164 19.812C115.947 20.0512 115.673 20.2326 115.368 20.34C115.074 20.3772 114.777 20.3772 114.484 20.34H108.824V14.62H114.484C114.947 14.5842 115.41 14.6916 115.81 14.9279C116.111 15.1029 116.368 15.3436 116.562 15.6319C116.737 15.9306 116.857 16.2586 116.915 16.5999C116.931 16.9077 116.931 17.2161 116.915 17.5239C116.975 17.9972 116.93 18.4779 116.783 18.9319Z" fill="white"/>
<path d="M86.4075 6.56809C86.9847 6.56809 87.5488 6.39775 88.0287 6.07865C88.5086 5.75956 88.8827 5.30599 89.1036 4.77536C89.3245 4.24472 89.3822 3.66088 89.2696 3.09756C89.157 2.53424 88.8791 2.01684 88.471 1.61071C88.0629 1.20458 87.5429 0.927974 86.9768 0.815922C86.4107 0.703871 85.8241 0.761421 85.2908 0.981217C84.7576 1.20101 84.3019 1.57318 83.9812 2.05074C83.6606 2.5283 83.4894 3.08972 83.4894 3.66408C83.5008 4.43073 83.8119 5.1628 84.3567 5.70496C84.9015 6.24712 85.6372 6.55674 86.4075 6.56809Z" fill="white"/>
<path d="M86.3633 9.91208C84.1491 9.8596 81.9695 10.4649 80.1027 11.651C78.2358 12.837 76.7664 14.5499 75.8823 16.5708C74.9981 18.5916 74.7393 20.8289 75.1388 22.9969C75.5383 25.1648 76.578 27.1651 78.1251 28.7423C79.6723 30.3195 81.6567 31.402 83.825 31.8517C85.9933 32.3013 88.247 32.0978 90.2985 31.2669C92.3499 30.436 94.1059 29.0154 95.3423 27.1867C96.5788 25.358 97.2395 23.2041 97.2401 21C97.2638 18.0977 96.1338 15.3036 94.0965 13.2267C92.0592 11.1498 89.2795 9.95842 86.3633 9.91208ZM92.6861 21C92.5915 22.2194 92.1419 23.385 91.3922 24.3541C90.6425 25.3233 89.6253 26.0539 88.4649 26.4568C87.3045 26.8597 86.0513 26.9173 84.8586 26.6226C83.6658 26.3279 82.5852 25.6936 81.7489 24.7974C80.9127 23.9012 80.357 22.7819 80.1499 21.5764C79.9428 20.3708 80.0932 19.1313 80.5827 18.0095C81.0723 16.8878 81.8799 15.9323 82.9065 15.2599C83.9332 14.5876 85.1344 14.2276 86.3633 14.224C88.1031 14.2927 89.7448 15.0442 90.9295 16.3139C92.1143 17.5836 92.7459 19.2684 92.6861 21Z" fill="white"/>
<path d="M11.8624 14.576C13.3729 14.5782 14.838 15.09 16.0184 16.028C17.0795 16.908 17.6986 17.216 18.8482 16.028C19.4309 15.5668 19.824 14.9096 19.9535 14.1801C19.9503 14.0099 19.9088 13.8426 19.8324 13.6903C19.7559 13.5381 19.6462 13.4047 19.5114 13.3L19.0692 12.9481C17.0818 11.1601 14.4972 10.172 11.8181 10.176C8.88653 10.176 6.07504 11.335 4.0021 13.3979C1.92915 15.4608 0.764557 18.2587 0.764557 21.176C0.764557 24.0934 1.92915 26.8913 4.0021 28.9542C6.07504 31.0171 8.88653 32.176 11.8181 32.176C13.2835 32.1841 14.7349 31.8914 16.0814 31.316C17.428 30.7406 18.6407 29.895 19.644 28.832C19.7971 28.6921 19.9193 28.5221 20.003 28.3328C20.0868 28.1434 20.1302 27.9388 20.1304 27.732C20.1304 27.16 19.6882 26.6761 18.9808 26.0161C18.2734 25.3561 17.2123 25.4001 16.1069 26.0161C14.954 26.9006 13.5392 27.3803 12.0834 27.3801C10.3713 27.3801 8.72941 26.7032 7.51881 25.4984C6.30821 24.2937 5.62815 22.6597 5.62815 20.956C5.62815 19.2522 6.30821 17.6184 7.51881 16.4136C8.72941 15.2089 10.3713 14.532 12.0834 14.532L11.8624 14.576Z" fill="white"/>
</g>
<defs>
<clipPath id="clip0_0_1">
<rect width="122" height="33" fill="white"/>
</clipPath>
</defs>
</svg>
