<svg width="16" height="16" viewBox="0 0 16 16" fill="none" xmlns="http://www.w3.org/2000/svg">
<path d="M12.6392 15.9939C9.34054 15.8956 6.21303 14.5039 3.93247 12.1195L3.8885 12.0692C2.67504 10.9184 1.70547 9.53546 1.03746 8.00255C0.369453 6.46965 0.0166386 4.81811 0 3.14617V2.91383L0.144484 2.73172C0.352028 2.46818 0.574345 2.2166 0.810365 1.97819C1.65059 1.14154 2.65914 0.49298 3.76914 0.0755228C3.90646 0.0279757 4.05099 0.00460443 4.19631 0.0064489C4.56694 0.0064489 5.40243 0.194832 5.61602 0.778819C5.99293 1.81493 6.47036 3.17756 6.81586 4.48369C6.87322 4.76918 6.85403 5.06476 6.76026 5.34046C6.66649 5.61615 6.50146 5.86216 6.2819 6.05354L5.08834 6.82592C5.10932 6.97501 5.16529 7.11702 5.25167 7.24036C5.75559 7.91555 6.30999 8.5516 6.91009 9.14303C7.49669 9.72768 8.12668 10.2672 8.79466 10.7568C8.90404 10.844 9.03812 10.8946 9.17786 10.9013L9.59874 10.311L9.98822 9.68306C10.1467 9.50828 10.3409 9.3696 10.5576 9.27642C10.7744 9.18325 11.0087 9.13775 11.2446 9.14303C11.3335 9.14267 11.4221 9.15321 11.5084 9.17442C12.807 9.43602 14.0716 9.84473 15.2776 10.3926C15.5683 10.5922 15.7867 10.8805 15.8999 11.2144C16.0131 11.5483 16.0152 11.9099 15.9058 12.2451C15.4901 13.3382 14.8478 14.3312 14.0212 15.1587C13.781 15.3971 13.5272 15.6215 13.2611 15.8306L13.0852 15.9688L12.6392 15.9939ZM1.3883 3.4099C1.51439 6.32496 2.7584 9.07959 4.86219 11.1022L4.92501 11.165C6.93917 13.2711 9.69499 14.51 12.6078 14.6187C12.7648 14.4868 12.9219 14.3487 13.0664 14.2043C13.7572 13.5081 14.2962 12.6764 14.6494 11.7616C14.6494 11.7616 14.618 11.6736 14.5866 11.6046C13.502 11.1275 12.3688 10.7696 11.2069 10.5371C11.1517 10.5432 11.0971 10.5537 11.0436 10.5685L10.3463 11.6611C9.91912 12.3581 8.77582 12.4711 7.95917 11.8683C7.23161 11.3387 6.54494 10.7552 5.90499 10.1226C5.26904 9.47602 4.6792 8.78569 4.13977 8.05669C3.97724 7.84468 3.86039 7.60132 3.7966 7.34194C3.73281 7.08256 3.72346 6.81279 3.76914 6.54962C3.79795 6.36816 3.86491 6.19487 3.96561 6.04117C4.06631 5.88747 4.19847 5.75685 4.35336 5.65794L5.44641 4.9672C5.45094 4.90449 5.45094 4.84153 5.44641 4.77882C5.17 3.64852 4.74284 2.40519 4.39733 1.41304C4.33664 1.39152 4.27317 1.37884 4.20887 1.37537C3.30751 1.73079 2.48865 2.26722 1.80291 2.9515C1.65698 3.09714 1.5186 3.25014 1.3883 3.4099Z" fill="#B8E4D8"/>
</svg>
