<svg width="18" height="22" viewBox="0 0 18 22" fill="none" xmlns="http://www.w3.org/2000/svg">
<path d="M7.78186 13.5745C11.2512 13.5745 14.0637 10.762 14.0637 7.29261C14.0637 3.82323 11.2512 1.01074 7.78186 1.01074C4.31249 1.01074 1.5 3.82323 1.5 7.29261C1.5 10.762 4.31249 13.5745 7.78186 13.5745Z" stroke="#7B002B" stroke-width="2" stroke-miterlimit="10"/>
<path d="M7.78186 13.5745C11.2512 13.5745 14.0637 10.762 14.0637 7.29261C14.0637 3.82323 11.2512 1.01074 7.78186 1.01074C4.31249 1.01074 1.5 3.82323 1.5 7.29261C1.5 10.762 4.31249 13.5745 7.78186 13.5745Z" stroke="#4E4E4D" stroke-width="2" stroke-miterlimit="10"/>
<path d="M11.3373 12.7132L16.5 20.9892" stroke="#7B002B" stroke-width="2" stroke-miterlimit="10"/>
<path d="M11.3373 12.7132L16.5 20.9892" stroke="#4E4E4D" stroke-width="2" stroke-miterlimit="10"/>
</svg>
