<svg width="11" height="14" viewBox="0 0 11 14" fill="none" xmlns="http://www.w3.org/2000/svg">
<path d="M4.77233 8.546C6.85573 8.546 8.54466 6.85707 8.54466 4.77367C8.54466 2.69027 6.85573 1.00134 4.77233 1.00134C2.68893 1.00134 1 2.69027 1 4.77367C1 6.85707 2.68893 8.546 4.77233 8.546Z" stroke="#7B002B" stroke-width="2" stroke-miterlimit="10"/>
<path d="M4.77233 8.546C6.85573 8.546 8.54466 6.85707 8.54466 4.77367C8.54466 2.69027 6.85573 1.00134 4.77233 1.00134C2.68893 1.00134 1 2.69027 1 4.77367C1 6.85707 2.68893 8.546 4.77233 8.546Z" stroke="white" stroke-width="2" stroke-miterlimit="10"/>
<path d="M6.90735 8.02875L10.0076 12.9986" stroke="#7B002B" stroke-width="2" stroke-miterlimit="10"/>
<path d="M6.90735 8.02875L10.0076 12.9986" stroke="white" stroke-width="2" stroke-miterlimit="10"/>
</svg>
