<svg width="20" height="21" viewBox="0 0 20 21" fill="none" xmlns="http://www.w3.org/2000/svg">
<path d="M10 0.5C4.48 0.5 0 4.98 0 10.5C0 16.02 4.48 20.5 10 20.5C15.52 20.5 20 16.02 20 10.5C20 4.98 15.52 0.5 10 0.5ZM10 4.5C11.93 4.5 13.5 6.07 13.5 8C13.5 9.93 11.93 11.5 10 11.5C8.07 11.5 6.5 9.93 6.5 8C6.5 6.07 8.07 4.5 10 4.5ZM10 18.5C7.97 18.5 5.57 17.68 3.86 15.62C5.6116 14.2457 7.77362 13.4988 10 13.4988C12.2264 13.4988 14.3884 14.2457 16.14 15.62C14.43 17.68 12.03 18.5 10 18.5Z" fill="white"/>
</svg>
