<svg width="15" height="18" viewBox="0 0 15 18" fill="none" xmlns="http://www.w3.org/2000/svg">
<g clip-path="url(#clip0_306_5545)">
<path d="M11.9367 12.1066L11.9332 12.1101L7.51615 16.5815L3.06886 12.1342C2.04969 10.9291 1.51721 9.38634 1.57677 7.80834C1.6368 6.21788 2.29384 4.70843 3.41697 3.58073C4.5401 2.45302 6.04686 1.78986 7.63706 1.72336C9.21347 1.65745 10.7571 2.1827 11.9659 3.19527C13.1315 4.37889 13.7854 5.9739 13.7854 7.63623C13.7854 9.31235 13.1206 10.92 11.9367 12.1066Z" stroke="#4E4E4D" stroke-width="2"/>
<path d="M10.1626 7.79173C10.1626 9.08358 9.11532 10.1308 7.82347 10.1308C6.53162 10.1308 5.48438 9.08358 5.48438 7.79173C5.48438 6.49989 6.53162 5.45264 7.82347 5.45264C9.11532 5.45264 10.1626 6.49989 10.1626 7.79173Z" stroke="#4E4E4D" stroke-width="2"/>
</g>
<defs>
<clipPath id="clip0_306_5545">
<rect width="14.8696" height="18" fill="white"/>
</clipPath>
</defs>
</svg>
