<svg width="19" height="20" viewBox="0 0 19 20" fill="none" xmlns="http://www.w3.org/2000/svg">
<g clip-path="url(#clip0_423_5697)">
<path fill-rule="evenodd" clip-rule="evenodd" d="M16.2313 3.29415C15.3501 2.40598 14.3014 1.70164 13.1459 1.222C11.9904 0.742352 10.7511 0.496949 9.5 0.500029C6.98456 0.513373 4.57594 1.51855 2.79723 3.29726C1.01852 5.07597 0.0133448 7.48459 0 10C0 12.5196 1.00089 14.9359 2.78249 16.7175C4.56408 18.4991 6.98044 19.5 9.5 19.5C12.0196 19.5 14.4359 18.4991 16.2175 16.7175C17.9991 14.9359 19 12.5196 19 10C19.0101 8.75395 18.7703 7.5185 18.2948 6.36669C17.8192 5.21489 17.1176 4.17012 16.2313 3.29415ZM15.012 15.5121C13.5476 16.9593 11.5716 17.771 9.5127 17.771C7.45376 17.771 5.47782 16.9593 4.01337 15.5121C3.28108 14.7944 2.70116 13.9362 2.30834 12.9891C1.91553 12.042 1.71789 11.0253 1.72727 10C1.72131 8.97898 1.9206 7.96715 2.31332 7.02463C2.70604 6.08211 3.28417 5.22813 4.01337 4.5134C4.73354 3.78764 5.59024 3.2116 6.53409 2.81851C7.47794 2.42541 8.49026 2.22303 9.5127 2.22303C10.5351 2.22303 11.5475 2.42541 12.4913 2.81851C13.4352 3.2116 14.2919 3.78764 15.012 4.5134C15.7366 5.23025 16.3101 6.0852 16.6984 7.02762C17.0867 7.97004 17.282 8.98078 17.2727 10C17.2854 11.0235 17.0918 12.0391 16.7034 12.9861C16.315 13.9332 15.7397 14.7922 15.012 15.5121Z" fill="white"/>
<path fill-rule="evenodd" clip-rule="evenodd" d="M12.7152 8.71925L11.4706 7.5L9.84492 9.12567L8.21925 7.5L7 8.71925L8.62567 10.3449L7 11.9706L8.21925 13.2152L9.84492 11.5642L11.4706 13.2152L12.7152 11.9706L11.0642 10.3449L12.7152 8.71925Z" fill="white"/>
</g>
<defs>
<clipPath id="clip0_423_5697">
<rect width="19" height="19" fill="white" transform="translate(0 0.5)"/>
</clipPath>
</defs>
</svg>
