<svg width="18" height="18" viewBox="0 0 18 18" fill="none" xmlns="http://www.w3.org/2000/svg">
<path fill-rule="evenodd" clip-rule="evenodd" d="M15.4178 10.4864V12.185H16.195V15.1326C16.195 15.2671 16.1684 15.4003 16.1167 15.5245C16.0651 15.6488 15.9894 15.7617 15.8939 15.8568C15.7985 15.9519 15.6852 16.0273 15.5605 16.0788C15.4358 16.1302 15.3021 16.1567 15.1671 16.1567C14.8945 16.1567 14.6331 16.0488 14.4403 15.8568C14.2476 15.6647 14.1393 15.4042 14.1393 15.1326V0.14502H0V15.1326C0 15.8547 0.287897 16.5472 0.800357 17.0579C1.31282 17.5685 2.00786 17.8553 2.73259 17.8553H15.2674C15.9921 17.8553 16.6872 17.5685 17.1996 17.0579C17.7121 16.5472 18 15.8547 18 15.1326V10.4864H15.4178ZM6.71866 16.1567H2.63231C2.35971 16.1567 2.09827 16.0488 1.90551 15.8568C1.71275 15.6647 1.60446 15.4042 1.60446 15.1326V1.94353H12.5348V15.2575C12.5384 15.6082 12.6063 15.9553 12.7354 16.2816L6.71866 16.1567Z" fill="#4E4E4D"/>
<path d="M11.8378 4.3916H3.75977V6.27893H11.8378V4.3916Z" fill="#4E4E4D"/>
<path d="M11.8378 8.16602H3.75977V10.0533H11.8378V8.16602Z" fill="#4E4E4D"/>
<path d="M11.8378 11.9409H3.75977V13.8282H11.8378V11.9409Z" fill="#4E4E4D"/>
</svg>
