<svg width="15" height="16" viewBox="0 0 15 16" fill="none" xmlns="http://www.w3.org/2000/svg">
<g clip-path="url(#clip0_339_10270)">
<path d="M14.4679 8.89119L13.3613 8.01001L14.4679 7.10881C14.7247 6.90775 14.899 6.62327 14.9592 6.30717C15.0194 5.99107 14.9614 5.66436 14.7958 5.38652L13.4843 3.1235C13.3141 2.84851 13.0512 2.64009 12.7408 2.53409C12.4303 2.42809 12.0918 2.43114 11.7834 2.54272L10.4924 3.04339L10.267 1.66155C10.218 1.33951 10.0526 1.04528 9.80069 0.83219C9.54881 0.619098 9.22714 0.501249 8.89399 0.5H6.1685C5.83652 0.505262 5.51701 0.62453 5.26598 0.836903C5.01495 1.04928 4.84839 1.34121 4.79551 1.66155L4.57009 3.04339L3.23808 2.54272C2.92672 2.42983 2.58492 2.42602 2.271 2.53193C1.95708 2.63785 1.69049 2.84692 1.51672 3.1235L0.246184 5.38652C0.0806191 5.66436 0.022649 5.99107 0.0828262 6.30717C0.143003 6.62327 0.317326 6.90775 0.574063 7.10881L1.68065 8.01001L0.574063 8.89119C0.315746 9.09565 0.14073 9.38362 0.0806041 9.70313C0.0204786 10.0226 0.0792053 10.3526 0.246184 10.6335L1.5577 12.8765C1.73148 13.1531 1.99807 13.3622 2.31199 13.4681C2.62591 13.574 2.9677 13.5702 3.27907 13.4573L4.61107 12.9566L4.83649 14.3385C4.88548 14.6605 5.05091 14.9547 5.30279 15.1678C5.55467 15.3809 5.87634 15.4988 6.20948 15.5H8.8735C9.20665 15.4988 9.52831 15.3809 9.7802 15.1678C10.0321 14.9547 10.1975 14.6605 10.2465 14.3385L10.4924 12.9566L11.8449 13.4573C12.1533 13.5689 12.4918 13.5719 12.8023 13.4659C13.1127 13.3599 13.3756 13.1515 13.5458 12.8765L14.8573 10.6335C15.0177 10.3459 15.0666 10.0114 14.995 9.6914C14.9235 9.37139 14.7364 9.08729 14.4679 8.89119ZM12.2752 12.1956L9.32434 11.0941L8.83252 14.1983H6.1685L5.67668 11.0941L2.72577 12.1956L1.41425 9.9526L3.85285 7.94993L1.41425 5.94726L2.72577 3.70427L5.67668 4.78571L6.1685 1.74166H8.83252L9.32434 4.78571L12.2752 3.68425L13.6073 5.94726L11.1482 7.94993L13.6073 9.9526L12.2752 12.1956Z" fill="#4E4E4D"/>
<path d="M7.51024 5.59375C7.01917 5.59375 6.53913 5.73606 6.13082 6.00268C5.72251 6.26931 5.40427 6.64827 5.21634 7.09165C5.02842 7.53503 4.97925 8.02291 5.07505 8.4936C5.17086 8.96429 5.40733 9.39665 5.75457 9.73599C6.10181 10.0753 6.54422 10.3064 7.02586 10.4001C7.50749 10.4937 8.00672 10.4456 8.46041 10.262C8.9141 10.0783 9.30188 9.76733 9.5747 9.3683C9.84753 8.96926 9.99314 8.50013 9.99314 8.02022C9.99314 7.37668 9.73155 6.7595 9.26592 6.30445C8.80029 5.8494 8.16875 5.59375 7.51024 5.59375ZM7.51024 9.063C7.36671 9.0684 7.22353 9.04542 7.08929 8.99544C6.95506 8.94546 6.83254 8.8695 6.72907 8.77213C6.6256 8.67475 6.54331 8.55796 6.48714 8.42876C6.43097 8.29956 6.40207 8.1606 6.40217 8.02022C6.39945 7.8816 6.42503 7.74384 6.47743 7.61501C6.52983 7.48617 6.60799 7.36883 6.70735 7.26987C6.80671 7.1709 6.92526 7.09229 7.05607 7.03864C7.18689 6.98498 7.32734 6.95736 7.46921 6.95739C7.75764 6.95739 8.03427 7.06936 8.23822 7.26868C8.44218 7.468 8.55676 7.73834 8.55676 8.02022C8.55681 8.29334 8.44721 8.55558 8.25152 8.75058C8.05583 8.94557 7.78967 9.05775 7.51024 9.063Z" fill="#4E4E4D"/>
</g>
<defs>
<clipPath id="clip0_339_10270">
<rect width="15" height="15" fill="white" transform="translate(0 0.5)"/>
</clipPath>
</defs>
</svg>
