<svg width="14" height="18" viewBox="0 0 14 18" fill="none" xmlns="http://www.w3.org/2000/svg">
<path d="M11.7883 2.85303V16.6045H1.36559V2.85303H0V17.3023V18.0001H0.682795H12.4711H13.1539V17.3023V2.85303H11.7883Z" fill="#4E4E4D"/>
<path d="M10.3228 6.64999H11.0055V2.83243H8.99733V2.44246C8.99146 1.7962 8.73931 1.17772 8.29445 0.718401C8.07074 0.488964 7.80462 0.307295 7.51156 0.183967C7.21851 0.0606404 6.90438 -0.00188061 6.58746 4.30791e-05C5.95424 0.00162846 5.34753 0.259994 4.90055 0.718401C4.45202 1.17522 4.19923 1.7953 4.19768 2.44246V2.83243H2.18945V6.64999H10.3228ZM3.47471 4.2281H5.48294V2.44246C5.49363 2.30422 5.53109 2.16953 5.59314 2.04621C5.6552 1.92289 5.74061 1.8134 5.84442 1.7241C6.03598 1.52764 6.296 1.41691 6.56738 1.41624C6.84445 1.41808 7.11032 1.52823 7.31042 1.7241C7.50265 1.91988 7.61099 2.18563 7.61165 2.46299V4.24862H9.61988V5.27485H3.47471V4.2281Z" fill="#4E4E4D"/>
<path d="M4.17641 10.5497L3.19238 11.5349L5.74282 14.121L9.96009 9.81086L8.99614 8.82568L5.74282 12.1507L4.17641 10.5497Z" fill="#4E4E4D"/>
</svg>
