<svg width="17" height="18" viewBox="0 0 17 18" fill="none" xmlns="http://www.w3.org/2000/svg">
<g clip-path="url(#clip0_306_5550)">
<path fill-rule="evenodd" clip-rule="evenodd" d="M11.7728 8.31837C12.0997 7.26799 12.135 6.1485 11.8747 5.07963C11.6145 4.01077 11.0687 3.03275 10.2955 2.25018C9.59868 1.55587 8.74183 1.04353 7.80041 0.758286C6.85899 0.47304 5.86187 0.423634 4.89686 0.614418C3.93185 0.805202 3.02855 1.23033 2.2665 1.85235C1.50444 2.47438 0.907016 3.27423 0.526818 4.18147C0.14662 5.08872 -0.00468457 6.07553 0.0862273 7.05501C0.177139 8.03448 0.507479 8.97659 1.04816 9.79836C1.58884 10.6201 2.32327 11.2964 3.18679 11.7675C4.05031 12.2387 5.01642 12.4903 6.00006 12.5002C6.61632 12.5004 7.22916 12.4085 7.81824 12.2275L9.50006 13.8411H10.8637V15.682H12.7046V17.5002H17.0001V13.6138L11.7728 8.31837ZM15.5001 15.9547H14.2501V14.1365H12.3637V12.2956H10.091L8.2046 10.4093L7.72733 10.6138C6.78403 10.9282 5.76367 10.9246 4.82261 10.6036C3.88155 10.2826 3.07171 9.66183 2.51719 8.8365C1.96268 8.01118 1.69408 7.0268 1.75256 6.03421C1.81104 5.04162 2.19337 4.09559 2.84097 3.34109C3.59085 2.71216 4.5237 2.34206 5.50079 2.28583C6.47789 2.2296 7.44704 2.49025 8.26411 3.02901C9.08119 3.56777 9.70255 4.35586 10.0358 5.2761C10.369 6.19633 10.3964 7.19954 10.1137 8.13655L9.90915 8.61382L15.4546 14.182L15.5001 15.9547Z" fill="#4E4E4D"/>
<path fill-rule="evenodd" clip-rule="evenodd" d="M7.22683 4.75C7.074 4.75 6.9246 4.79532 6.79752 4.88023C6.67045 4.96514 6.57141 5.08582 6.51292 5.22702C6.45444 5.36821 6.43913 5.52358 6.46895 5.67348C6.49877 5.82337 6.57236 5.96106 6.68043 6.06913C6.7885 6.1772 6.92618 6.25079 7.07608 6.28061C7.22597 6.31042 7.38134 6.29512 7.52254 6.23663C7.66374 6.17815 7.78442 6.0791 7.86933 5.95203C7.95424 5.82496 7.99956 5.67556 7.99956 5.52273C7.99956 5.31779 7.91814 5.12124 7.77323 4.97633C7.62832 4.83141 7.43177 4.75 7.22683 4.75Z" fill="#4E4E4D"/>
</g>
<defs>
<clipPath id="clip0_306_5550">
<rect width="17" height="17" fill="white" transform="translate(0 0.5)"/>
</clipPath>
</defs>
</svg>
