<svg width="18" height="14" viewBox="0 0 18 14" fill="none" xmlns="http://www.w3.org/2000/svg">
<g clip-path="url(#clip0_306_5555)">
<path fill-rule="evenodd" clip-rule="evenodd" d="M7.034 11.0159H12.5265C13.3855 11.0263 14.2349 10.8349 15.006 10.4573C15.7771 10.0796 16.4482 9.52636 16.9649 8.84219C17.4817 8.15802 17.8297 7.36217 17.9808 6.51903C18.1318 5.6759 18.0817 4.80916 17.8344 3.98893C17.5871 3.16871 17.1496 2.41804 16.5573 1.79766C15.965 1.17727 15.2346 0.704597 14.4251 0.417875C13.6156 0.131154 12.7497 0.0384367 11.8976 0.147226C11.0455 0.256015 10.231 0.563255 9.52008 1.04409C8.64441 0.639358 7.69085 0.429555 6.72565 0.429257C4.93672 0.429257 3.22105 1.13775 1.95609 2.39888C0.69112 3.66001 -0.0195312 5.37047 -0.0195312 7.15398C-0.0195312 8.93748 0.69112 10.6479 1.95609 11.9091C3.22105 13.1702 4.93672 13.8787 6.72565 13.8787H13.4516V11.9573H12.1411V12.6298H6.72565C5.94172 12.6315 5.16678 12.4634 4.45437 12.1372C3.74196 11.8111 3.10908 11.3346 2.59944 10.7407C2.0898 10.1469 1.71557 9.4498 1.50259 8.69764C1.28961 7.94548 1.24297 7.15619 1.36588 6.3843C1.4888 5.61242 1.77834 4.87634 2.21451 4.22693C2.65068 3.57751 3.22307 3.03025 3.89214 2.62295C4.5612 2.21566 5.31099 1.95803 6.08969 1.86789C6.86839 1.77774 7.65743 1.85722 8.40231 2.10083C7.51988 3.09838 7.03329 4.3829 7.034 5.71296V11.0159ZM8.34449 5.55926C8.3521 4.73632 8.60382 3.93403 9.06795 3.25347C9.53208 2.5729 10.1878 2.04449 10.9526 1.73481C11.7174 1.42513 12.5571 1.34802 13.3657 1.51321C14.1744 1.6784 14.916 2.07849 15.497 2.66308C16.078 3.24767 16.4725 3.99061 16.6308 4.79832C16.789 5.60602 16.704 6.44236 16.3864 7.20196C16.0687 7.96157 15.5327 8.61048 14.8459 9.06693C14.159 9.52339 13.352 9.76697 12.5265 9.76701H8.34449V5.55926Z" fill="#4E4E4D"/>
<path d="M10.5615 4.96338H9.25098V6.2699H10.5615V4.96338Z" fill="#4E4E4D"/>
<path d="M13.1816 4.96338H11.8711V6.2699H13.1816V4.96338Z" fill="#4E4E4D"/>
<path d="M15.8027 4.96338H14.4922V6.2699H15.8027V4.96338Z" fill="#4E4E4D"/>
</g>
<defs>
<clipPath id="clip0_306_5555">
<rect width="18" height="13.68" fill="white" transform="translate(0 0.160156)"/>
</clipPath>
</defs>
</svg>
