<svg width="174" height="45" viewBox="0 0 174 45" fill="none" xmlns="http://www.w3.org/2000/svg">
<path d="M55.2716 15.3781C55.0803 14.9201 54.7543 14.5306 54.3367 14.2606C53.9191 13.9906 53.4294 13.8529 52.9317 13.8655H51.4772C50.9903 13.8655 50.5144 14.0091 50.1093 14.2783C49.7041 14.5475 49.388 14.9301 49.2007 15.3781L37.5648 40.5881C37.3483 40.9617 37.2344 41.3856 37.2344 41.8171C37.2344 42.2486 37.3483 42.6725 37.5648 43.0461C37.7986 43.4001 38.1182 43.6895 38.494 43.8878C38.8698 44.0861 39.2897 44.1868 39.7149 44.1805H40.9164C41.3957 44.1813 41.8662 44.0528 42.2782 43.8087C42.6901 43.5646 43.028 43.214 43.2562 42.794L45.4063 38.3193H54.5127C54.6359 38.3218 54.7578 38.2945 54.868 38.2396C54.9782 38.1847 55.0733 38.1038 55.1451 38.004C55.2061 37.8872 55.238 37.7575 55.238 37.6259C55.238 37.4942 55.2061 37.3645 55.1451 37.2477L52.8053 32.584C52.7492 32.4608 52.6609 32.3548 52.5496 32.2772C52.4384 32.1996 52.3083 32.1532 52.1729 32.1427H48.1888L52.1729 23.3193L61.0263 42.794C61.2402 43.2303 61.5732 43.5977 61.987 43.8541C62.4009 44.1105 62.8788 44.2455 63.3661 44.2436H64.631C65.0561 44.2499 65.476 44.1492 65.8518 43.9509C66.2276 43.7526 66.5472 43.463 66.7811 43.109C66.9975 42.7354 67.1115 42.3116 67.1115 41.8802C67.1115 41.4487 66.9975 41.0248 66.7811 40.6511L55.2716 15.3781Z" fill="white"/>
<path d="M97.1336 38.0668H84.8021V16.3231C84.7857 15.6989 84.5252 15.106 84.0763 14.6704C83.6274 14.2348 83.0256 13.991 82.399 13.9912H81.0711C80.4445 13.991 79.8427 14.2348 79.3938 14.6704C78.9449 15.106 78.6845 15.6989 78.668 16.3231V41.9114C78.6679 42.223 78.7304 42.5314 78.8519 42.8185C78.9734 43.1056 79.1515 43.3656 79.3755 43.583C79.5995 43.8004 79.8649 43.9708 80.1561 44.0842C80.4473 44.1977 80.7585 44.2517 81.0711 44.2433H97.1336C97.4461 44.2517 97.7573 44.1977 98.0485 44.0842C98.3398 43.9708 98.6052 43.8004 98.8292 43.583C99.0532 43.3656 99.2312 43.1056 99.3528 42.8185C99.4743 42.5314 99.5368 42.223 99.5367 41.9114V40.4618C99.5367 40.1473 99.4745 39.8358 99.3537 39.5453C99.233 39.2547 99.056 38.9906 98.8329 38.7682C98.6097 38.5458 98.3447 38.3695 98.0532 38.2491C97.7616 38.1288 97.4492 38.0668 97.1336 38.0668Z" fill="white"/>
<path d="M172.832 40.6507L170.682 38.3817C169.164 36.7431 167.583 35.1046 166.318 33.592C168.161 33.0381 169.765 31.884 170.872 30.3146C172.035 28.5804 172.652 26.5393 172.642 24.4533C172.664 22.9897 172.407 21.5353 171.883 20.1676C171.351 18.8792 170.579 17.7031 169.607 16.7013C168.745 15.8582 167.709 15.2127 166.571 14.8105C165.05 14.2575 163.447 13.9595 161.828 13.9282H150.572C150.002 13.9282 149.455 14.154 149.052 14.5558C148.648 14.9577 148.422 15.5027 148.422 16.071V42.4154C148.422 42.9838 148.648 43.5288 149.052 43.9307C149.455 44.3325 150.002 44.5583 150.572 44.5583H152.532C153.103 44.5583 153.65 44.3325 154.053 43.9307C154.456 43.5288 154.682 42.9838 154.682 42.4154V34.7264H158.73C159.552 35.8608 161.575 38.1298 163.536 40.2726C165.496 42.4155 166.002 43.0458 166.635 43.8651C166.849 44.1043 167.112 44.2954 167.407 44.4257C167.701 44.5561 168.02 44.6228 168.342 44.6213H171.251C171.668 44.6386 172.081 44.5266 172.432 44.3009C172.783 44.0752 173.055 43.7468 173.211 43.3608C173.488 42.9397 173.602 42.4331 173.532 41.9348C173.462 41.4365 173.213 40.9803 172.832 40.6507ZM165.939 26.0289C165.734 26.5051 165.432 26.9342 165.054 27.2895C164.743 27.6321 164.352 27.892 163.915 28.0458C163.495 28.0992 163.07 28.0992 162.651 28.0458H154.556V19.8526H162.651C163.314 19.8012 163.976 19.9552 164.548 20.2936C164.978 20.5442 165.346 20.889 165.623 21.302C165.874 21.7299 166.046 22.1997 166.129 22.6886C166.151 23.1295 166.151 23.5712 166.129 24.0121C166.214 24.6901 166.15 25.3786 165.939 26.0289Z" fill="white"/>
<path d="M122.494 8.31924C123.32 8.31924 124.126 8.07524 124.813 7.61817C125.499 7.1611 126.034 6.51143 126.35 5.75135C126.666 4.99127 126.749 4.15499 126.588 3.3481C126.427 2.54121 126.029 1.80009 125.445 1.21836C124.862 0.636618 124.118 0.240414 123.308 0.0799131C122.499 -0.0805878 121.66 0.00184598 120.897 0.31668C120.134 0.631514 119.482 1.16459 119.024 1.84864C118.565 2.53269 118.32 3.33687 118.32 4.15957C118.337 5.25771 118.782 6.30631 119.561 7.0829C120.34 7.85948 121.392 8.30297 122.494 8.31924Z" fill="white"/>
<path d="M122.429 13.109C119.262 13.0338 116.144 13.9009 113.474 15.5998C110.804 17.2986 108.703 19.7521 107.438 22.6468C106.173 25.5415 105.803 28.7461 106.375 31.8515C106.946 34.9568 108.433 37.822 110.646 40.0812C112.859 42.3403 115.697 43.8908 118.798 44.5349C121.9 45.179 125.123 44.8875 128.057 43.6973C130.991 42.5071 133.503 40.4723 135.271 37.8529C137.04 35.2336 137.985 32.1484 137.986 28.9912C138.02 24.8339 136.403 20.8318 133.489 17.8568C130.576 14.8819 126.6 13.1754 122.429 13.109ZM131.472 28.9912C131.337 30.7379 130.694 32.4074 129.622 33.7956C128.549 35.1838 127.094 36.2303 125.435 36.8074C123.775 37.3845 121.983 37.4671 120.277 37.0449C118.571 36.6228 117.025 35.7142 115.829 34.4305C114.633 33.1468 113.838 31.5435 113.542 29.8167C113.246 28.0899 113.461 26.3145 114.161 24.7077C114.861 23.1008 116.016 21.7322 117.485 20.7692C118.953 19.8062 120.671 19.2905 122.429 19.2853C124.917 19.3838 127.265 20.4601 128.96 22.2789C130.654 24.0976 131.558 26.5108 131.472 28.9912Z" fill="white"/>
<path d="M15.873 19.7898C18.0335 19.7929 20.1289 20.526 21.8173 21.8696C23.335 23.1301 24.2204 23.5712 25.8646 21.8696C26.6981 21.209 27.2603 20.2677 27.4456 19.2226C27.4409 18.9789 27.3817 18.7392 27.2723 18.5212C27.1629 18.3031 27.006 18.112 26.8132 17.962L26.1808 17.4579C23.3383 14.8969 19.6415 13.4815 15.8097 13.4873C11.6167 13.4873 7.59548 15.1474 4.63059 18.1023C1.6657 21.0571 0 25.0647 0 29.2436C0 33.4224 1.6657 37.43 4.63059 40.3849C7.59548 43.3397 11.6167 44.9998 15.8097 44.9998C17.9056 45.0114 19.9815 44.592 21.9074 43.7679C23.8333 42.9437 25.5679 41.7324 27.0029 40.2098C27.2218 40.0094 27.3967 39.7659 27.5164 39.4947C27.6362 39.2235 27.6983 38.9305 27.6986 38.6342C27.6986 37.8149 27.0662 37.1217 26.0543 36.1763C25.0425 35.231 23.5248 35.294 21.9439 36.1763C20.2949 37.4434 18.2713 38.1304 16.1891 38.1301C13.7404 38.1301 11.392 37.1605 9.66047 35.4349C7.92898 33.7092 6.9563 31.3687 6.9563 28.9283C6.9563 26.4879 7.92898 24.1476 9.66047 22.4219C11.392 20.6963 13.7404 19.7267 16.1891 19.7267L15.873 19.7898Z" fill="white"/>
</svg>
