<svg width="210" height="486" viewBox="0 0 210 486" fill="none" xmlns="http://www.w3.org/2000/svg">
<path d="M209.309 168.958C209.309 184.958 200.309 226.458 188.809 260.458C177.309 294.458 169.809 323.958 167.309 366.958C164.809 409.958 162.309 486.458 96.8086 485.458C48.8986 484.728 32.8086 461.458 33.8086 420.958C34.1686 406.098 37.5586 384.378 42.3086 364.958C45.0886 353.618 47.8386 346.438 52.3086 331.458C62.6986 296.608 74.3086 270.928 38.3086 220.458C-5.19141 159.458 -2.69141 140.458 3.30859 110.958C9.30859 81.4579 22.8086 40.4579 30.8086 25.9579C38.8086 11.4579 65.8086 -5.0421 97.3086 1.4579C128.809 7.9579 148.809 7.9579 177.809 63.4579C206.809 118.958 209.309 147.958 209.309 168.958Z" fill="white" fill-opacity="0.2"/>
</svg>
