<svg width="28" height="23" viewBox="0 0 28 23" fill="none" xmlns="http://www.w3.org/2000/svg">
<g clip-path="url(#clip0_204_447)">
<path d="M7.05005 5.21L5.69005 0H0.0500488V2.38H3.92005L5.05005 6.71L8.20005 18.55H24.05L27.62 5.21H7.05005ZM22.18 16.21H10.05L7.73005 7.55H24.51L22.18 16.21Z" fill="white"/>
<path d="M12.32 20.44C12.0815 20.4295 11.8546 20.334 11.6803 20.1708C11.5061 20.0076 11.396 19.7874 11.37 19.55H8.98999C9.03664 20.4004 9.40729 21.2005 10.0257 21.7859C10.6442 22.3714 11.4634 22.6976 12.315 22.6976C13.1666 22.6976 13.9858 22.3714 14.6043 21.7859C15.2227 21.2005 15.5933 20.4004 15.64 19.55H13.26C13.2472 19.7906 13.1425 20.017 12.9676 20.1826C12.7927 20.3482 12.5609 20.4404 12.32 20.44Z" fill="white"/>
<path d="M19.9301 20.44C19.675 20.4405 19.4293 20.3434 19.2434 20.1686C19.0575 19.9939 18.9454 19.7547 18.9301 19.5H16.6001C16.6467 20.3503 17.0174 21.1504 17.6358 21.7359C18.2543 22.3213 19.0735 22.6476 19.9251 22.6476C20.7767 22.6476 21.5959 22.3213 22.2144 21.7359C22.8328 21.1504 23.2034 20.3503 23.2501 19.5H20.8701C20.8701 19.7493 20.7711 19.9884 20.5948 20.1647C20.4185 20.341 20.1794 20.44 19.9301 20.44Z" fill="white"/>
</g>
<defs>
<clipPath id="clip0_204_447">
<rect width="27.62" height="22.82" fill="white"/>
</clipPath>
</defs>
</svg>
