<svg width="90" height="74" viewBox="0 0 90 74" fill="none" xmlns="http://www.w3.org/2000/svg">
<g clip-path="url(#clip0_204_578)">
<path d="M22.9724 16.8948L18.5408 0H0.162842V7.71779H12.7733L16.4554 21.759L26.7197 60.1534H78.367L89.9999 16.8948H22.9724ZM72.2736 52.5653H32.7479L25.1882 24.4829H79.866L72.2736 52.5653Z" fill="#7B002B"/>
<path d="M22.9724 16.8948L18.5408 0H0.162842V7.71779H12.7733L16.4554 21.759L26.7197 60.1534H78.367L89.9999 16.8948H22.9724ZM72.2736 52.5653H32.7479L25.1882 24.4829H79.866L72.2736 52.5653Z" fill="#4E4E4D"/>
<path d="M40.1448 66.2823C39.3676 66.2482 38.6282 65.9385 38.0605 65.4092C37.4927 64.8799 37.134 64.1658 37.0492 63.3962H29.2939C29.446 66.1536 30.6537 68.7482 32.6689 70.6467C34.6841 72.5451 37.3536 73.6031 40.1285 73.6031C42.9034 73.6031 45.5729 72.5451 47.5881 70.6467C49.6033 68.7482 50.811 66.1536 50.963 63.3962H43.2078C43.166 64.1762 42.825 64.9105 42.255 65.4476C41.6851 65.9846 40.9297 66.2834 40.1448 66.2823Z" fill="#7B002B"/>
<path d="M40.1448 66.2823C39.3676 66.2482 38.6282 65.9385 38.0605 65.4092C37.4927 64.8799 37.134 64.1658 37.0492 63.3962H29.2939C29.446 66.1536 30.6537 68.7482 32.6689 70.6467C34.6841 72.5451 37.3536 73.6031 40.1285 73.6031C42.9034 73.6031 45.5729 72.5451 47.5881 70.6467C49.6033 68.7482 50.811 66.1536 50.963 63.3962H43.2078C43.166 64.1762 42.825 64.9105 42.255 65.4476C41.6851 65.9846 40.9297 66.2834 40.1448 66.2823Z" fill="#4E4E4D"/>
<path d="M64.9421 66.2821C64.1108 66.2836 63.3103 65.9688 62.7045 65.4021C62.0987 64.8354 61.7335 64.0598 61.6836 63.2339H54.0913C54.2433 65.9913 55.4511 68.5859 57.4663 70.4843C59.4815 72.3828 62.1509 73.4408 64.9258 73.4408C67.7008 73.4408 70.3702 72.3828 72.3854 70.4843C74.4006 68.5859 75.6084 65.9913 75.7604 63.2339H68.0051C68.0051 64.0423 67.6824 64.8176 67.108 65.3893C66.5336 65.9609 65.7545 66.2821 64.9421 66.2821Z" fill="#7B002B"/>
<path d="M64.9421 66.2821C64.1108 66.2836 63.3103 65.9688 62.7045 65.4021C62.0987 64.8354 61.7335 64.0598 61.6836 63.2339H54.0913C54.2433 65.9913 55.4511 68.5859 57.4663 70.4843C59.4815 72.3828 62.1509 73.4408 64.9258 73.4408C67.7008 73.4408 70.3702 72.3828 72.3854 70.4843C74.4006 68.5859 75.6084 65.9913 75.7604 63.2339H68.0051C68.0051 64.0423 67.6824 64.8176 67.108 65.3893C66.5336 65.9609 65.7545 66.2821 64.9421 66.2821Z" fill="#4E4E4D"/>
</g>
<defs>
<clipPath id="clip0_204_578">
<rect width="90" height="74" fill="white"/>
</clipPath>
</defs>
</svg>
