<svg width="16" height="17" viewBox="0 0 16 17" fill="none" xmlns="http://www.w3.org/2000/svg">
<g clip-path="url(#clip0_204_464)">
<path d="M6.72653 5.53687H5.1272V13.0827H6.72653V5.53687Z" fill="#4E4E4D"/>
<path d="M12.8551 14.0369C12.8551 14.3933 12.7135 14.7351 12.4615 14.9871C12.2094 15.2392 11.8676 15.3807 11.5111 15.3807H4.47544C4.119 15.3807 3.77715 15.2392 3.52511 14.9871C3.27306 14.7351 3.13147 14.3933 3.13147 14.0369V5.53687H1.57246V14.0369C1.56708 14.8133 1.86949 15.5603 2.41353 16.1144C2.95757 16.6685 3.69894 16.9845 4.47544 16.9934H11.5179C11.9052 16.9934 12.2887 16.9168 12.6463 16.768C13.0039 16.6191 13.3285 16.401 13.6015 16.1262C13.8744 15.8514 14.0903 15.5253 14.2367 15.1668C14.3831 14.8082 14.4571 14.4242 14.4544 14.0369V5.53687H12.8551V14.0369Z" fill="#4E4E4D"/>
<path d="M10.8728 5.53687H9.27344V13.0827H10.8728V5.53687Z" fill="#4E4E4D"/>
<path d="M12.0622 2.81541V0H3.93112V2.81541H0V4.41462H16V2.81541H12.0622ZM5.53045 2.81541V1.59921H10.4628V2.81541H5.53045Z" fill="#4E4E4D"/>
</g>
<defs>
<clipPath id="clip0_204_464">
<rect width="16" height="17" fill="white"/>
</clipPath>
</defs>
</svg>
