<svg width="185" height="247" viewBox="0 0 185 247" fill="none" xmlns="http://www.w3.org/2000/svg">
<path opacity="0.5" d="M92.2329 246.758C75.2721 246.758 59.7691 242.894 45.7241 235.165C31.8598 227.61 20.3169 216.419 12.3366 202.795C4.1122 188.94 0 173.359 0 156.053C0 138.747 4.07049 123.211 12.2115 109.444C20.1739 95.8383 31.724 84.6838 45.5989 77.2001C59.7441 69.4876 75.2888 65.6313 92.2329 65.6313C109.177 65.6313 124.724 69.4959 138.875 77.2251C152.796 84.7438 164.427 95.8844 172.538 109.469C180.852 123.241 185.006 138.778 185 156.078C184.994 173.378 180.84 188.959 172.538 202.82C164.456 216.46 152.821 227.648 138.875 235.19C124.741 242.902 109.194 246.758 92.2329 246.758ZM92.2329 207.453C106.801 207.453 118.409 202.793 127.056 193.472C135.703 184.151 140.03 171.681 140.035 156.061C140.035 140.28 135.709 127.76 127.056 118.5C118.403 109.241 106.795 104.622 92.2329 104.645C77.8429 104.645 66.3214 109.305 57.6685 118.626C49.0156 127.946 44.6919 140.417 44.6975 156.036C44.6975 171.484 49.0212 183.912 57.6685 193.322C66.3159 202.731 77.8373 207.436 92.2329 207.436V207.453Z" fill="#B8E4D8"/>
<path opacity="0.5" d="M93.3436 49.2809C106.952 49.2809 117.984 38.249 117.984 24.6405C117.984 11.0319 106.952 0 93.3436 0C79.735 0 68.7031 11.0319 68.7031 24.6405C68.7031 38.249 79.735 49.2809 93.3436 49.2809Z" fill="#B8E4D8"/>
</svg>
