<svg width="114" height="159" viewBox="0 0 114 159" fill="none" xmlns="http://www.w3.org/2000/svg">
<path opacity="0.5" d="M56.7657 159C46.3269 159 36.7855 156.51 28.1414 151.529C19.6084 146.662 12.5042 139.451 7.59271 130.672C2.53089 121.744 0 111.705 0 100.554C0 89.4024 2.50523 79.3915 7.51567 70.5209C12.4162 61.7539 19.5249 54.5664 28.0643 49.7443C36.7701 44.7747 46.3372 42.2899 56.7657 42.2899C67.1941 42.2899 76.7629 44.7801 85.4721 49.7604C94.0401 54.6051 101.198 61.7836 106.19 70.537C111.307 79.4113 113.864 89.4221 113.86 100.57C113.857 111.717 111.3 121.757 106.19 130.688C101.216 139.477 94.0552 146.686 85.4721 151.546C76.7732 156.515 67.2044 159 56.7657 159ZM56.7657 133.673C65.7317 133.673 72.8758 130.67 78.1979 124.665C83.52 118.659 86.1828 110.624 86.1862 100.559C86.1862 90.3902 83.5234 82.3227 78.1979 76.3564C72.8724 70.39 65.7283 67.414 56.7657 67.4283C47.9092 67.4283 40.8182 70.4312 35.4927 76.437C30.1671 82.4429 27.5061 90.4781 27.5095 100.543C27.5095 110.496 30.1706 118.505 35.4927 124.568C40.8148 130.631 47.9058 133.663 56.7657 133.663V133.673Z" fill="#B8E4D8"/>
<path opacity="0.5" d="M57.4494 31.7544C65.8249 31.7544 72.6146 24.6459 72.6146 15.8772C72.6146 7.10846 65.8249 0 57.4494 0C49.0739 0 42.2842 7.10846 42.2842 15.8772C42.2842 24.6459 49.0739 31.7544 57.4494 31.7544Z" fill="#B8E4D8"/>
<path d="M76.0169 71.6525V123H37.0991V71.6525H32V125.606V128.211H34.5495H78.5665H81.116V125.606V71.6525H76.0169Z" fill="#4E4E4D"/>
<path d="M70.5433 85.8308H73.0928V71.5762H65.5942V70.1201C65.5723 67.7069 64.6308 65.3976 62.9697 63.6825C62.1343 62.8258 61.1406 62.1474 60.0464 61.6869C58.9521 61.2264 57.7792 60.993 56.5958 61.0002C54.2314 61.0061 51.966 61.9708 50.297 63.6825C48.6222 65.3882 47.6782 67.7036 47.6725 70.1201V71.5762H40.1738V85.8308H70.5433ZM44.9729 76.7876H52.4716V70.1201C52.5115 69.6039 52.6514 69.1009 52.8831 68.6405C53.1148 68.18 53.4337 67.7712 53.8213 67.4377C54.5366 66.7042 55.5075 66.2907 56.5208 66.2882C57.5554 66.295 58.5481 66.7064 59.2953 67.4377C60.0131 68.1688 60.4176 69.1611 60.4201 70.1967V76.8642H67.9188V80.6961H44.9729V76.7876Z" fill="#4E4E4D"/>
</svg>
