<svg width="114" height="159" viewBox="0 0 114 159" fill="none" xmlns="http://www.w3.org/2000/svg">
<path opacity="0.5" d="M56.7657 159C46.3269 159 36.7855 156.51 28.1414 151.529C19.6084 146.662 12.5042 139.451 7.59271 130.672C2.53089 121.744 0 111.705 0 100.554C0 89.4024 2.50523 79.3915 7.51567 70.5209C12.4162 61.7539 19.5249 54.5664 28.0643 49.7443C36.7701 44.7747 46.3372 42.2899 56.7657 42.2899C67.1941 42.2899 76.7629 44.7801 85.4721 49.7604C94.0401 54.6051 101.198 61.7836 106.19 70.537C111.307 79.4113 113.864 89.4221 113.86 100.57C113.857 111.717 111.3 121.757 106.19 130.688C101.216 139.477 94.0552 146.686 85.4721 151.546C76.7732 156.515 67.2044 159 56.7657 159ZM56.7657 133.673C65.7317 133.673 72.8758 130.67 78.1979 124.665C83.52 118.659 86.1828 110.624 86.1862 100.559C86.1862 90.3903 83.5234 82.3227 78.1979 76.3564C72.8724 70.39 65.7283 67.414 56.7657 67.4283C47.9092 67.4283 40.8182 70.4312 35.4927 76.437C30.1671 82.4429 27.5061 90.4781 27.5095 100.543C27.5095 110.496 30.1706 118.505 35.4927 124.568C40.8148 130.631 47.9058 133.663 56.7657 133.663V133.673Z" fill="#B8E4D8"/>
<path opacity="0.5" d="M57.4494 31.7544C65.8249 31.7544 72.6146 24.6459 72.6146 15.8772C72.6146 7.10846 65.8249 0 57.4494 0C49.0739 0 42.2842 7.10846 42.2842 15.8772C42.2842 24.6459 49.0739 31.7544 57.4494 31.7544Z" fill="#B8E4D8"/>
</svg>
