<svg width="349" height="91" viewBox="0 0 349 91" fill="none" xmlns="http://www.w3.org/2000/svg">
<path d="M111.525 30.8747C111.141 29.9552 110.486 29.1732 109.648 28.6311C108.809 28.0891 107.826 27.8126 106.827 27.838H103.907C102.929 27.838 101.974 28.1262 101.16 28.6667C100.347 29.2071 99.7121 29.9754 99.3361 30.8747L75.9744 81.4894C75.5398 82.2396 75.311 83.0907 75.311 83.957C75.311 84.8233 75.5398 85.6743 75.9744 86.4246C76.4438 87.1352 77.0855 87.7163 77.84 88.1144C78.5946 88.5125 79.4375 88.7147 80.2912 88.7021H82.7036C83.6658 88.7037 84.6105 88.4458 85.4376 87.9557C86.2646 87.4656 86.9431 86.7615 87.4012 85.9183L91.718 76.9343H110.001C110.248 76.9395 110.493 76.8847 110.715 76.7744C110.936 76.6642 111.127 76.5016 111.271 76.3014C111.393 76.0669 111.457 75.8065 111.457 75.5422C111.457 75.2779 111.393 75.0175 111.271 74.783L106.573 65.4194C106.46 65.1721 106.283 64.9593 106.06 64.8035C105.837 64.6477 105.575 64.5545 105.304 64.5336H97.3046L105.304 46.8185L123.079 85.9183C123.508 86.7943 124.177 87.5321 125.008 88.0468C125.838 88.5616 126.798 88.8326 127.776 88.8288H130.316C131.169 88.8413 132.012 88.6391 132.767 88.241C133.521 87.8429 134.163 87.2615 134.633 86.5508C135.067 85.8006 135.296 84.9499 135.296 84.0837C135.296 83.2174 135.067 82.3663 134.633 81.6161L111.525 30.8747Z" fill="white"/>
<path d="M195.576 76.428H170.818V32.7727C170.785 31.5195 170.262 30.329 169.36 29.4544C168.459 28.5798 167.251 28.0904 165.993 28.0909H163.327C162.069 28.0904 160.86 28.5798 159.959 29.4544C159.058 30.329 158.535 31.5195 158.502 32.7727V84.147C158.502 84.7726 158.627 85.3916 158.871 85.9681C159.115 86.5445 159.473 87.0666 159.922 87.5031C160.372 87.9395 160.905 88.2817 161.49 88.5094C162.074 88.7371 162.699 88.8457 163.327 88.8288H195.576C196.203 88.8457 196.828 88.7371 197.413 88.5094C197.998 88.2817 198.53 87.9395 198.98 87.5031C199.43 87.0666 199.787 86.5445 200.031 85.9681C200.275 85.3916 200.401 84.7726 200.401 84.147V81.2365C200.401 80.605 200.276 79.9798 200.033 79.3964C199.791 78.813 199.436 78.2828 198.987 77.8363C198.539 77.3898 198.007 77.0357 197.422 76.7941C196.837 76.5524 196.209 76.428 195.576 76.428Z" fill="white"/>
<path d="M347.554 81.6159L343.237 77.0604C340.19 73.7705 337.016 70.4808 334.477 67.4439C338.177 66.3319 341.396 64.0148 343.618 60.8637C345.954 57.382 347.192 53.284 347.173 49.0959C347.218 46.1574 346.701 43.2373 345.65 40.4915C344.581 37.9047 343.03 35.5434 341.079 33.5321C339.35 31.8392 337.269 30.5434 334.985 29.7358C331.93 28.6256 328.713 28.0272 325.462 27.9645H302.862C301.717 27.9645 300.619 28.4177 299.81 29.2245C299 30.0313 298.545 31.1257 298.545 32.2667V85.159C298.545 86.3 299 87.3943 299.81 88.2011C300.619 89.008 301.717 89.4612 302.862 89.4612H306.798C307.943 89.4612 309.041 89.008 309.851 88.2011C310.66 87.3943 311.115 86.3 311.115 85.159V69.7215H319.241C320.892 71.9991 324.954 76.5545 328.89 80.8568C332.826 85.159 333.842 86.4245 335.112 88.0694C335.543 88.5498 336.071 88.9333 336.662 89.1951C337.253 89.4569 337.893 89.5908 338.54 89.5878H344.38C345.218 89.6224 346.046 89.3976 346.751 88.9445C347.456 88.4914 348.002 87.832 348.316 87.0569C348.871 86.2116 349.1 85.1944 348.959 84.194C348.819 83.1935 348.32 82.2776 347.554 81.6159ZM333.715 52.2593C333.303 53.2154 332.698 54.077 331.938 54.7902C331.314 55.478 330.529 55.9999 329.652 56.3086C328.809 56.4158 327.956 56.4158 327.113 56.3086H310.861V39.859H327.113C328.444 39.7559 329.774 40.0649 330.922 40.7444C331.786 41.2475 332.524 41.9399 333.08 42.7691C333.585 43.6281 333.929 44.5713 334.096 45.5529C334.141 46.4381 334.141 47.3249 334.096 48.2101C334.268 49.5713 334.138 50.9537 333.715 52.2593Z" fill="white"/>
<path d="M246.49 16.7027C248.147 16.7027 249.767 16.2129 251.145 15.2952C252.523 14.3775 253.597 13.0732 254.232 11.5471C254.866 10.0211 255.032 8.34208 254.708 6.72207C254.385 5.10205 253.587 3.61409 252.415 2.44612C251.243 1.27815 249.75 0.482685 248.124 0.160443C246.499 -0.161798 244.814 0.00370623 243.283 0.635806C241.752 1.26791 240.443 2.33818 239.522 3.71157C238.601 5.08495 238.11 6.69952 238.11 8.35127C238.143 10.556 239.036 12.6613 240.601 14.2205C242.165 15.7797 244.277 16.6701 246.49 16.7027Z" fill="white"/>
<path d="M246.363 26.3196C240.004 26.1687 233.745 27.9095 228.384 31.3204C223.024 34.7312 218.804 39.6571 216.265 45.4689C213.726 51.2806 212.983 57.7146 214.13 63.9493C215.277 70.184 218.263 75.9365 222.706 80.4723C227.149 85.0081 232.847 88.121 239.074 89.4142C245.3 90.7074 251.772 90.122 257.663 87.7325C263.554 85.3429 268.596 81.2577 272.147 75.9986C275.697 70.7396 277.595 64.5454 277.597 58.2067C277.665 49.86 274.42 41.8248 268.569 35.8519C262.719 29.8791 254.737 26.4529 246.363 26.3196ZM264.519 58.2067C264.248 61.7135 262.956 65.0655 260.804 67.8526C258.651 70.6396 255.73 72.7408 252.398 73.8995C249.065 75.0581 245.467 75.2239 242.042 74.3764C238.616 73.5288 235.513 71.7047 233.112 69.1273C230.711 66.5499 229.115 63.331 228.52 59.8641C227.925 56.3972 228.357 52.8326 229.763 49.6066C231.169 46.3805 233.488 43.6326 236.436 41.6992C239.384 39.7657 242.834 38.7304 246.363 38.7199C251.359 38.9177 256.073 41.0787 259.475 44.7301C262.877 48.3816 264.691 53.2267 264.519 58.2067Z" fill="white"/>
<path d="M32.4252 39.7324C36.763 39.7387 40.97 41.2106 44.3597 43.908C47.4069 46.4387 49.1846 47.3245 52.4857 43.908C54.159 42.5818 55.2879 40.6918 55.6599 38.5937C55.6505 38.1043 55.5316 37.6231 55.3119 37.1853C55.0923 36.7475 54.7773 36.3639 54.3901 36.0628L53.1204 35.0506C47.4135 29.9089 39.9914 27.0672 32.2982 27.0788C23.8798 27.0788 15.8063 30.4117 9.85359 36.3443C3.9009 42.2768 0.556641 50.3231 0.556641 58.713C0.556641 67.1029 3.9009 75.1491 9.85359 81.0816C15.8063 87.0142 23.8798 90.3471 32.2982 90.3471C36.5062 90.3704 40.6739 89.5285 44.5407 87.8738C48.4074 86.2191 51.89 83.7871 54.771 80.7302C55.2106 80.3278 55.5617 79.839 55.8021 79.2945C56.0425 78.75 56.1671 78.1617 56.1678 77.5668C56.1678 75.9218 54.8981 74.5301 52.8666 72.6321C50.8351 70.734 47.788 70.8606 44.6139 72.6321C41.3032 75.176 37.2403 76.5553 33.0599 76.5547C28.1436 76.5547 23.4286 74.6081 19.9522 71.1434C16.4758 67.6788 14.523 62.9798 14.523 58.08C14.523 53.1803 16.4758 48.4817 19.9522 45.017C23.4286 41.5524 28.1436 39.6058 33.0599 39.6058L32.4252 39.7324Z" fill="white"/>
</svg>
