<svg width="158" height="118" viewBox="0 0 158 118" fill="none" xmlns="http://www.w3.org/2000/svg">
<rect width="157.95" height="117.708" fill="#B8E4D8"/>
<path d="M62.6789 63.1626H66.6065V64.3538H61.2141V53.1343H62.6789V63.1626ZM71.5987 64.4986C70.7724 64.4986 70.0213 64.3108 69.3452 63.9352C68.6799 63.5597 68.154 63.0285 67.7677 62.3417C67.3921 61.6441 67.2043 60.8393 67.2043 59.9271C67.2043 59.0257 67.3975 58.2316 67.7838 57.5448C68.1809 56.8473 68.7174 56.3161 69.3935 55.9512C70.0696 55.5757 70.8261 55.3879 71.6631 55.3879C72.5002 55.3879 73.2567 55.5757 73.9328 55.9512C74.6088 56.3161 75.14 56.8419 75.5264 57.5287C75.9234 58.2155 76.1219 59.015 76.1219 59.9271C76.1219 60.8393 75.918 61.6441 75.5103 62.3417C75.1132 63.0285 74.5713 63.5597 73.8845 63.9352C73.1977 64.3108 72.4358 64.4986 71.5987 64.4986ZM71.5987 63.2109C72.1246 63.2109 72.6182 63.0875 73.0796 62.8407C73.5411 62.5938 73.9113 62.2236 74.1903 61.73C74.4801 61.2364 74.6249 60.6354 74.6249 59.9271C74.6249 59.2189 74.4854 58.6179 74.2064 58.1243C73.9274 57.6307 73.5626 57.2658 73.1118 57.0297C72.6611 56.7829 72.1729 56.6595 71.647 56.6595C71.1105 56.6595 70.6168 56.7829 70.1661 57.0297C69.7262 57.2658 69.372 57.6307 69.1037 58.1243C68.8355 58.6179 68.7013 59.2189 68.7013 59.9271C68.7013 60.6461 68.8301 61.2524 69.0876 61.7461C69.3559 62.2397 69.7101 62.6099 70.15 62.8568C70.59 63.0928 71.0729 63.2109 71.5987 63.2109ZM81.2753 55.3879C82.0372 55.3879 82.7025 55.5542 83.2713 55.8869C83.8508 56.2195 84.28 56.638 84.559 57.1424V55.5327H86.0399V64.5469C86.0399 65.3518 85.8682 66.0654 85.5248 66.6878C85.1814 67.3209 84.6878 67.8146 84.0439 68.1687C83.4108 68.5228 82.6703 68.6999 81.8226 68.6999C80.6636 68.6999 79.6978 68.4262 78.9252 67.879C78.1525 67.3317 77.6964 66.5858 77.5569 65.6415H79.0056C79.1666 66.1781 79.4993 66.6073 80.0036 66.9292C80.508 67.2619 81.1143 67.4282 81.8226 67.4282C82.6274 67.4282 83.282 67.1761 83.7864 66.6717C84.3015 66.1673 84.559 65.4591 84.559 64.5469V62.6958C84.2693 63.2109 83.84 63.6401 83.2713 63.9835C82.7025 64.3269 82.0372 64.4986 81.2753 64.4986C80.4919 64.4986 79.7783 64.3055 79.1344 63.9191C78.5013 63.5328 78.0023 62.9909 77.6374 62.2934C77.2726 61.5958 77.0901 60.8017 77.0901 59.911C77.0901 59.0096 77.2726 58.2209 77.6374 57.5448C78.0023 56.858 78.5013 56.3268 79.1344 55.9512C79.7783 55.5757 80.4919 55.3879 81.2753 55.3879ZM84.559 59.9271C84.559 59.2618 84.4249 58.6823 84.1566 58.1887C83.8883 57.6951 83.5235 57.3195 83.062 57.0619C82.6113 56.7936 82.1123 56.6595 81.565 56.6595C81.0177 56.6595 80.5187 56.7883 80.068 57.0458C79.6173 57.3034 79.2578 57.679 78.9896 58.1726C78.7213 58.6662 78.5871 59.2457 78.5871 59.911C78.5871 60.5871 78.7213 61.1773 78.9896 61.6817C79.2578 62.1753 79.6173 62.5563 80.068 62.8246C80.5187 63.0821 81.0177 63.2109 81.565 63.2109C82.1123 63.2109 82.6113 63.0821 83.062 62.8246C83.5235 62.5563 83.8883 62.1753 84.1566 61.6817C84.4249 61.1773 84.559 60.5925 84.559 59.9271ZM91.952 64.4986C91.1257 64.4986 90.3745 64.3108 89.6984 63.9352C89.0331 63.5597 88.5073 63.0285 88.121 62.3417C87.7454 61.6441 87.5576 60.8393 87.5576 59.9271C87.5576 59.0257 87.7507 58.2316 88.137 57.5448C88.5341 56.8473 89.0707 56.3161 89.7467 55.9512C90.4228 55.5757 91.1793 55.3879 92.0164 55.3879C92.8534 55.3879 93.61 55.5757 94.286 55.9512C94.9621 56.3161 95.4933 56.8419 95.8796 57.5287C96.2767 58.2155 96.4752 59.015 96.4752 59.9271C96.4752 60.8393 96.2713 61.6441 95.8635 62.3417C95.4664 63.0285 94.9245 63.5597 94.2377 63.9352C93.5509 64.3108 92.789 64.4986 91.952 64.4986ZM91.952 63.2109C92.4778 63.2109 92.9714 63.0875 93.4329 62.8407C93.8943 62.5938 94.2646 62.2236 94.5436 61.73C94.8333 61.2364 94.9782 60.6354 94.9782 59.9271C94.9782 59.2189 94.8387 58.6179 94.5597 58.1243C94.2807 57.6307 93.9158 57.2658 93.4651 57.0297C93.0144 56.7829 92.5261 56.6595 92.0003 56.6595C91.4637 56.6595 90.9701 56.7829 90.5194 57.0297C90.0794 57.2658 89.7253 57.6307 89.457 58.1243C89.1887 58.6179 89.0546 59.2189 89.0546 59.9271C89.0546 60.6461 89.1833 61.2524 89.4409 61.7461C89.7092 62.2397 90.0633 62.6099 90.5033 62.8568C90.9433 63.0928 91.4262 63.2109 91.952 63.2109Z" fill="black"/>
</svg>
